<svg width="194" height="166" viewBox="0 0 194 166" fill="none" xmlns="http://www.w3.org/2000/svg">
<path d="M193.299 86.8512C193.299 78.5038 191.157 67.5952 187.573 57.6628C186.477 54.6361 183.425 51.2206 180.17 49.0163C180.498 45.3125 179.869 40.97 177.572 37.4605C170.821 27.1116 162.331 18.7577 152.363 12.6167C149.63 10.925 145.92 10.0044 142.654 10.1688C140.805 7.5672 137.916 5.58499 135.136 4.68573C130.272 3.10937 125.097 1.93884 119.777 1.19551C117.607 0.877245 115.146 1.39843 112.356 2.77188C110.389 1.47533 107.714 0.189453 104.885 0.189453C96.5541 0.189453 88.4264 0.77899 80.7095 1.94952C77.399 2.45361 74.5142 4.203 72.3272 6.24288C70.0759 5.58499 67.7775 5.37353 66.4079 5.37353C65.1753 5.37353 64.0646 5.51877 63.108 5.79004C58.5113 7.13359 54.0259 8.72918 49.778 10.5384C46.6022 11.8926 43.42 14.7933 41.4298 17.9375C38.0208 18.1297 33.576 19.0696 30.5586 21.2162C18.9363 29.4633 10.1109 39.6478 5.03914 50.6525C3.91564 53.0811 3.539 56.5799 4.27088 59.6941C2.25072 62.1997 0.699219 65.5169 0.699219 68.6312C0.699219 80.2745 4.94926 90.4953 12.9935 98.1849C15.6642 100.729 19.1781 101.724 22.9295 100.951C24.3227 104.597 26.9827 107.103 29.7283 107.942C35.303 109.674 41.1688 110.245 46.7905 109.625C48.5946 117.024 55.8813 123.86 63.5532 127.914C65.8879 129.142 69.267 129.734 72.1795 129.509C74.9465 131.647 78.8456 132.662 81.4928 132.662C89.2695 132.662 96.1539 129.896 103.113 126.466C104.742 141.503 113.452 150.169 120.107 156.716C123.313 159.868 126.075 162.585 127.663 165.409L136.326 160.582C134.049 156.521 130.659 153.183 127.073 149.654C122.315 144.993 117.481 140.206 114.808 133.328C120.002 137.284 127.927 139.403 137.246 139.403C142.16 139.403 147.441 138.824 152.896 137.624C164.356 135.108 171.401 131.037 174.405 125.167C176.5 121.096 176.207 116.86 175.229 113.197C179.988 112.084 184.579 109.899 188.001 105.546C190.19 102.76 190.297 99.1354 189.203 95.8566C191.651 93.3895 193.299 90.004 193.299 86.8512ZM169.997 122.913C167.728 127.316 161.625 130.639 151.83 132.788C135.979 136.278 121.502 134.17 115.786 127.555C114.198 125.729 113.501 123.571 113.49 121.183C118.994 118.436 124.828 115.835 131.62 114.113C134.051 113.494 137.054 113.195 140.794 113.195C144.4 113.195 148.351 113.474 152.168 113.735C156.149 114.017 160.277 114.307 164.221 114.307C166.168 114.307 168.233 114.25 170.326 114.036C171.169 116.92 171.461 120.051 169.997 122.913ZM164.221 104.403C160.626 104.403 156.859 104.142 152.866 103.862C148.875 103.58 144.747 103.29 140.792 103.29C136.219 103.29 132.421 103.687 129.174 104.518C119.155 107.054 111.035 111.257 103.877 114.963C95.7987 119.152 88.8223 122.757 81.4928 122.757C80.4485 122.757 78.9376 122.168 78.3256 121.724L78.133 121.288C82.2996 113.803 91.0329 101.511 98.5764 99.1119C99.8775 98.6975 100.605 97.3027 100.19 96.0083C99.7727 94.7032 98.3667 93.9983 97.0741 94.3935C92.578 95.8246 88.0861 99.6907 84.1335 104.181C81.7196 103.55 76.6649 101.925 74.0434 98.9752C73.1318 97.952 71.5632 97.8623 70.5403 98.7723C69.5152 99.6822 69.4232 101.237 70.3327 102.265C73.1275 105.407 77.5595 107.301 80.7374 108.337C77.904 112.071 75.5115 115.871 73.8423 118.831L71.9569 119.526C71.7108 119.624 68.9224 119.536 68.1884 119.15C60.005 114.835 55.4361 108.318 56.4505 105.165L58.7382 98.0567C65.3679 90.523 74.1847 86.1336 78.8734 87.6117C79.6331 87.8616 80.4549 87.727 81.0947 87.2635C81.7367 86.7893 82.1155 86.0545 82.1155 85.2599C82.1155 84.1086 85.1714 80.6675 91.0243 78.1727C95.7965 76.1307 100.113 75.8509 102.056 77.3396C103.742 81.7313 107.25 89.3119 113.364 95.9463C113.85 96.4782 114.517 96.7495 115.187 96.7495C115.786 96.7495 116.388 96.5359 116.863 96.1001C117.871 95.171 117.937 93.6053 117.017 92.5992C112.938 88.1713 109.296 82.1157 106.843 75.8679C107.888 74.204 110.777 72.8797 114.265 72.6661C117.849 72.4909 121.958 73.3816 123.169 75.9833C123.749 77.2222 125.232 77.7626 126.463 77.1837C127.713 76.6049 128.245 75.1332 127.665 73.8857C125.913 70.1328 121.329 67.7917 115.758 67.6977C115.352 60.2217 115.527 54.7194 115.739 53.8287C116.225 52.5514 115.574 51.1202 114.284 50.646C113.004 50.1548 111.581 50.8212 111.098 52.0879C110.411 53.9355 110.428 61.3431 110.807 68.1698C107.56 68.8768 104.896 70.3165 103.239 72.2709C99.6956 70.8013 94.6474 71.2456 89.0705 73.6145C88.6404 73.7982 88.2274 74.0395 87.8015 74.2424C87.7566 74.2617 87.7095 74.251 87.671 74.2723C86.6052 74.7359 81.2552 71.314 72.5968 58.5087C71.8285 57.3873 70.292 57.0775 69.1535 57.8508C68.0172 58.6155 67.7197 60.1534 68.4837 61.2833C74.7432 70.5386 79.265 75.131 82.5157 77.3567C80.472 78.8946 78.7942 80.6163 77.889 82.4148C69.956 81.8146 59.042 88.575 52.1042 98.3899L50.3857 98.8748C44.8089 100.432 38.2605 100.169 32.9833 98.6249C32.6751 98.4027 31.5901 97.0571 31.9047 94.3892L32.2407 91.5355C34.0661 89.7263 36.3024 87.8894 38.8404 86.1314C41.2672 87.6779 42.5512 91.9242 42.8273 93.4707C43.0413 94.6711 44.0856 95.5127 45.2669 95.5127C45.4102 95.5127 45.5558 95.502 45.7013 95.4721C47.0473 95.2415 47.9483 93.9534 47.7129 92.6099C47.5823 91.8538 46.568 86.6718 43.2574 83.3461C48.295 80.4732 53.799 78.2773 58.6247 78.0274C59.9943 77.9484 61.0451 76.7886 60.9723 75.4258C60.8974 74.0523 59.7268 72.901 58.3637 73.0847C51.4557 73.4436 43.8373 76.8676 37.4409 81.0734C37.3189 81.131 37.2205 81.2186 37.1113 81.3041C35.6989 82.2418 34.3636 83.1987 33.1052 84.1962L33.1438 83.8587L24.2585 89.6708C22.0029 91.1403 20.843 91.307 20.4493 91.307C20.2695 91.307 20.1411 91.3069 19.8565 91.0357C15.6407 87.0029 10.6181 79.8473 10.6181 68.629C10.6374 67.7875 11.8871 65.6685 12.9443 64.953L15.1892 63.5603C15.5701 63.5688 15.8889 63.5902 16.2913 63.5902C17.9712 63.5902 19.8437 63.5133 21.7782 63.3958C21.8146 63.4065 21.8424 63.4257 21.8767 63.4257C28.363 64.0644 33.6424 68.3108 33.6424 72.8733C33.6424 74.2467 34.753 75.3489 36.1226 75.3489C37.4922 75.3489 38.6029 74.2467 38.6029 72.8733C38.6029 68.6461 36.0841 64.7501 32.1829 62.0523C37.4366 60.9587 42.4827 59.1516 46.0629 56.221C47.1244 55.3602 47.2806 53.8031 46.4139 52.7393C45.5451 51.6756 43.9807 51.5218 42.9236 52.3912C36.5785 57.5752 23.2313 58.765 14.7333 58.6005L14.0485 57.8081C13.7511 57.2377 13.6976 55.5439 14.0485 54.7899C18.335 45.4876 26.2401 36.4246 36.3045 29.2775C37.4387 28.4765 40.4198 27.7887 42.8144 27.7887C43.1761 27.7887 43.4992 27.8079 43.771 27.8464L44.7875 27.9916C45.7762 29.4719 46.9917 31.1828 48.4555 33.0198C46.2941 35.7069 39.4097 40.9102 34.9307 43.3666C33.728 44.0244 33.2871 45.5239 33.9484 46.7222C34.3978 47.5446 35.2474 48.0081 36.1269 48.0081C36.5292 48.0081 36.938 47.912 37.3168 47.709C39.8548 46.3164 47.7364 41.2007 51.6655 36.7621C52.0635 37.1871 52.4787 37.6122 52.9002 38.0479C57.3279 43.0291 56.0054 56.7999 55.1109 58.8611C54.5352 60.1085 55.0788 61.5781 56.3242 62.1484C56.6602 62.3043 57.0155 62.3812 57.36 62.3812C58.2973 62.3812 59.1961 61.8494 59.6156 60.9394C60.5572 58.9081 61.6186 51.3936 60.5486 44.4709C64.7002 47.2947 69.5537 49.6165 75.1669 50.7464C75.3317 50.7849 75.4965 50.7934 75.657 50.7934C76.8147 50.7934 77.8484 49.9818 78.0859 48.8112C78.3577 47.4677 77.4888 46.1604 76.1428 45.8892C67.9316 44.2359 61.441 39.6029 56.6131 34.7478C56.5789 34.7094 56.5532 34.6602 56.5168 34.6218C56.5019 34.6132 56.4805 34.6026 56.4676 34.5833C53.187 31.2661 50.7196 27.9019 48.9776 25.3088L49.2665 24.3028C49.6089 23.1023 51.8088 20.4345 53.6706 19.642C57.559 17.9887 61.67 16.5192 65.8344 15.3102C65.8344 15.3102 66.012 15.2717 66.4079 15.2717C68.0857 15.2717 70.0481 15.8228 70.3241 15.9489L71.3363 16.8567C71.3684 23.4142 70.3134 29.3031 68.4088 32.5157C67.7112 33.6862 68.0985 35.2028 69.2777 35.8991C69.6757 36.1405 70.1101 36.2473 70.5403 36.2473C71.3877 36.2473 72.2137 35.8115 72.676 35.0383C74.0456 32.7271 75.0471 29.4975 75.6527 25.736C78.897 25.5715 85.2784 25.1657 89.9115 24.3049C91.2576 24.0528 92.1436 22.7584 91.8975 21.4128C91.6449 20.0692 90.3417 19.1977 88.9999 19.4391C85.0174 20.1739 79.4769 20.5605 76.1856 20.7442C76.2541 19.5929 76.2904 18.4245 76.2926 17.2241L77.7692 15.009C78.73 13.5694 80.5619 11.9823 82.1968 11.7303C89.4193 10.6473 97.0549 10.0855 104.877 10.0855C105.448 10.1154 107.104 10.9656 108.519 12.3006L108.829 12.6017C107.862 18.2792 106.37 24.3711 104.44 30.0956C95.5483 29.5552 85.3983 34.2822 83.3845 40.2501C82.9437 41.5446 83.6413 42.9586 84.9403 43.3922C85.2014 43.4798 85.4732 43.5182 85.7343 43.5182C86.77 43.5182 87.7352 42.8689 88.084 41.8351C89.0812 38.8767 95.8201 35.0746 102.677 34.94C99.9374 41.865 96.6055 47.8116 92.9118 51.1202C91.8932 52.028 91.8076 53.5959 92.7235 54.6105C93.2136 55.1616 93.8919 55.4328 94.5703 55.4328C95.161 55.4328 95.7516 55.2299 96.2267 54.8048C101.444 50.1249 105.623 41.7774 108.686 32.9493C109.46 34.8439 110.391 36.6531 111.66 38.2103C114.945 42.243 119.478 44.5264 124.43 44.6418C124.451 44.6418 124.47 44.6418 124.488 44.6418C125.836 44.6418 126.94 43.5695 126.968 42.2238C126.998 40.8504 125.913 39.7204 124.545 39.6905C121.068 39.6136 117.86 37.9774 115.506 35.0874C112.482 31.3644 111.243 26.0735 112.191 20.9492C112.202 20.9193 112.191 20.8916 112.191 20.8617C112.801 18.2707 113.306 15.7844 113.713 13.454L114.633 12.8645C117.316 11.1236 118.47 11.0168 118.412 10.9976C123.161 11.6662 127.762 12.7107 132.074 14.1034C133.373 14.5284 134.584 15.7289 134.719 15.9788V18.386C130.253 23.2113 126.026 22.7563 121.271 22.1475L120.167 22.013C118.772 21.7994 117.569 22.8054 117.404 24.1682C117.239 25.5224 118.209 26.7592 119.566 26.9258L120.642 27.0603C122.279 27.2739 124.032 27.4961 125.855 27.4961C126.561 27.4961 127.289 27.4491 128.016 27.3701C128.027 29.7966 129.035 32.4666 131.079 34.923C133.839 38.2594 138.006 40.5898 142.348 40.5898C144.818 40.5898 147.338 39.8358 149.692 38.0757C150.799 37.264 151.019 35.7069 150.195 34.6132C149.382 33.5196 147.822 33.2868 146.726 34.1113C141.903 37.6997 136.874 34.1583 134.899 31.7595C133.259 29.7966 132.224 27.0796 133.608 25.6185C134.751 24.9906 135.913 24.1297 137.066 23.066L142.076 20.3191C143.131 19.7296 146.059 20.3576 147.163 21.0347C155.873 26.4024 163.316 33.7417 169.263 42.8625C170.493 44.7486 170.59 48.1533 169.903 50.0202L169.312 51.7909C156.844 58.1925 143.581 59.0341 133.105 53.8394C131.875 53.2199 130.383 53.7326 129.771 54.9522C129.161 56.1804 129.664 57.6607 130.895 58.2694C136.195 60.9095 142.104 62.2061 148.246 62.2061C149.718 62.2061 151.212 62.0138 152.703 61.8665C153.354 67.6507 156.337 73.0463 160.726 76.1029C163.138 77.7946 165.832 78.6469 168.593 78.6469C170.299 78.6469 172.032 78.3179 173.748 77.66C175.028 77.1666 175.666 75.7355 175.171 74.4582C174.679 73.1809 173.245 72.5635 171.966 73.0356C168.255 74.4774 165.347 73.2876 163.564 72.0488C160.318 69.7867 158.169 65.5318 157.713 61.0932C162.402 60.1256 167.101 58.4424 171.704 56.0544L173.352 56.5286C174.718 56.9152 177.78 59.7305 178.244 61.0163C183.012 74.2168 183.378 84.13 183.378 86.8192C183.301 87.6416 181.985 89.3226 181.208 89.5853L178.39 90.5209C167.217 87.6886 147.345 84.0232 128.684 87.5818C127.347 87.8424 126.465 89.1389 126.717 90.4825C126.978 91.826 128.277 92.706 129.621 92.4454C147.392 89.03 166.509 92.5885 177.245 95.329L178.929 97.3988C179.616 98.2489 179.937 99.2251 179.965 99.6993C177.224 102.955 172.342 104.403 164.221 104.403Z" fill="#F277C6"/>
</svg>
