<svg width="148" height="125" viewBox="0 0 148 125" fill="none" xmlns="http://www.w3.org/2000/svg">
<path d="M146.906 33.8441C147.303 35.1934 147.493 36.5306 147.493 37.8126C147.493 40.8592 146.479 43.741 144.738 46.067L144.567 46.2745C143.712 47.3735 142.692 48.3442 141.537 49.1501C143.034 50.9511 143.932 53.259 143.932 55.7622C143.932 58.5768 142.789 61.1471 140.945 63.0275L141.055 63.1496C142.832 65.0178 143.925 67.5393 143.925 70.2928C143.925 73.0402 142.74 75.3602 140.975 77.1247L140.597 77.4971L141.091 77.9977C142.795 79.7865 143.919 82.1371 143.919 84.8357C143.919 86.8321 143.345 88.7065 142.35 90.3C143.137 90.7517 143.864 91.3073 144.506 91.9484C146.338 93.7679 147.474 96.2953 147.474 99.0733C147.474 106.088 145.917 112.871 141.977 117.719C138.514 121.975 133.371 124.661 126.072 124.661H21.9006C14.6016 124.661 9.45875 121.975 5.9953 117.719C2.04962 112.866 0.498179 106.083 0.498179 99.0733C0.498179 96.2955 1.63426 93.7679 3.46049 91.9423L3.65594 91.7653C4.40111 91.0571 5.25007 90.4648 6.17856 90.0069C5.2929 88.4806 4.79205 86.7161 4.79205 84.8418C4.79205 82.0211 5.95257 79.5668 7.77891 77.7413L7.96825 77.5642L7.77891 77.3811C5.95258 75.5616 4.78595 73.1195 4.78595 70.305C4.78595 67.4905 5.92814 64.9202 7.77281 63.0398L7.66287 62.9177C5.88548 61.0495 4.79219 58.5279 4.79219 55.7745C4.79219 53.4178 5.59233 51.2383 6.92999 49.486C5.49462 48.5763 4.24867 47.4164 3.24685 46.0792C1.50605 43.747 0.492188 40.8714 0.492188 37.8249C0.492188 36.5367 0.681528 35.1996 1.07855 33.8503C5.04268 20.4185 18.7789 11.1326 36.4011 5.93735C47.7986 2.57948 60.8876 0.900391 73.9643 0.900391C87.0415 0.906496 100.136 2.59152 111.534 5.94954C129.173 11.1512 142.929 20.4374 146.886 33.8516L146.906 33.8441ZM124.026 31.866C124.832 30.3519 126.725 29.7781 128.24 30.5839C129.755 31.3898 130.329 33.2825 129.523 34.7966L128.051 37.5562C127.244 39.0703 125.351 39.6441 123.836 38.8383C122.321 38.0324 121.747 36.1397 122.554 34.6256L124.026 31.866ZM19.9577 31.866C20.764 30.3519 22.6575 29.7781 24.1722 30.5839C25.6869 31.3898 26.261 33.2825 25.4548 34.7966L23.9828 37.5562C23.1766 39.0703 21.283 39.6441 19.7684 38.8383C18.2537 38.0324 17.6795 36.1397 18.4857 34.6256L19.9577 31.866ZM54.6454 31.866C55.4517 30.3519 57.3452 29.7781 58.8599 30.5839C60.3746 31.3898 60.9487 33.2825 60.1426 34.7966L58.6705 37.5562C57.8643 39.0703 55.9708 39.6441 54.4561 38.8383C52.9414 38.0324 52.3672 36.1397 53.1734 34.6256L54.6454 31.866ZM89.3394 31.866C90.1456 30.3519 92.0392 29.7781 93.5538 30.5839C95.0685 31.3898 95.6427 33.2825 94.8365 34.7966L93.3645 37.5562C92.5583 39.0703 90.6647 39.6441 89.15 38.8383C87.6353 38.0324 87.0612 36.1397 87.8674 34.6256L89.3394 31.866ZM70.521 17.2744C69.7148 15.7603 70.2889 13.8676 71.8037 13.0617C73.3185 12.2559 75.2119 12.8297 76.0182 14.3438L77.4902 17.1034C78.2964 18.6175 77.7223 20.5102 76.2075 21.3161C74.6927 22.1219 72.7992 21.5481 71.993 20.0339L70.521 17.2744ZM40.0614 20.0339C39.2551 18.5198 39.8293 16.6272 41.3441 15.8213C42.8588 15.0154 44.7523 15.5893 45.5585 17.1034L47.0305 19.863C47.8368 21.3771 47.2626 23.2698 45.7479 24.0756C44.2331 24.8815 42.3396 24.3076 41.5334 22.7935L40.0614 20.0339ZM100.976 20.0339C100.17 18.5198 100.744 16.6272 102.259 15.8213C103.773 15.0154 105.667 15.5893 106.473 17.1034L107.945 19.863C108.751 21.3771 108.177 23.2698 106.662 24.0756C105.148 24.8815 103.254 24.3076 102.448 22.7935L100.976 20.0339ZM94.6359 66.1601L103.535 79.5003L119.605 66.1601H94.6359ZM129.36 66.1601L116.441 76.875C116.612 76.8872 116.783 76.8933 116.954 76.8933C118.475 76.8933 119.978 76.4476 121.169 75.5563C122.543 74.5245 124.498 74.8053 125.53 76.179C126.562 77.5527 126.281 79.5064 124.907 80.5383C122.586 82.2783 119.758 83.1453 116.954 83.1453C114.811 83.1453 112.654 82.6385 110.718 81.6189L104.598 86.6986C103.169 87.6571 101.233 87.2725 100.274 85.8438L97.7938 82.1257C96.1446 82.8034 94.3611 83.1453 92.5898 83.1392C89.7801 83.127 86.9643 82.2661 84.6739 80.5567C83.4707 79.6592 81.9681 79.2074 80.4595 79.2074C78.9509 79.2074 77.4482 79.6592 76.245 80.5567C73.93 82.2907 71.102 83.1515 68.2925 83.1515C65.5805 83.1515 62.8442 82.3334 60.5659 80.7033L60.3461 80.5568C59.1428 79.6593 57.6402 79.2075 56.1255 79.2075C54.6168 79.2075 53.1142 79.6593 51.911 80.5568C49.5961 82.2907 46.7681 83.1516 43.9585 83.1516C41.2466 83.1516 38.5102 82.3335 36.232 80.7034L36.0121 80.5569C34.8088 79.6594 33.3062 79.2076 31.7976 79.2076C30.289 79.2076 28.7864 79.6594 27.5832 80.5569C26.2028 81.5887 24.2421 81.3017 23.2098 79.9219C22.1775 78.5421 22.4647 76.5823 23.8451 75.5504C26.16 73.8226 28.988 72.9556 31.7976 72.9556C34.6072 72.9556 37.4352 73.8226 39.75 75.5504L39.9027 75.6726C41.0694 76.4907 42.5109 76.8997 43.9585 76.8997C45.4672 76.8997 46.9698 76.4479 48.173 75.5505C50.4879 73.8226 53.3159 72.9556 56.1255 72.9556C58.935 72.9556 61.7632 73.8226 64.0841 75.5505L64.2368 75.6726C65.4034 76.4907 66.8449 76.8997 68.2925 76.8997C69.8012 76.8997 71.3038 76.448 72.507 75.5505C74.822 73.8226 77.6499 72.9556 80.4595 72.9556C83.269 72.9556 86.0972 73.8226 88.412 75.5505C89.6214 76.454 91.1057 76.9119 92.5899 76.9119C93.1335 76.9119 93.671 76.857 94.2023 76.741L87.1476 66.1666H15.1594C14.0355 66.1788 13.0216 66.6367 12.2887 67.3694C11.5313 68.1203 11.0732 69.1582 11.0732 70.306C11.0732 71.3439 11.5191 72.2658 12.2154 72.9618C13.0094 73.7677 14.1088 74.2928 15.2694 74.4454C16.8513 74.4759 18.1951 75.7031 18.3233 77.3148C18.4638 79.0366 17.1811 80.5445 15.4648 80.6849C14.2738 80.7826 13.1559 81.271 12.3375 82.0342L12.2154 82.1624C11.513 82.8645 11.0671 83.7925 11.0671 84.8425C11.0671 85.9842 11.5313 87.0221 12.2703 87.767C13.0155 88.5119 14.0294 88.9698 15.1534 88.982H133.593C134.716 88.9698 135.73 88.5119 136.463 87.7792C137.221 87.0283 137.679 85.9904 137.679 84.8426C137.679 83.8962 137.263 83.0292 136.634 82.3515L136.512 82.2355C135.651 81.3747 134.503 80.813 133.373 80.6909C131.937 80.6176 130.697 79.5431 130.459 78.0656C130.19 76.3683 131.351 74.7686 133.049 74.5001C134.295 74.2986 135.62 73.6759 136.573 72.7235C137.239 72.0702 137.679 71.2399 137.679 70.3058C137.679 69.219 137.263 68.23 136.585 67.5034L136.463 67.3874C135.724 66.6486 134.71 66.1846 133.592 66.1724H129.354L129.36 66.1601ZM133.592 51.6233H15.1531C14.0293 51.6355 13.0153 52.0934 12.2824 52.826C11.5251 53.577 11.067 54.6149 11.067 55.7627C11.067 56.8494 11.4823 57.8385 12.1603 58.5651L12.2825 58.6811C13.0215 59.4198 14.0354 59.8838 15.1531 59.896H133.592C134.716 59.8838 135.73 59.4259 136.463 58.6933C137.22 57.9423 137.678 56.9045 137.678 55.7567C137.678 54.615 137.214 53.5771 136.475 52.8322C135.73 52.0873 134.716 51.6294 133.592 51.6172L133.592 51.6233ZM137.398 95.2268H10.6086C9.60687 95.2268 8.69061 95.6115 8.01262 96.2342L7.89657 96.3563C7.20027 97.0523 6.76659 98.0109 6.76659 99.0671C6.76659 104.788 7.92099 110.185 10.8467 113.781C13.1495 116.614 16.7165 118.403 21.9143 118.403H126.085C131.283 118.403 134.85 116.614 137.153 113.781C140.079 110.179 141.233 104.788 141.233 99.0671C141.233 98.0109 140.799 97.0462 140.103 96.3563C139.413 95.6542 138.454 95.2268 137.391 95.2268L137.398 95.2268ZM141.239 37.813C141.239 37.0742 141.136 36.3294 140.922 35.5967C137.636 24.4728 125.499 16.5535 109.796 11.9256C98.9484 8.72638 86.4698 7.12075 73.9857 7.12075C61.5071 7.12075 49.0222 8.71419 38.1815 11.9134C22.503 16.5351 10.3785 24.4537 7.09176 35.5954C6.87798 36.322 6.77416 37.0729 6.77416 37.8117C6.77416 39.4785 7.32999 41.0597 8.28282 42.3296C9.23567 43.6056 10.5917 44.5886 12.1858 45.0587C12.8638 45.2602 13.609 45.364 14.403 45.364H133.734C134.491 45.3518 135.193 45.2419 135.841 45.0587C137.374 44.6069 138.687 43.685 139.634 42.4884L139.744 42.3297C140.697 41.0537 141.253 39.4785 141.253 37.8118L141.239 37.813Z" fill="#F277C6"/>
</svg>
