<svg width="145" height="152" viewBox="0 0 145 152" fill="none" xmlns="http://www.w3.org/2000/svg">
<path d="M93.9346 81.8813L95.2777 84.8905L84.1056 89.8642L82.7625 86.855L93.9346 81.8813ZM143.902 42.4364L136.323 59.0433C134.5 63.0397 130.477 65.6205 126.08 65.6205C124.466 65.6205 122.899 65.2793 121.42 64.607C121.038 64.4323 120.671 64.2345 120.315 64.0219C117.008 67.7794 113.38 71.2352 109.489 74.3269C110.644 77.0263 110.709 80.0125 109.654 82.7613C108.578 85.5629 106.473 87.7795 103.729 89.0006L87.0376 96.4298C85.5856 97.0791 84.0462 97.4071 82.4638 97.4071C78.6144 97.4071 75.0751 95.4344 73.0225 92.2736L63.1489 95.8151C63.4591 97.9625 63.1423 100.156 62.2002 102.167C60.9264 104.884 58.6659 106.944 55.8411 107.967L53.1351 108.946L57.0538 112.86C61.4098 109.8 67.4785 110.173 71.4105 114.035L84.2739 126.677C88.2966 130.631 88.6959 136.88 85.4619 141.302L93.1261 148.887L90.8029 151.227L83.1469 143.65C81.2065 145.117 78.8619 145.921 76.3819 145.921C73.4103 145.921 70.6086 144.776 68.4933 142.694L55.6299 130.054C51.5164 126.01 51.1848 119.563 54.658 115.128L49.7113 110.184L38.6613 114.182C37.4221 114.629 36.1351 114.854 34.8316 114.854C30.8683 114.854 27.2565 112.737 25.2418 109.439L19.7292 111.422L13.0252 127.668L9.97272 126.412L15.5382 112.928L1.98177 117.804L0.863069 114.704L14.8567 109.67L0.542969 103.777L1.80027 100.728L19.4817 108.007L23.9383 106.404C22.5144 100.868 25.5157 95.034 31.0036 93.0465L48.1851 86.8319C53.7027 84.8378 59.7747 87.4367 62.2068 92.6493L71.6596 89.2577C70.9848 86.9242 71.0739 84.4489 71.9599 82.1417C73.0341 79.3384 75.1411 77.1235 77.8851 75.9024L93.9511 68.7517V59.0829C88.3923 58.4072 84.0676 53.6708 84.0676 47.9374V29.8819C84.0676 24.1486 88.3923 19.4122 93.9511 18.7365V16.5117L80.3271 2.90254L82.6602 0.572266L93.9511 11.8495V1.77201H97.2511V18.8222C102.534 19.7418 106.567 24.3447 106.567 29.8803V47.9358C106.567 53.4714 102.534 58.0743 97.2511 58.9939V67.6689C99.2245 67.3262 101.259 67.5074 103.18 68.2457C104.983 68.9362 106.539 70.0552 107.75 71.4923C111.337 68.6116 114.693 65.4079 117.759 61.9339C116.812 60.8907 116.058 59.6728 115.55 58.3132C114.497 55.5018 114.606 52.4497 115.852 49.7189L123.432 33.1104C125.659 28.2339 130.967 25.7158 136.015 26.7887L140.565 8.37884L143.768 9.16823L139.126 27.9554C144.2 30.7702 146.352 37.0705 143.902 42.4364ZM57.8524 116.474C54.7785 119.596 54.8197 124.634 57.9448 127.704L70.8082 140.344C72.3031 141.816 74.2831 142.625 76.3836 142.625C78.5319 142.625 80.5449 141.783 82.053 140.253C85.1269 137.134 85.0857 132.098 81.9606 129.026L69.0972 116.384C67.5495 114.864 65.5365 114.106 63.5202 114.106C61.4626 114.106 59.4051 114.899 57.8524 116.474ZM59.4859 94.6978C58.3161 91.471 55.2553 89.4604 52.0015 89.4604C51.1056 89.4604 50.1931 89.6137 49.3038 89.9351L32.1223 96.1497C28.0006 97.6411 25.8606 102.204 27.3522 106.319C28.4874 109.452 31.4937 111.558 34.8283 111.558C35.749 111.558 36.6582 111.397 37.536 111.082L54.7158 104.868C56.7139 104.146 58.3095 102.691 59.2104 100.769C60.1113 98.8475 60.2103 96.6919 59.4859 94.6978ZM95.3157 55.8775C99.6997 55.8775 103.265 52.3162 103.265 47.9374V29.8819C103.265 25.5032 99.6997 21.9419 95.3157 21.9419C90.9333 21.9419 87.3676 25.5032 87.3676 29.8819V47.9374C87.3676 52.3162 90.9333 55.8775 95.3157 55.8775ZM106.414 75.5068C105.549 73.5688 103.98 72.0839 101.997 71.3242C101.073 70.9699 100.109 70.7935 99.147 70.7935C98.0481 70.7935 96.9492 71.0259 95.9146 71.4857L79.2232 78.9165C77.2828 79.7801 75.7962 81.3473 75.0355 83.3266C74.2749 85.3075 74.3326 87.4647 75.1972 89.4028C76.4743 92.2637 79.3272 94.1127 82.4638 94.1127C83.5809 94.1127 84.6666 93.8804 85.6929 93.4222L102.386 85.993C106.39 84.2099 108.197 79.5065 106.414 75.5068ZM136.963 30.5494C135.897 30.0632 134.78 29.8342 133.678 29.8342C130.657 29.8342 127.765 31.5613 126.431 34.4799L118.851 51.0884C117.97 53.0182 117.894 55.1738 118.637 57.1613C119.381 59.1488 120.854 60.7276 122.788 61.6059C123.834 62.0822 124.941 62.3245 126.078 62.3245C129.187 62.3245 132.028 60.5001 133.318 57.6755L140.899 41.0686C142.719 37.0837 140.951 32.3655 136.963 30.5494ZM135.348 34.0942L133.978 37.0936C134.355 37.265 134.52 37.7083 134.35 38.084L129.454 48.8076L132.457 50.1754L137.353 39.4502C138.277 37.4215 137.377 35.0188 135.348 34.0942Z" fill="#F277C6"/>
</svg>
