<svg width="175" height="126" viewBox="0 0 175 126" fill="none" xmlns="http://www.w3.org/2000/svg">
<path fill-rule="evenodd" clip-rule="evenodd" d="M20.6503 84.9768C20.6503 85.0523 20.6579 85.1732 20.6655 85.3393C20.6806 85.4375 20.6882 85.5357 20.6882 85.6338C20.6882 86.9101 19.6519 87.9523 18.3661 87.9523C14.5842 87.9523 11.1804 89.3117 8.75241 91.6301C6.43032 93.8503 5.0007 96.9693 5.0007 100.64C5.0007 104.129 6.43028 107.301 8.7373 109.604C11.0443 111.907 14.2211 113.335 17.7156 113.335H76.1628C79.6574 113.335 82.8342 111.907 85.1412 109.604C87.4482 107.301 88.8778 104.129 88.8778 100.64C88.8778 97.1507 87.4482 93.9789 85.1412 91.6755C82.8342 89.3721 79.6574 87.9447 76.1628 87.9447H72.0632V87.9372C70.8832 87.9372 69.8772 87.0385 69.7637 85.8453C69.5444 83.5797 68.4703 81.5556 66.8667 80.0981C65.2859 78.6632 63.1756 77.7872 60.8609 77.7872C60.3239 77.7872 59.8095 77.8325 59.3179 77.9156C58.8413 77.9987 58.3875 78.1119 57.9715 78.2554C56.8142 78.7539 55.4678 78.2328 54.9459 77.0773C53.5163 73.9205 51.2018 71.2471 48.3123 69.3817C45.5137 67.5767 42.1779 66.5269 38.5852 66.5269C33.6308 66.5269 29.1454 68.5283 25.9005 71.7755C22.6555 75.0154 20.6436 79.4938 20.6436 84.4404V84.969L20.6503 84.9768ZM93.475 99.6429C93.2254 95.2703 91.3344 91.3205 88.4072 88.4054C85.2681 85.2713 80.9264 83.3153 76.1537 83.3153H73.9904C73.3172 80.7173 71.9028 78.4217 69.974 76.677C67.5611 74.4869 64.3616 73.1578 60.8519 73.1578C60.0729 73.1578 59.2938 73.2257 58.5299 73.3617C58.4391 73.3768 58.3483 73.3919 58.2651 73.407C56.4574 70.205 53.8932 67.4862 50.807 65.5C48.2049 63.8235 45.2475 62.6681 42.0707 62.177C43.3717 59.798 45.2022 57.7514 47.3957 56.1806C50.3305 54.0887 53.931 52.85 57.8263 52.85C61.4117 52.85 64.7548 53.8998 67.5535 55.7048C70.4429 57.5702 72.7575 60.2361 74.1871 63.4004C74.709 64.5483 76.0554 65.0695 77.2126 64.5786C77.6286 64.4351 78.0749 64.3218 78.559 64.2387C79.0507 64.1557 79.565 64.1103 80.1021 64.1103C82.4166 64.1103 84.527 64.9864 86.1079 66.4213C87.7114 67.8788 88.793 69.9028 89.0049 72.1685C89.1183 73.3617 90.1243 74.2603 91.3043 74.2603V74.2679H95.404C98.8985 74.2679 102.075 75.6952 104.382 77.9986C106.689 80.302 108.119 83.4738 108.119 86.9629C108.119 90.452 106.689 93.6238 104.382 95.9272C102.075 98.2306 98.8985 99.658 95.404 99.658H93.4903L93.475 99.6429ZM37.0339 61.9583C38.6677 58.1143 41.3454 54.8141 44.7112 52.4125C48.41 49.7693 52.9332 48.2135 57.8194 48.2135C62.3199 48.2135 66.5179 49.5351 70.0427 51.8083C73.1289 53.7945 75.693 56.5133 77.5008 59.7153C77.5916 59.7002 77.6823 59.6851 77.7655 59.67C78.5295 59.5416 79.3086 59.4661 80.0876 59.4661C83.5973 59.4661 86.7967 60.8028 89.2096 62.9853C91.1309 64.7298 92.553 67.0256 93.226 69.6236H95.3894C100.162 69.6236 104.496 71.572 107.643 74.7137C110.789 77.8478 112.741 82.1827 112.741 86.948C112.741 91.7133 110.789 96.0407 107.643 99.1823C104.504 102.316 100.162 104.272 95.3894 104.272H93.1126C92.4016 107.588 90.7299 110.556 88.4078 112.874C85.2688 116.008 80.927 117.964 76.1543 117.964H17.7148C12.9421 117.964 8.60793 116.016 5.46134 112.874C2.3223 109.74 0.363281 105.405 0.363281 100.64C0.363281 95.6405 2.34496 91.3659 5.55215 88.2998C8.31302 85.6566 11.9739 83.9347 16.0358 83.4514C16.293 77.6212 18.7587 72.3724 22.6239 68.5058C26.3681 64.7675 31.4208 62.3357 37.0407 61.9581L37.0339 61.9583ZM137.764 45.2381C138.081 44.2941 138.747 43.486 139.617 42.897C140.517 42.2929 141.629 41.9379 142.801 41.9379C144.268 41.9455 145.569 42.5194 146.507 43.4559C147.453 44.3999 148.02 45.7065 148.02 47.164C148.02 48.6065 147.438 49.9055 146.492 50.8494C145.547 51.7934 144.246 52.3749 142.801 52.3749H93.4162C92.1379 52.3749 91.0941 53.4095 91.0941 54.6933C91.0941 55.9696 92.1304 57.0118 93.4162 57.0118H142.801C145.524 57.0118 147.99 55.9092 149.775 54.1269C151.56 52.3445 152.665 49.8826 152.665 47.1638C152.665 44.4449 151.583 41.9679 149.79 40.1856C148.028 38.426 145.57 37.3308 142.801 37.3308C140.676 37.3233 138.664 37.9652 137.03 39.0678C135.343 40.2006 134.035 41.8319 133.377 43.7577C132.968 44.966 133.611 46.2801 134.829 46.6879C136.039 47.0957 137.355 46.454 137.764 45.2381ZM159.737 62.2982C159.329 63.5066 158.013 64.156 156.803 63.7482C155.592 63.3404 154.942 62.0264 155.35 60.8181C156.008 58.8923 157.317 57.2611 159.004 56.1282C160.638 55.0256 162.649 54.3837 164.775 54.3912C167.543 54.3988 170.002 55.4863 171.764 57.246C173.557 59.0358 174.638 61.4977 174.638 64.2241C174.638 66.9505 173.534 69.4049 171.749 71.1872C169.964 72.9695 167.498 74.0722 164.775 74.0722H115.39C114.112 74.0722 113.068 73.0375 113.068 71.7537C113.068 70.4774 114.104 69.4352 115.39 69.4352H164.775C166.22 69.4352 167.521 68.8537 168.466 67.9097C169.412 66.9657 169.994 65.6667 169.994 64.2244C169.994 62.7668 169.419 61.4603 168.481 60.5163C167.543 59.5798 166.242 58.9983 164.775 58.9983C163.602 58.9983 162.498 59.3532 161.59 59.9574C160.721 60.5465 160.055 61.3543 159.737 62.2982ZM147.431 88.0058C147.022 89.2141 145.706 89.8636 144.496 89.4558C143.286 89.0479 142.635 87.7339 143.044 86.5256C143.702 84.5998 145.01 82.9687 146.697 81.8357C148.331 80.7331 150.343 80.0912 152.468 80.0987C155.237 80.1063 157.695 81.1938 159.458 82.9535C161.25 84.7433 162.332 87.2053 162.332 89.9317C162.332 92.6581 161.228 95.1124 159.442 96.8948C157.657 98.6771 155.192 99.7797 152.468 99.7797H117.773C116.494 99.7797 115.451 98.745 115.451 97.4612C115.451 96.1849 116.487 95.1428 117.773 95.1428H152.468C153.913 95.1428 155.214 94.5613 156.16 93.6173C157.105 92.6732 157.687 91.3742 157.687 89.9319C157.687 88.4744 157.113 87.1679 156.175 86.2238C155.237 85.2873 153.936 84.7058 152.468 84.7058C151.296 84.7058 150.192 85.0608 149.284 85.6649C148.414 86.254 147.749 87.0618 147.431 88.0058ZM131.274 113.721C130.866 114.929 129.55 115.579 128.339 115.171C127.129 114.763 126.479 113.449 126.887 112.241C127.545 110.315 128.854 108.684 130.541 107.551C132.174 106.448 134.186 105.806 136.312 105.814C139.08 105.822 141.538 106.909 143.301 108.669C145.094 110.459 146.175 112.921 146.175 115.647C146.175 118.373 145.071 120.828 143.286 122.61C141.501 124.392 139.035 125.495 136.312 125.495H86.9268C85.6485 125.495 84.6047 124.46 84.6047 123.176C84.6047 121.9 85.641 120.858 86.9268 120.858H136.312C137.757 120.858 139.058 120.277 140.003 119.333C140.948 118.389 141.531 117.089 141.531 115.647C141.531 114.19 140.956 112.883 140.018 111.939C139.08 111.003 137.779 110.421 136.312 110.421C135.139 110.421 134.035 110.776 133.127 111.38C132.257 111.969 131.592 112.777 131.274 113.721ZM91.1024 19.6218C91.1024 18.3455 92.1387 17.3034 93.4245 17.3034C94.7028 17.3034 95.7466 18.338 95.7466 19.6218V25.5653C95.7466 26.8416 94.7103 27.8837 93.4245 27.8837C92.1462 27.8837 91.1024 26.8491 91.1024 25.5653V19.6218ZM87.986 11.8734C89.2643 11.8734 90.3081 12.9081 90.3081 14.1919C90.3081 15.4682 89.2718 16.5103 87.986 16.5103H82.0332C80.7549 16.5103 79.7112 15.4757 79.7112 14.1919C79.7112 12.9156 80.7474 11.8734 82.0332 11.8734H87.986ZM91.1024 2.81845C91.1024 1.54214 92.1387 0.5 93.4245 0.5C94.7028 0.5 95.7466 1.53464 95.7466 2.81845V8.76191C95.7466 10.0382 94.7103 11.0804 93.4245 11.0804C92.1462 11.0804 91.1024 10.0457 91.1024 8.76191V2.81845ZM104.816 11.8734C106.094 11.8734 107.138 12.9081 107.138 14.1919C107.138 15.4682 106.102 16.5103 104.816 16.5103H98.863C97.5846 16.5103 96.5409 15.4757 96.5409 14.1919C96.5409 12.9156 97.5771 11.8734 98.863 11.8734H104.816ZM24.9407 42.3679V48.3113C24.9407 49.5876 25.977 50.6298 27.2628 50.6298C28.5411 50.6298 29.5849 49.5951 29.5849 48.3113V42.3679C29.5849 41.0916 28.5486 40.0494 27.2628 40.0494C25.9845 40.0494 24.9407 41.0841 24.9407 42.3679ZM21.8243 34.6195C23.1027 34.6195 24.1464 35.6541 24.1464 36.9379C24.1464 38.2142 23.1102 39.2564 21.8243 39.2564H15.8716C14.5933 39.2564 13.5495 38.2217 13.5495 36.9379C13.5495 35.6616 14.5858 34.6195 15.8716 34.6195H21.8243ZM24.9407 25.5645C24.9407 24.2882 25.977 23.2461 27.2628 23.2461C28.5411 23.2461 29.5849 24.2807 29.5849 25.5645V31.508C29.5849 32.7843 28.5486 33.8264 27.2628 33.8264C25.9845 33.8264 24.9407 32.7918 24.9407 31.508V25.5645ZM38.6541 34.6195C39.9324 34.6195 40.9761 35.6541 40.9761 36.9379C40.9761 38.2142 39.9399 39.2564 38.6541 39.2564H32.7013C31.423 39.2564 30.3792 38.2217 30.3792 36.9379C30.3792 35.6616 31.4155 34.6195 32.7013 34.6195H38.6541Z" fill="#F277C6"/>
</svg>
