<svg width="152" height="132" viewBox="0 0 152 132" fill="none" xmlns="http://www.w3.org/2000/svg">
<path fill-rule="evenodd" clip-rule="evenodd" d="M17.3969 81.9835C22.4859 79.214 29.5144 80.9165 36.8013 82.6766C51.0376 86.124 66.0856 89.7659 78.1301 69.5985C86.3381 55.8577 81.1761 48.2486 74.476 38.3868C70.0163 31.8174 64.7176 24.0137 63.6931 11.7078H74.5854C75.4701 17.0004 78.2 25.8043 86.8305 29.5587L91.652 31.6563L92.7646 26.5217C94.7315 17.4382 99.1273 10.4949 109.4 9.27581C126.633 7.22381 141.14 22.7552 143.08 39.0435C145.186 56.9886 135.799 76.6939 124.809 90.3222C113.345 104.537 95.9414 117.43 77.0174 117.947C62.0697 118.366 52.5272 111.815 40.7989 103.756C37.2481 101.324 32.6608 97.1926 28.3744 97.1774C23.7718 97.1592 20.3305 100.406 19.8107 110.961C19.6465 114.35 19.7317 117.855 19.7225 121.242L9.04302 119.327L8.96094 117.661C8.34686 105.449 7.4379 87.4008 17.3969 81.9835ZM82.532 3.07421H54.8741V7.39405C54.8741 24.8376 61.7019 34.8939 67.3533 43.2144C72.3115 50.5134 76.1358 56.1496 70.7398 65.1814C61.9451 79.9072 50.0617 77.0344 38.8259 74.3136C29.9005 72.1521 21.2912 70.0697 13.2808 74.4291C-1.43282 82.4364 -0.365776 103.689 0.357744 118.068L0.679984 126.565L28.3744 131.532C28.3379 124.48 28.3531 117.448 28.3531 110.392C28.3531 106.921 28.3257 105.784 28.3379 105.784C29.0037 105.787 34.7432 110.061 35.9409 110.879C48.9278 119.801 59.4888 127.055 77.2545 126.556C98.8173 125.966 118.404 112 131.525 95.7304C143.955 80.3145 154.027 58.2745 151.649 38.0403C149.144 16.9913 130.342 -1.90531 108.387 0.712129C98.2184 1.91901 89.6273 8.61613 86.1009 18.2377C82.8299 13.7294 82.8056 8.33341 82.532 3.07421Z" fill="#F277C6"/>
</svg>
