<svg width="178" height="282" viewBox="0 0 178 282" fill="none" xmlns="http://www.w3.org/2000/svg">
<path d="M85.6748 30.1634C76.4541 40.3242 64.431 58.3322 55.8149 74.9068C35.3141 114.49 20.5973 160.944 17.2232 196.907C17.2228 197.121 15.3985 196.555 13.2049 195.56C7.75788 193.093 4.47874 192.176 2.82468 192.851C0.775686 193.651 0.372205 198.264 1.74124 204.767C5.40888 221.882 6.65458 228.385 10.2418 248.875C14.8059 274.5 16.3249 280.021 19.0363 281.105C21.4521 282.016 23.5541 279.25 29.2992 267.702C35.837 254.406 43.3606 241.544 52.3905 227.92C60.7028 215.446 61.1978 214.594 61.2039 211.389C61.3089 208.099 59.5106 206.764 52.7306 204.803C44.7915 202.663 42.3026 201.281 41.5429 198.628C40.8568 196.23 43.0744 184.619 47.6734 166.056C54.4095 139.257 66.435 107.061 76.9311 87.8052C82.1048 78.3476 91.8759 64.0874 99.9857 54.3475C112.596 39.0351 128.555 26.8188 139.315 23.9744C150.57 21.1327 163.018 25.691 169.365 34.958C170.57 36.8025 171.896 40.1434 173.489 45.708C175.646 53.028 175.965 53.7135 176.805 52.9918C179.029 51.0815 175.095 31.5293 170.672 22.5297C158.803 -1.5123 137.35 -6.33577 111.173 9.11272C105.74 12.2868 90.2976 25.0189 85.6748 30.1634ZM117.061 12.907C135.802 3.52709 153.115 5.72007 163.081 18.8111C167.313 24.3481 167.237 25.3733 162.827 22.4421C152.923 15.8044 142.662 15.4466 130.243 21.3157C122.761 24.8626 105.786 39.7654 97.1072 50.314C88.8487 60.3949 78.5822 75.7207 73.6801 85.0516C65.0145 101.669 55.3468 126.399 48.8907 148.585C44.9427 162.109 38.3756 190.789 38.12 195.488C37.6847 203.862 40.6633 207.169 50.8466 209.621C56.7396 211.065 58.0457 211.756 57.7966 213.037C57.6973 213.335 54.7282 218.019 51.1657 223.426C42.235 236.751 35.1071 249.06 28.6192 262.1C25.4989 268.407 22.3309 273.902 21.2188 274.964L19.2911 276.833L17.9666 272.851C17.2307 270.71 15.1538 260.228 13.2992 249.662C11.4445 239.096 8.58756 223.738 6.9506 215.438C3.72486 199.437 3.53004 198.111 4.17247 197.559C4.37014 197.389 7.62477 198.22 11.298 199.438C15.0207 200.613 18.473 201.273 19.0166 200.806C19.6096 200.297 21.1272 193.554 22.972 183.436C26.1133 166.018 28.3016 156.886 32.8434 142.424C46.9407 97.4627 65.9561 60.6486 88.354 35.2214C89.2439 34.2435 94.7048 29.4458 100.437 24.735C108.294 18.1987 112.394 15.3162 117.061 12.907Z" fill="#F277C6"/>
</svg>
