<svg width="47" height="103" viewBox="0 0 47 103" fill="none" xmlns="http://www.w3.org/2000/svg">
<path d="M15.0932 14.7504C12.8984 18.8266 10.423 25.7002 8.94691 31.8277C5.44674 46.4552 4.39858 62.8633 6.21336 74.9149C6.23058 74.9849 5.58716 74.9476 4.78796 74.7997C2.80383 74.434 1.65556 74.4002 1.16862 74.7553C0.562561 75.1838 0.804943 76.7273 1.78129 78.7459C4.37191 84.0531 5.30781 86.0816 8.14614 92.5008C11.7212 100.522 12.6669 102.207 13.6429 102.342C14.508 102.444 14.9719 101.368 15.9158 97.1192C16.9774 92.2341 18.397 87.4108 20.2482 82.2161C21.9577 77.4563 22.0506 77.1371 21.7924 76.087C21.5597 75.001 20.8624 74.7098 18.4827 74.6178C15.709 74.5617 14.7817 74.3112 14.3175 73.5038C13.8982 72.7745 13.6817 68.7919 13.6808 62.3392C13.7111 53.0159 15.0354 41.4957 16.9094 34.3374C17.836 30.8201 19.8782 25.3567 21.7433 21.5086C24.6298 15.4702 28.8644 10.1738 32.1575 8.36861C35.6125 6.52431 40.0594 7.00643 42.8903 9.52601C43.4347 10.0322 44.1401 11.0187 45.1135 12.7117C46.4142 14.9338 46.5744 15.1324 46.791 14.8279C47.3641 14.0217 44.4883 7.93796 42.3091 5.34978C36.4702 -1.56015 29.0532 -1.39814 21.7344 5.7864C20.2128 7.26697 16.1894 12.6903 15.0932 14.7504ZM23.9709 6.55093C29.3469 1.95755 35.1948 1.27014 39.5213 4.74825C41.3569 6.21794 41.4153 6.55985 39.733 5.95796C35.9507 4.58823 32.5611 5.30414 28.9704 8.23451C26.8083 10.0035 22.4589 16.2622 20.4731 20.4214C18.587 24.3933 16.4691 30.2458 15.6212 33.6996C14.1324 39.845 12.9741 48.729 12.661 56.5186C12.466 61.2682 12.6438 71.1939 12.9417 72.7536C13.4789 75.5312 14.7229 76.3726 18.2569 76.3486C20.304 76.3431 20.7879 76.4634 20.8102 76.903C20.802 77.0089 20.2099 78.7838 19.4822 80.8438C17.6393 85.9326 16.3043 90.5426 15.2382 95.3397C14.7284 97.6585 14.137 99.7151 13.859 100.153L13.3795 100.922L12.6225 99.7254C12.2076 99.084 10.6765 95.8199 9.21127 92.5102C7.74606 89.2005 5.56356 84.4028 4.35363 81.8176C1.99814 76.8392 1.82669 76.4208 1.99228 76.1879C2.04323 76.1163 3.17652 76.124 4.47833 76.2245C5.79288 76.3072 6.97712 76.2433 7.11723 76.0462C7.27008 75.8312 7.2196 73.4996 7.00232 70.0364C6.61699 64.0772 6.59216 60.9087 6.90552 55.8041C7.87193 39.935 11.1105 26.3349 16.3812 16.1893C16.5933 15.7968 17.9921 13.7823 19.4869 11.7742C21.5293 8.99572 22.6381 7.71882 23.9709 6.55093Z" fill="#F277C6"/>
</svg>
