<svg width="149" height="130" viewBox="0 0 149 130" fill="none" xmlns="http://www.w3.org/2000/svg">
<path d="M55.924 43.5032C53.0837 57.1983 53.0837 57.3378 55.924 71.0329C60.0412 90.8851 47.4744 104.148 30.437 101.336C13.0711 98.4686 0.167969 80.6515 0.167969 54.3706C0.167969 27.9503 13.2747 11.2267 30.8184 10.2613C47.7586 9.32904 60.0032 23.8344 55.924 43.5032ZM48.9889 42.0581C52.1271 26.9267 43.4737 16.6755 31.2067 17.3506C17.733 18.092 7.2513 31.4662 7.2513 54.3706C7.2513 77.3802 17.8884 92.0682 31.5881 94.3299C43.6998 96.3294 52.0974 87.4664 48.9889 72.478C45.951 57.8297 45.951 56.7065 48.9889 42.0581Z" fill="#F277C6"/>
<path d="M42.4488 20.498C43.6564 21.6561 44.5622 22.31 45.7501 22.5569C49.3909 23.3133 50.7477 20.3108 50.2385 17.7651C49.9425 16.2853 48.8786 14.1909 47.3563 11.8638C43.641 6.18434 39.003 1.58621 34.6222 0.54138C29.6809 -0.637141 24.6385 2.51415 20.0674 7.78832C18.4641 9.63823 17.0781 11.6235 16.291 13.1756C15.6952 14.3506 15.388 15.2599 15.4871 16.3846C15.8226 20.1938 19.19 20.5058 21.4451 19.1664C25.8901 16.5265 38.4513 16.6642 42.4488 20.498ZM32.9825 7.44854C34.1847 7.73526 35.8898 9.04374 37.6527 10.9194C34.3242 10.2568 30.7255 10.1011 27.3804 10.4021C29.6717 8.2747 31.8031 7.16725 32.9825 7.44854Z" fill="#F277C6"/>
<path d="M53.2917 58.1C60.7801 58.1 63.9167 61.2439 63.9167 68.75V125.55C63.9167 127.511 65.5023 129.1 67.4583 129.1C69.4143 129.1 71 127.511 71 125.55V68.75C71 57.3227 64.6921 51 53.2917 51C51.3357 51 49.75 52.5894 49.75 54.55C49.75 56.5106 51.3357 58.1 53.2917 58.1Z" fill="#F277C6"/>
<path d="M46.5848 63.6116C44.8038 67.182 42.4586 68.7492 39.1276 68.7492C37.1716 68.7492 35.5859 70.3386 35.5859 72.2992C35.5859 74.2598 37.1716 75.8492 39.1276 75.8492C45.2411 75.8492 49.9792 72.6831 52.9204 66.7868C53.7951 65.0332 53.086 62.9008 51.3365 62.024C49.587 61.1472 47.4596 61.858 46.5848 63.6116Z" fill="#F277C6"/>
<path d="M48.559 46.0004C45.7207 42.127 42.644 40.349 39.1276 40.349C37.1716 40.349 35.5859 38.7596 35.5859 36.799C35.5859 34.8384 37.1716 33.249 39.1276 33.249C45.0556 33.249 50.1695 36.2043 54.2679 41.7975C55.4258 43.3777 55.0865 45.5996 53.51 46.7602C51.9335 47.9208 49.7169 47.5806 48.559 46.0004Z" fill="#F277C6"/>
<path d="M93.1346 43.5032C95.9749 57.1983 95.9749 57.3378 93.1346 71.0329C89.0174 90.8851 101.584 104.148 118.622 101.336C135.987 98.4686 148.891 80.6515 148.891 54.3706C148.891 27.9503 135.784 11.2267 118.24 10.2613C101.3 9.32904 89.0554 23.8344 93.1346 43.5032ZM100.07 42.0581C96.9315 26.9267 105.585 16.6755 117.852 17.3506C131.326 18.092 141.807 31.4662 141.807 54.3706C141.807 77.3802 131.17 92.0682 117.471 94.3299C105.359 96.3294 96.9612 87.4664 100.07 72.478C103.108 57.8297 103.108 56.7065 100.07 42.0581Z" fill="#F277C6"/>
<path d="M106.633 20.498C105.426 21.6561 104.52 22.31 103.332 22.5569C99.6911 23.3133 98.3343 20.3108 98.8436 17.7651C99.1396 16.2853 100.203 14.1909 101.726 11.8638C105.441 6.18434 110.079 1.58621 114.46 0.54138C119.401 -0.637141 124.444 2.51415 129.015 7.78832C130.618 9.63823 132.004 11.6235 132.791 13.1756C133.387 14.3506 133.694 15.2599 133.595 16.3846C133.259 20.1938 129.892 20.5058 127.637 19.1664C123.192 16.5265 110.631 16.6642 106.633 20.498ZM116.099 7.44854C114.897 7.73526 113.192 9.04374 111.429 10.9194C114.758 10.2568 118.356 10.1011 121.702 10.4021C119.41 8.2747 117.279 7.16725 116.099 7.44854Z" fill="#F277C6"/>
<path d="M95.7943 58.1C88.3058 58.1 85.1693 61.2439 85.1693 68.75V125.55C85.1693 127.511 83.5836 129.1 81.6276 129.1C79.6716 129.1 78.0859 127.511 78.0859 125.55V68.75C78.0859 57.3227 84.3938 51 95.7943 51C97.7503 51 99.3359 52.5894 99.3359 54.55C99.3359 56.5106 97.7503 58.1 95.7943 58.1Z" fill="#F277C6"/>
<path d="M102.505 63.6116C104.286 67.182 106.631 68.7492 109.962 68.7492C111.918 68.7492 113.504 70.3386 113.504 72.2992C113.504 74.2598 111.918 75.8492 109.962 75.8492C103.849 75.8492 99.1107 72.6831 96.1695 66.7868C95.2947 65.0332 96.0039 62.9008 97.7534 62.024C99.5029 61.1472 101.63 61.858 102.505 63.6116Z" fill="#F277C6"/>
<path d="M100.527 46.0004C103.365 42.127 106.442 40.349 109.958 40.349C111.914 40.349 113.5 38.7596 113.5 36.799C113.5 34.8384 111.914 33.249 109.958 33.249C104.03 33.249 98.9165 36.2043 94.818 41.7975C93.6601 43.3777 93.9995 45.5996 95.576 46.7602C97.1524 47.9208 99.3691 47.5806 100.527 46.0004Z" fill="#F277C6"/>
</svg>
