<svg width="137" height="173" viewBox="0 0 137 173" fill="none" xmlns="http://www.w3.org/2000/svg">
<path d="M22.8867 12.8135V29.9895H40.0817V12.8135H22.8867ZM35.1947 25.1079H27.7737V17.6951H35.1947V25.1079Z" fill="#F277C6"/>
<path d="M64.8786 12.8135H47.6836V29.9895H64.8786V12.8135ZM59.8106 25.1079H52.3896V17.6951H59.8106V25.1079Z" fill="#F277C6"/>
<path d="M89.4932 12.8135H72.1172V29.9895H89.3122V12.8135H89.4932ZM84.6062 25.1079H77.1852V17.6951H84.6062V25.1079Z" fill="#F277C6"/>
<path d="M114.109 12.8135H96.9141V29.9895H114.109V12.8135ZM109.222 25.1079H101.801V17.6951H109.222V25.1079Z" fill="#F277C6"/>
<path d="M22.8867 54.76H40.0817V37.584H22.8867V54.76ZM27.7737 42.4656H35.1947V49.8784H27.7737V42.4656Z" fill="#F277C6"/>
<path d="M64.8786 37.4023H47.6836V54.5783H64.8786V37.4023ZM59.8106 49.6967H52.3896V42.2839H59.8106V49.6967Z" fill="#F277C6"/>
<path d="M89.4932 37.4023H72.1172V54.5783H89.3122V37.4023H89.4932ZM84.6062 49.6967H77.1852V42.2839H84.6062V49.6967Z" fill="#F277C6"/>
<path d="M114.109 37.4023H96.9141V54.5783H114.109V37.4023ZM109.222 49.6967H101.801V42.2839H109.222V49.6967Z" fill="#F277C6"/>
<path d="M22.8867 79.3479H40.0817V62.1719H22.8867V79.3479ZM27.7737 67.0535H35.1947V74.4663H27.7737V67.0535Z" fill="#F277C6"/>
<path d="M64.8786 62.1719H47.6836V79.3479H64.8786V62.1719ZM59.8106 74.4663H52.3896V67.0535H59.8106V74.4663Z" fill="#F277C6"/>
<path d="M89.4932 62.1719H72.1172V79.3479H89.3122V62.1719H89.4932ZM84.6062 74.4663H77.1852V67.0535H84.6062V74.4663Z" fill="#F277C6"/>
<path d="M114.109 62.1719H96.9141V79.3479H114.109V62.1719ZM109.222 74.4663H101.801V67.0535H109.222V74.4663Z" fill="#F277C6"/>
<path d="M22.8867 103.937H40.0817V86.7607H22.8867V103.937ZM27.7737 91.6423H35.1947V99.0551H27.7737V91.6423Z" fill="#F277C6"/>
<path d="M64.8786 86.7607H47.6836V103.937H64.8786V86.7607ZM59.8106 99.0551H52.3896V91.6423H59.8106V99.0551Z" fill="#F277C6"/>
<path d="M89.4932 86.7607H72.1172V103.937H89.3122V86.7607H89.4932ZM84.6062 99.0551H77.1852V91.6423H84.6062V99.0551Z" fill="#F277C6"/>
<path d="M114.109 86.7607H96.9141V103.937H114.109V86.7607ZM109.222 99.0551H101.801V91.6423H109.222V99.0551Z" fill="#F277C6"/>
<path d="M22.8867 128.526H40.0817V111.35H22.8867V128.526ZM27.7737 116.231H35.1947V123.644H27.7737V116.231Z" fill="#F277C6"/>
<path d="M64.8786 111.35H47.6836V128.526H64.8786V111.35ZM59.8106 123.644H52.3896V116.231H59.8106V123.644Z" fill="#F277C6"/>
<path d="M89.4932 111.35H72.1172V128.526H89.3122V111.35H89.4932ZM84.6062 123.644H77.1852V116.231H84.6062V123.644Z" fill="#F277C6"/>
<path d="M114.109 111.35H96.9141V128.526H114.109V111.35ZM109.222 123.644H101.801V116.231H109.222V123.644Z" fill="#F277C6"/>
<path d="M126.419 167.398V0.519531H10.5787V167.398H0.804688V172.28H136.374V167.398H126.419ZM15.4657 5.40113H121.532V167.398H89.4947V135.939H70.8517H65.9647H47.5027V167.398H15.4657V5.40113ZM70.8517 140.82H84.4267V167.217H70.8517V140.82ZM66.1457 167.398H52.5707V140.82H66.1457V167.398Z" fill="#F277C6"/>
</svg>
