<svg width="137" height="119" viewBox="0 0 137 119" fill="none" xmlns="http://www.w3.org/2000/svg">
<path d="M134.082 78.5346C135.561 78.5346 136.758 77.3384 136.758 75.86V59.8137C136.758 58.3355 135.561 57.1392 134.082 57.1392H131.778C134.24 51.3106 134.929 44.6018 133.195 38.3903C139.468 28.3017 137.142 15.2792 128.503 10.2742C129.463 7.94386 131.575 6.31886 134.099 6.00296C135.567 5.81676 136.606 4.47951 136.419 3.01253C136.233 1.54555 134.901 0.507283 133.427 0.693472C128.882 1.26335 125.099 4.23684 123.45 8.47989C113.512 6.88869 103.563 15.753 102.135 27.4613C100.746 28.46 99.4364 29.6224 98.2281 30.9144C94.366 24.815 87.8333 20.5663 80.29 19.8103C79.1043 13.6545 73.6669 8.98819 67.1624 8.98819H61.8097C60.3304 8.98819 59.1333 10.1844 59.1333 11.6627C59.1333 16.4869 61.7023 20.7243 65.5475 23.0772C62.6001 24.8319 60.0311 27.213 58.038 30.1019C53.4306 28.3641 48.586 28.8098 44.6337 30.8975C42.7703 26.7842 39.3544 23.5229 35.035 21.8866C33.6516 21.3619 32.1046 22.0559 31.5851 23.4382C31.06 24.8206 31.7545 26.3666 33.1378 26.8857C36.2432 28.065 38.0784 30.1075 39.1454 31.93C34.8656 32.0203 30.6759 33.8146 27.5196 37.2226C23.1211 30.4292 21.128 22.5528 21.6588 14.5174C21.67 14.3819 21.6644 7.2895 21.6644 3.63895C21.6644 2.16071 20.4674 0.964421 18.988 0.964421H8.27125C6.79198 0.964421 5.59485 2.16059 5.59485 3.63895V13.688C1.99813 20.6506 0.242188 26.9982 0.242188 33.058C0.242188 41.7077 2.84516 50.0692 7.66142 57.134H2.91859C1.43931 57.134 0.242188 58.3301 0.242188 59.8085V75.8548C0.242188 77.3331 1.4392 78.5294 2.91859 78.5294H9.02231L15.6285 98.3399C19.6769 110.488 31.0153 118.652 43.8322 118.652C96.7604 118.652 93.2147 118.669 93.5313 118.623C98.3646 118.358 102.893 116.073 105.976 112.372C109.239 116.282 114.129 118.652 119.357 118.652C128.951 118.652 136.754 110.854 136.754 101.268C136.754 93.9498 132.203 87.6754 125.777 85.1132L127.973 78.5286L134.082 78.5346ZM106.127 31.2233C106.85 30.7662 107.307 29.9876 107.358 29.1356C108.013 18.8383 116.951 11.6044 124.268 14.1827C131.812 16.8402 133.85 28.2266 128.074 36.4243C127.582 37.1239 127.453 38.0155 127.724 38.8223C129.756 44.8257 128.791 51.6474 125.849 57.1321H97.8939C102.106 50.8352 103.021 43.0882 100.745 36.2108C102.287 34.2134 104.122 32.4984 106.127 31.2233ZM67.1617 14.3363C70.6512 14.3363 73.6268 16.5707 74.7334 19.6852H72.5144C69.0249 19.6852 66.0493 17.4508 64.9426 14.3363H67.1617ZM77.867 25.0341C88.1997 25.0341 96.6074 33.4356 96.6074 43.7613C96.6074 48.8056 94.569 53.6241 90.9837 57.1337H69.7485C72.8822 48.5065 69.9856 38.3169 62.7301 32.7298C66.2252 27.9338 71.8307 25.0341 77.867 25.0341ZM42.4765 37.6899C43.3743 37.9438 44.3284 37.6955 44.9779 37.12C46.3782 35.8843 47.9873 35.0549 49.766 34.6487C60.5334 32.1887 69.6236 46.3961 63.9042 57.1387L28.9763 57.1331C24.5552 46.0683 32.5448 34.931 42.4765 37.6899ZM10.9483 6.31222H16.3009V11.6611H10.9483V6.31222ZM5.59561 33.0633C5.59561 28.1206 7.00718 22.8563 9.90942 17.017H16.2164C16.2164 26.1069 19.0113 34.7114 24.3132 42.0232C22.0829 46.8023 21.874 52.2415 23.3195 57.1393L14.3701 57.1337C8.7068 50.4023 5.59561 41.899 5.59561 33.0633ZM5.59561 62.4881H131.401V73.186H5.59561V62.4881ZM92.6958 113.309H92.6563C84.5934 113.355 78.7043 105.568 81.0701 97.7817C82.9842 91.4791 89.6581 87.806 96.0956 89.7526C102.453 91.6766 106.056 98.4136 104.13 104.768C102.561 109.925 97.8227 113.264 92.6958 113.309ZM131.407 101.274C131.407 107.91 126.003 113.309 119.363 113.309C115.044 113.309 111.057 110.973 108.923 107.278C110.391 103.283 110.323 99.0681 108.917 95.2708C111.052 91.5694 115.032 89.2334 119.357 89.2334C126.003 89.2334 131.407 94.6333 131.407 101.274ZM120.537 83.9294C114.789 83.5401 109.437 86.0115 105.976 90.1699C103.876 87.6308 101.03 85.6616 97.6477 84.6348C88.4442 81.8474 78.7382 87.0328 75.9485 96.2297C74.0175 102.6 75.909 108.987 80.0476 113.309H43.8318C33.3241 113.309 24.0305 106.617 20.7103 96.653L14.6631 78.5353H122.338L120.537 83.9294Z" fill="#F277C6"/>
</svg>
