<svg width="134" height="115" viewBox="0 0 134 115" fill="none" xmlns="http://www.w3.org/2000/svg">
<path d="M20.2418 50.219C18.9818 49.515 17.3018 49.3742 15.9018 49.9374C6.10182 54.1614 0.22182 64.8622 0.36182 77.8158C0.50182 91.051 6.94182 102.033 16.6018 105.835C17.1618 106.117 17.7218 106.117 18.2818 106.117C19.1218 106.117 19.9618 105.976 20.6618 105.553C28.9218 100.907 33.5418 92.3182 33.5418 81.3358C33.8218 68.8046 27.6618 54.5838 20.2418 50.219ZM18.1418 95.8382C13.3818 92.7406 10.1618 85.7006 10.0218 77.675C10.0218 71.4798 11.8418 64.0174 17.3018 60.2158C20.5218 64.0174 24.1618 72.747 24.1618 81.3358C24.1618 85.9822 23.0418 91.8958 18.1418 95.8382Z" fill="#F277C6"/>
<path d="M120.063 42.7561C118.803 41.9113 117.123 41.9113 115.863 42.4745C106.063 46.6985 100.183 57.3993 100.323 70.3529C100.463 83.5882 106.903 94.5705 116.563 98.3722C117.123 98.6538 117.683 98.6538 118.243 98.6538C119.083 98.6538 119.923 98.513 120.623 98.0906C128.883 93.4442 133.503 84.8554 133.503 73.8729C133.643 61.2009 127.483 46.9801 120.063 42.7561ZM117.963 88.3754C113.203 85.2778 109.983 78.2377 109.843 70.2121C109.703 64.0169 111.663 56.5545 117.123 52.7529C120.343 56.5545 123.983 65.2841 123.983 73.8729C123.983 78.3786 122.863 84.433 117.963 88.3754Z" fill="#F277C6"/>
<path d="M55.103 68.3822C61.823 72.3246 70.363 74.4366 77.643 74.4366C81.983 74.4366 85.903 73.7326 88.563 72.043C89.823 71.339 90.803 69.931 90.943 68.3822C92.203 57.8222 85.903 47.2622 74.563 41.067C63.083 34.731 50.343 34.731 42.363 41.3486C41.243 42.1934 40.543 43.6014 40.543 45.0094C40.543 54.5838 45.723 62.891 55.103 68.3822ZM70.083 49.515C75.543 52.4718 81.003 57.8222 81.563 64.5806C76.663 65.5662 67.283 64.4398 60.003 60.075C56.083 57.8222 51.323 53.739 50.483 47.5438C55.383 44.8686 63.083 45.5726 70.083 49.515Z" fill="#F277C6"/>
<path d="M70.7799 81.3354C57.6199 80.209 46.1399 85.4186 41.3799 94.7114C40.6799 95.9786 40.6799 97.5274 41.2399 98.7946C45.0199 107.524 52.9999 113.015 63.9199 114.142C65.3199 114.283 66.8599 114.423 68.3999 114.423C79.7399 114.423 91.7799 110.059 96.1199 103.863C96.9599 102.596 97.2399 101.047 96.8199 99.6394C93.5999 89.5018 83.6599 82.4618 70.7799 81.3354ZM64.8999 104.708C60.2799 104.145 54.5399 102.455 51.1799 97.2458C54.8199 92.7402 61.9599 90.3466 69.9399 91.0506C76.0999 91.6138 83.2399 94.289 86.4599 100.062C82.3999 102.878 73.4399 105.694 64.8999 104.708Z" fill="#F277C6"/>
<path d="M117.263 26.2834C116.563 15.5826 108.443 6.43063 96.2631 2.34743C83.8031 -1.87657 71.3431 0.517032 64.6231 8.40183C63.6431 9.52823 63.2231 10.9362 63.5031 12.3442C65.1831 21.7778 71.7631 28.9586 81.9831 32.6194C86.7431 34.309 92.2031 35.1538 97.3831 35.1538C104.803 35.1538 111.803 33.4642 115.583 30.085C116.843 29.2402 117.403 27.8322 117.263 26.2834ZM85.2031 23.6082C80.8631 22.0594 75.5431 18.9618 73.5831 13.0482C78.0631 9.52823 85.7631 8.82423 93.3231 11.3586C99.2031 13.3298 105.503 17.5538 107.323 24.0306C102.563 26.0018 93.1831 26.565 85.2031 23.6082Z" fill="#F277C6"/>
<path d="M53.4216 8.5432C53.4216 6.9944 52.7216 5.5864 51.4616 4.7416C42.7816 -1.4536 30.7416 -1.172 19.6816 5.7272C8.48155 12.7672 2.46155 23.8904 4.14155 34.1688C4.42155 35.5768 5.26155 36.844 6.52155 37.548C10.3016 39.66 14.3616 40.7864 18.5616 40.7864C23.6016 40.7864 28.7816 39.2376 33.8216 36.2808C44.6016 29.804 53.5616 17.132 53.4216 8.5432ZM28.9216 27.9736C25.0016 30.3672 19.2616 32.4792 13.3816 30.2264C13.6616 24.4536 17.8616 18.1176 24.7216 13.8936C29.9016 10.6552 37.3216 8.4024 43.3416 11.2184C41.9416 16.0056 36.3416 23.6088 28.9216 27.9736Z" fill="#F277C6"/>
</svg>
