<svg width="174" height="175" viewBox="0 0 174 175" fill="none" xmlns="http://www.w3.org/2000/svg">
<path d="M152.249 130.8C148.514 130.8 145 131.747 141.925 133.416L126.445 117.901C130.72 111.436 133.214 103.694 133.214 95.3721C133.214 75.6329 119.182 59.1159 100.589 55.318V41.9995C108.552 38.7568 114.183 30.9258 114.183 21.7971C114.183 9.77641 104.426 -0.00292969 92.4331 -0.00292969C80.44 -0.00292969 70.6831 9.77641 70.6831 21.7971C70.6831 30.9258 76.3143 38.7602 84.2768 41.9995V55.318C68.3212 58.5778 55.7232 71.2047 52.4709 87.1971H36.2161C33.1575 80.7593 26.602 76.2971 19.0234 76.2971C8.52906 76.2971 -0.0078125 84.8536 -0.0078125 95.3721C-0.0078125 105.891 8.52906 114.447 19.0234 114.447C26.5986 114.447 33.1541 109.985 36.2161 103.547H52.4709C53.5312 108.759 55.5838 113.613 58.4215 117.901L42.9416 133.416C39.8695 131.747 36.3521 130.8 32.6172 130.8C20.6241 130.8 10.8672 140.58 10.8672 152.6C10.8672 164.621 20.6241 174.4 32.6172 174.4C44.6103 174.4 54.3672 164.621 54.3672 152.6C54.3672 150.332 54.0172 148.142 53.3748 146.084L69.9558 129.465C76.4061 133.75 84.1307 136.25 92.4331 136.25C100.735 136.25 108.46 133.75 114.91 129.465L131.491 146.084C130.846 148.142 130.499 150.332 130.499 152.6C130.499 164.621 140.256 174.4 152.249 174.4C164.242 174.4 173.999 164.621 173.999 152.6C173.999 140.58 164.242 130.8 152.249 130.8ZM76.124 21.8005C76.124 12.7841 83.4408 5.45048 92.4365 5.45048C101.432 5.45048 108.749 12.7841 108.749 21.8005C108.749 30.8168 101.432 38.1505 92.4365 38.1505C83.4408 38.1505 76.124 30.8168 76.124 21.8005ZM89.7177 43.4234C90.6081 43.5358 91.5155 43.6005 92.4365 43.6005C93.3575 43.6005 94.2648 43.5358 95.1552 43.4234V54.5924C94.2546 54.5345 93.3507 54.5005 92.4365 54.5005C91.5223 54.5005 90.6183 54.5345 89.7177 54.5924V43.4234ZM19.0302 109C11.5333 109 5.43648 102.89 5.43648 95.3755C5.43648 87.8613 11.5333 81.7505 19.0302 81.7505C26.5272 81.7505 32.624 87.8613 32.624 95.3755C32.624 102.89 26.5272 109 19.0302 109ZM37.8644 98.1005C37.9935 97.2115 38.0615 96.302 38.0615 95.3755C38.0615 94.449 37.9935 93.5395 37.8644 92.6505H51.747C51.6892 93.5531 51.6552 94.4592 51.6552 95.3755C51.6552 96.2918 51.6892 97.1978 51.747 98.1005H37.8644ZM32.624 168.95C23.6283 168.95 16.3115 161.617 16.3115 152.6C16.3115 143.584 23.6283 136.25 32.624 136.25C41.6196 136.25 48.9365 143.584 48.9365 152.6C48.9365 161.617 41.6196 168.95 32.624 168.95ZM50.9212 140.839C49.9322 139.296 48.753 137.885 47.4174 136.642L61.752 122.275C62.9482 123.644 64.2329 124.932 65.5956 126.127L50.9178 140.839H50.9212ZM57.0927 95.3755C57.0927 75.8406 72.9464 59.9505 92.4365 59.9505C111.927 59.9505 127.78 75.8406 127.78 95.3755C127.78 114.91 111.927 130.8 92.4365 130.8C72.9464 130.8 57.0927 114.91 57.0927 95.3755ZM119.274 126.127C120.64 124.928 121.925 123.641 123.118 122.275L137.452 136.642C136.117 137.885 134.941 139.296 133.948 140.839L119.271 126.127H119.274ZM152.249 168.95C143.253 168.95 135.936 161.617 135.936 152.6C135.936 143.584 143.253 136.25 152.249 136.25C161.245 136.25 168.561 143.584 168.561 152.6C168.561 161.617 161.245 168.95 152.249 168.95Z" fill="#F277C6"/>
</svg>
