<svg width="99" height="156" viewBox="0 0 99 156" fill="none" xmlns="http://www.w3.org/2000/svg">
<path d="M61.0805 42.0056V36.4915C61.0805 32.1911 57.562 28.6936 53.2383 28.6936H46.7658V23.2277H49.4379C50.7769 23.2277 51.8626 22.147 51.8626 20.8168V8.48413C51.8626 4.4851 48.5914 1.23242 44.5697 1.23242H32.7566C28.7348 1.23242 25.4637 4.4851 25.4637 8.48413V20.8168C25.4637 22.147 26.5493 23.2277 27.8883 23.2277H30.5592V28.6936H24.0868C19.7631 28.6936 16.2445 32.1911 16.2445 36.4915V41.9986C7.45158 42.9969 0.593162 50.4322 0.590794 59.4392C0.584523 87.9484 0.577525 49.7357 0.574219 139.349C0.573035 148.261 7.8624 155.51 16.8234 155.513L60.4791 155.522H60.4827C69.4654 155.522 76.7306 148.297 76.7331 139.366L76.7508 59.4557C76.7531 50.3066 69.7976 42.9764 61.0805 42.0056ZM60.4827 150.7H60.4791L16.8234 150.691C10.5369 150.691 5.42235 145.603 5.42353 139.35L5.42649 124.565H71.8873L71.8838 139.365C71.8838 145.615 66.7986 150.7 60.4827 150.7ZM21.4999 98.695C21.5023 89.2866 29.2025 81.6334 38.6619 81.6334H38.6655C48.154 81.6358 55.8263 89.3372 55.8251 98.7032C55.8228 108.136 48.1451 115.765 38.6631 115.765H38.6596C29.1598 115.762 21.4987 108.063 21.4999 98.695ZM71.8986 72.8478L5.43715 72.8254L5.44011 59.4404C5.44248 52.4135 11.1916 46.6981 18.2572 46.6981C23.0527 46.7004 54.2223 46.7055 59.088 46.7063C66.1712 46.7087 71.904 52.411 71.9015 59.4533L71.8986 72.8478Z" fill="#F277C6"/>
<path d="M38.6625 110.943C45.47 110.943 50.9752 105.464 50.9752 98.7023C50.9758 96.196 50.2092 93.8674 48.9057 91.9238L31.8438 108.882C33.7972 110.18 36.139 110.943 38.659 110.943H38.6625Z" fill="#F277C6"/>
<path d="M38.6639 86.4551H38.6604C31.873 86.4551 26.35 91.9457 26.3477 98.6971C26.3471 101.201 27.1131 103.528 28.4154 105.47L45.475 88.514C43.5227 87.2179 41.1821 86.4551 38.6639 86.4551Z" fill="#F277C6"/>
<path d="M57.1697 9.586C58.1446 10.6054 59.7755 10.4827 60.5888 9.586C61.405 8.93358 61.6902 7.28139 60.5888 6.18618C59.552 5.15523 58.0181 5.34249 57.1697 6.18618C55.9961 7.35311 56.4603 9.01894 57.1697 9.586Z" fill="#F277C6"/>
<path d="M80.8089 2.47332C79.4995 2.66638 78.5547 3.87186 78.7477 5.19742C78.9182 6.4029 79.96 7.27169 81.1487 7.27169C82.6158 7.27169 83.7355 5.97549 83.5497 4.54641C83.3555 3.21968 82.1432 2.3038 80.8089 2.47332Z" fill="#F277C6"/>
<path d="M73.7299 8.28436C75.197 8.28436 76.3167 6.98817 76.1308 5.55908C75.9367 4.23353 74.7243 3.31647 73.3901 3.48599C72.057 3.67906 71.1359 4.88453 71.3052 6.21009C71.4745 7.41557 72.5175 8.28436 73.7299 8.28436Z" fill="#F277C6"/>
<path d="M66.2843 9.29619C67.8134 9.29619 68.8929 7.97395 68.6841 6.54736C68.5148 5.24535 67.3025 4.30475 65.9694 4.49781C64.6351 4.66734 63.714 5.89636 63.8833 7.22192C64.0538 8.4274 65.0957 9.29619 66.2843 9.29619Z" fill="#F277C6"/>
<path d="M88.2545 1.48467C88.2545 1.46113 88.2545 1.46113 88.2545 1.46113C86.9203 1.65419 85.9992 2.85967 86.1685 4.18523C86.339 5.39071 87.3808 6.28305 88.5695 6.28305C90.0182 6.28305 91.1826 4.99206 90.9693 3.53422C90.8 2.20749 89.5639 1.29161 88.2545 1.48467Z" fill="#F277C6"/>
<path d="M94.2887 4.54642C95.2649 5.51712 96.7661 5.50635 97.7315 4.54642C98.7132 3.57031 98.5954 2.00212 97.7315 1.14777C96.8104 0.255431 95.1861 0.255431 94.2887 1.14777C93.3381 2.093 93.3444 3.6024 94.2887 4.54642Z" fill="#F277C6"/>
<path d="M60.5883 18.3379C61.6454 17.284 61.4596 15.6345 60.5883 14.938C59.7764 14.0386 58.1483 13.9644 57.1691 14.938C56.4345 15.5252 55.9979 17.1703 57.1691 18.3379C57.9889 19.1949 59.5714 19.349 60.5883 18.3379Z" fill="#F277C6"/>
<path d="M73.4145 20.9653C75.0681 20.9653 75.9661 20.0531 76.1304 18.8911C76.2997 17.5655 75.3538 16.36 74.0444 16.167C72.7113 15.9986 71.4989 16.9392 71.3048 18.2648C71.1355 19.5668 72.0802 20.7958 73.4145 20.9653Z" fill="#F277C6"/>
<path d="M81.4637 17.156C80.1306 16.9629 78.9183 17.9035 78.7478 19.2303C78.537 20.6525 79.6788 21.9544 81.1488 21.9544C82.3374 21.9544 83.3793 21.062 83.5498 19.8566C83.7191 18.531 82.7731 17.3255 81.4637 17.156Z" fill="#F277C6"/>
<path d="M65.969 19.9768C67.1056 20.1984 68.5068 19.3597 68.7085 17.9037C68.8778 16.6017 67.9319 15.3715 66.6225 15.2031C66.5988 15.2031 66.5988 15.2031 66.5988 15.2031C65.2894 15.0348 64.0534 15.9742 63.8829 17.2762C63.7136 18.6029 64.6595 19.8084 65.969 19.9768Z" fill="#F277C6"/>
<path d="M88.8844 18.1208C87.5513 17.9513 86.339 18.8671 86.1685 20.1927C85.9992 21.5194 86.9203 22.7249 88.2545 22.8933C89.2614 23.1497 90.7913 22.3052 90.9693 20.8202C91.1397 19.4934 90.2187 18.2879 88.8844 18.1208Z" fill="#F277C6"/>
<path d="M97.7316 19.7601C96.8105 18.8677 95.1862 18.8677 94.2888 19.7601C93.2477 20.9078 93.4506 22.35 94.2888 23.1834C95.2565 24.1457 96.823 24.087 97.7316 23.1834C98.6244 22.3005 98.6958 20.8173 97.7316 19.7601Z" fill="#F277C6"/>
</svg>
