
<svg width="124" height="155" viewBox="0 0 124 123" fill="none" xmlns="http://www.w3.org/2000/svg">
<path d="M114.796 52.3118C114.559 45.0468 113.533 37.8292 111.735 30.7862C110.639 26.57 108.894 22.55 106.562 18.8706C100.556 9.62869 89.1246 5.19182 78.8558 2.75057C75.8625 2.12555 72.8063 1.85245 69.7496 1.93682C62.639 2.16932 57.0396 4.53307 53.5327 8.77619C50.3598 12.8981 48.8708 18.0713 49.3671 23.2493C50.1144 31.2167 52.3003 38.9826 55.8189 46.1699V46.2862C55.8189 46.2862 56.9233 48.5531 58.4152 52.0987C60.1356 50.8871 61.7614 49.5464 63.2783 48.0881C63.5786 47.1101 63.941 46.1523 64.3633 45.2206C63.7821 43.9612 63.3946 43.1281 63.259 42.8374C60.1875 36.6104 58.2519 29.8852 57.5433 22.9781C57.1826 19.8687 57.9679 16.7344 59.7521 14.1624C62.0618 11.8019 65.2075 10.4448 68.5096 10.3843C71.3253 10.0413 74.1798 10.2053 76.9377 10.8687C87.3808 13.7556 94.9371 15.9449 99.7421 23.3656C102.11 27.2165 103.764 31.463 104.625 35.9012C105.794 41.9506 106.442 48.0891 106.562 54.2493C106.95 63.0843 107.337 72.4231 105.787 81.1612C104.86 86.7553 102.713 92.0767 99.4988 96.7478C96.2843 101.419 92.0809 105.325 87.1871 108.189C90.5203 103.374 92.9616 97.9995 94.3946 92.3212C94.6515 91.2601 94.4764 90.1404 93.9077 89.2084C93.3391 88.2764 92.4235 87.6084 91.3624 87.3515C90.837 87.2243 90.2917 87.2018 89.7576 87.2853C89.2235 87.3689 88.711 87.5568 88.2496 87.8383C87.3176 88.407 86.6496 89.3226 86.3927 90.3837C84.9196 96.0347 82.2797 101.315 78.6427 105.884C76.588 108.618 74.0778 110.977 71.2221 112.859C71.6066 111.544 72.0593 110.251 72.5783 108.984C75.1141 102.975 76.6206 96.5824 77.0346 90.0737C77.1628 86.5061 76.8702 82.9359 76.1627 79.4368C73.7215 80.4831 71.1381 81.4454 68.4127 82.3237C68.8376 84.7599 69 87.2347 68.8971 89.7056C68.5432 95.3619 67.233 100.917 65.0221 106.136C63.3752 110.359 61.8446 114.351 63.8983 118.613C64.3595 119.593 65.0761 120.43 65.9728 121.037C66.8694 121.644 67.9131 121.998 68.994 122.062C76.744 122.507 85.5596 118.807 91.9921 115.009C101.864 109.166 109.175 99.8214 112.471 88.8337C113.976 83.7336 114.797 78.4562 114.913 73.1399C115.145 65.2931 115.106 58.3762 114.796 52.3118Z" fill="#F277C6"/>
<path d="M86.0248 72.3648C86.8238 73.1932 87.4787 74.1493 87.9623 75.1936C89.1636 77.9061 92.9611 78.1773 95.5186 78.7973C93.1548 79.243 89.7061 79.398 87.5748 77.7511C86.3348 76.7242 85.7923 75.1355 84.688 73.9923C81.8592 71.0473 78.1586 73.9923 75.233 75.2517C72.8498 76.298 70.2536 77.2861 67.483 78.1773C62.1801 79.8427 56.7679 81.1375 51.2855 82.0523C39.5154 84.0903 28.8331 90.1925 21.0992 99.2961C17.8732 97.6343 14.2842 96.802 10.6561 96.8742H9.18359C15.3547 82.7569 26.8201 71.6255 41.1136 65.8742C47.7774 63.2869 54.1328 59.9662 60.0623 55.9736C62.4824 54.3332 64.7344 52.4576 66.7855 50.3742L67.0955 50.0448C67.1058 50.0134 67.1058 49.9794 67.0955 49.948C68.011 46.5774 69.7409 43.4836 72.133 40.9386C70.1955 38.3811 68.878 35.533 69.7692 32.3167C70.4667 29.7592 68.0061 27.4148 66.6111 25.5355C68.5486 26.5817 71.0092 28.4805 71.4742 30.7667C71.9392 33.053 70.7186 35.3392 72.443 37.6642C72.443 37.7805 73.683 39.0786 73.683 39.1367C76.9186 34.3511 74.8261 27.0661 74.1867 21.6992C76.9574 26.3105 80.1155 33.6342 78.2361 39.1367C77.5325 40.9217 76.5588 42.588 75.3492 44.0773C76.4611 43.7505 77.6227 43.6258 78.7786 43.7092C81.743 43.9417 83.8161 40.7448 85.5792 38.8073C84.8236 41.0936 83.2542 44.2711 80.8324 45.2592C79.3017 45.8792 77.5773 45.5692 76.008 46.0342C74.6601 46.5159 73.5135 47.4372 72.753 48.6498C72.3073 49.2892 71.3967 50.4905 71.668 51.3042C71.668 51.4592 72.0748 51.8855 72.2686 51.8467C75.3033 51.3672 78.4047 51.5256 81.3748 52.3117C82.7505 49.4636 84.533 46.8673 87.8074 46.0923C90.3842 45.4917 91.2561 42.2173 92.2248 40.0667C92.2248 42.2173 91.7792 45.3561 89.9773 46.848C88.949 47.5091 87.8509 48.0549 86.703 48.4755C85.6825 49.0381 84.8782 49.9242 84.4167 50.9942C84.4167 51.1105 83.7386 52.8155 83.6998 52.8155C89.5123 53.3386 94.8405 48.0105 99.1998 44.8717C96.4873 49.5217 91.5855 55.8186 85.8117 56.8455C83.8778 57.0935 81.9172 57.0412 79.9992 56.6905C80.8104 57.5088 81.4668 58.4672 81.9367 59.5192C83.1573 62.2317 86.9548 62.503 89.5123 63.123C87.1486 63.5686 83.603 63.7236 81.5686 62.0767C79.9411 60.7398 79.418 58.473 77.4998 57.4267C76.623 56.8834 75.6077 56.6053 74.5764 56.626C73.5451 56.6466 72.5418 56.965 71.6873 57.543C69.082 59.9223 66.2677 62.0621 63.2786 63.9367C57.2699 67.7827 50.8971 71.0275 44.2523 73.6242C41.4654 74.7525 38.7816 76.1203 36.2311 77.7123C40.6129 75.7991 45.2135 74.4326 49.9292 73.6436C56.943 72.4423 61.9223 71.3767 65.4292 70.4661C68.0836 69.788 70.6605 68.8386 73.3342 68.2186C77.874 67.0822 82.6148 67.0093 87.1873 68.0055C87.1873 68.0055 88.1755 66.068 88.253 65.913C88.8125 64.8886 89.5783 63.9912 90.5021 63.2776C91.4258 62.564 92.4874 62.0495 93.6199 61.7667C96.1967 61.1661 97.0686 57.8917 98.0567 55.7411C98.0567 57.8917 97.5917 61.0305 95.7898 62.5223C94.7661 63.1795 93.6749 63.7252 92.5348 64.1498C91.4592 64.729 90.6222 65.6689 90.1711 66.8042C90.1711 66.8042 89.5511 68.4898 89.5317 68.4898C95.3442 69.013 100.653 63.6848 105.032 60.5461C102.339 65.1961 97.4173 71.493 91.6436 72.5198C89.7735 72.7501 87.8794 72.6979 86.0248 72.3648Z" fill="#F277C6"/>
</svg>
