<svg width="127" height="147" viewBox="0 0 127 147" fill="none" xmlns="http://www.w3.org/2000/svg">
<path d="M40.9998 13.9024L13.1593 30.093C12.701 30.3598 12.3205 30.7434 12.056 31.2052C11.7914 31.667 11.6522 32.1908 11.6523 32.7239V65.105C11.6522 65.6381 11.7914 66.1619 12.056 66.6237C12.3205 67.0855 12.701 67.4691 13.1593 67.7359L40.9998 83.9264C41.4581 84.1926 41.9778 84.3328 42.5068 84.3328C43.0358 84.3328 43.5555 84.1926 44.0137 83.9264L71.8543 67.7359C72.3126 67.4691 72.6931 67.0855 72.9576 66.6237C73.2221 66.1619 73.3613 65.6381 73.3612 65.105V32.7239C73.3613 32.1908 73.2221 31.667 72.9576 31.2052C72.6931 30.7434 72.3126 30.3598 71.8543 30.093L44.0137 13.9024C43.5555 13.6362 43.0358 13.4961 42.5068 13.4961C41.9778 13.4961 41.4581 13.6362 40.9998 13.9024ZM42.5068 20.0371L67.3335 34.4821V63.3468L42.5068 77.7918L17.6801 63.3468V34.4821L42.5068 20.0371Z" fill="#F277C6"/>
<path d="M68.8397 62.4737L40.9991 78.6642C40.5408 78.931 40.1603 79.3146 39.8958 79.7765C39.6313 80.2383 39.4921 80.762 39.4922 81.2952V113.676C39.4921 114.209 39.6313 114.733 39.8958 115.195C40.1603 115.657 40.5408 116.04 40.9991 116.307L68.8397 132.498C69.2979 132.764 69.8176 132.904 70.3466 132.904C70.8756 132.904 71.3953 132.764 71.8535 132.498L99.6941 116.307C100.152 116.04 100.533 115.657 100.797 115.195C101.062 114.733 101.201 114.209 101.201 113.676V81.2952C101.201 80.762 101.062 80.2383 100.797 79.7765C100.533 79.3146 100.152 78.931 99.6941 78.6642L71.8535 62.4737C71.3953 62.2075 70.8756 62.0674 70.3466 62.0674C69.8176 62.0674 69.2979 62.2075 68.8397 62.4737ZM70.3466 68.6084L95.1733 83.0534V111.918L70.3466 126.363L45.5199 111.918V83.0534L70.3466 68.6084Z" fill="#F277C6"/>
<path d="M102.636 20.1515L83.1477 31.4849C82.6903 31.752 82.3107 32.1356 82.0468 32.5972C81.783 33.0587 81.6443 33.582 81.6445 34.1145V56.7813C81.6443 57.3139 81.783 57.8371 82.0468 58.2987C82.3107 58.7602 82.6903 59.1438 83.1477 59.411L102.636 70.7443C103.096 71.0124 103.617 71.1536 104.148 71.1536C104.679 71.1536 105.201 71.0124 105.66 70.7443L125.148 59.411C125.606 59.1438 125.985 58.7602 126.249 58.2987C126.513 57.8371 126.652 57.3139 126.652 56.7813V34.1145C126.652 33.582 126.513 33.0587 126.249 32.5972C125.985 32.1356 125.606 31.752 125.148 31.4849L105.66 20.1515C105.201 19.8834 104.679 19.7422 104.148 19.7422C103.617 19.7422 103.096 19.8834 102.636 20.1515ZM104.148 26.2874L120.621 35.8677V55.0281L104.148 64.6084L87.6748 55.0281V35.8677L104.148 26.2874Z" fill="#F277C6"/>
<path d="M99.7162 111.061C99.3744 110.857 98.9958 110.722 98.6024 110.666C98.2089 110.61 97.8083 110.632 97.4234 110.732C97.0386 110.832 96.6772 111.008 96.36 111.249C96.0428 111.49 95.7761 111.793 95.5752 112.138C95.3742 112.485 95.2435 112.869 95.1907 113.267C95.1378 113.665 95.1639 114.069 95.2674 114.457C95.3708 114.845 95.5497 115.208 95.7935 115.526C96.0373 115.844 96.3412 116.11 96.6877 116.309L107.998 122.902C108.689 123.297 109.508 123.4 110.275 123.19C111.042 122.981 111.696 122.474 112.094 121.781C112.297 121.437 112.43 121.056 112.486 120.659C112.542 120.263 112.52 119.859 112.42 119.472C112.321 119.084 112.147 118.72 111.907 118.401C111.668 118.081 111.368 117.812 111.025 117.61L99.7162 111.061Z" fill="#F277C6"/>
<path d="M43.3039 110.747C42.9166 110.641 42.5123 110.615 42.1147 110.669C41.7171 110.723 41.3343 110.856 40.9885 111.061L29.6788 117.609C29.3359 117.812 29.036 118.08 28.7965 118.4C28.557 118.719 28.3826 119.083 28.2832 119.471C28.1838 119.859 28.1616 120.262 28.2176 120.658C28.2736 121.055 28.4067 121.436 28.6095 121.78C29.0079 122.473 29.6619 122.98 30.429 123.19C31.1961 123.4 32.0145 123.296 32.7061 122.901L44.0158 116.308C44.3623 116.109 44.6664 115.843 44.9102 115.526C45.154 115.208 45.3327 114.844 45.4361 114.457C45.5396 114.069 45.5657 113.664 45.5128 113.266C45.46 112.867 45.3293 112.484 45.1283 112.137C44.7249 111.449 44.0705 110.951 43.3039 110.747Z" fill="#F277C6"/>
<path d="M42.5007 0.326196C42.1026 0.324591 41.7081 0.402294 41.34 0.555001C40.9719 0.707707 40.6374 0.9323 40.3559 1.21583C40.0744 1.49937 39.8514 1.83632 39.6998 2.20709C39.5482 2.57785 39.4711 2.97501 39.4727 3.37599V16.517C39.4711 16.918 39.5482 17.3151 39.6998 17.6859C39.8514 18.0567 40.0744 18.3936 40.3559 18.6771C40.6374 18.9607 40.9719 19.1853 41.34 19.338C41.7081 19.4907 42.1026 19.5684 42.5007 19.5668C42.8988 19.5684 43.2931 19.4907 43.6612 19.338C44.0292 19.1853 44.3636 18.9607 44.6451 18.6771C44.9266 18.3936 45.1496 18.0566 45.3012 17.6859C45.4528 17.3151 45.5299 16.9179 45.5283 16.517V3.37599C45.5299 2.97503 45.4528 2.57783 45.3012 2.20709C45.1496 1.83634 44.9266 1.49937 44.6451 1.21583C44.3636 0.932303 44.0292 0.707721 43.6612 0.555001C43.2931 0.40228 42.8988 0.324622 42.5007 0.326196Z" fill="#F277C6"/>
<path d="M13.1577 62.4881L1.84785 69.0362C1.50133 69.2349 1.19729 69.5008 0.953487 69.8186C0.709686 70.1364 0.530977 70.4997 0.427513 70.8876C0.32405 71.2755 0.297972 71.6805 0.350809 72.0786C0.403646 72.4767 0.534216 72.8603 0.735201 73.2072C0.932511 73.5563 1.19659 73.8625 1.51216 74.1081C1.82773 74.3537 2.18854 74.5336 2.57368 74.6379C2.95881 74.7421 3.36063 74.7685 3.7559 74.7153C4.15117 74.6621 4.53214 74.5302 4.87655 74.3278L16.1862 67.7348C16.5327 67.5361 16.8368 67.2703 17.0806 66.9524C17.3244 66.6346 17.5031 66.2709 17.6065 65.883C17.71 65.4951 17.7361 65.0905 17.6833 64.6924C17.6304 64.2943 17.4997 63.9107 17.2987 63.5638C17.0978 63.2184 16.8311 62.9164 16.5139 62.6752C16.1967 62.434 15.8353 62.2581 15.4505 62.158C15.0656 62.058 14.665 62.0354 14.2716 62.0918C13.8781 62.1482 13.4995 62.2839 13.1577 62.4881Z" fill="#F277C6"/>
<path d="M70.331 126.848C69.5424 126.856 68.7885 127.176 68.2309 127.737C67.6732 128.299 67.3561 129.058 67.3477 129.853V143.038C67.3561 143.833 67.6732 144.592 68.2309 145.154C68.7885 145.715 69.5424 146.035 70.331 146.043C71.1273 146.047 71.8925 145.732 72.4597 145.17C73.027 144.607 73.3502 143.841 73.3588 143.038V129.853C73.3502 129.051 73.027 128.285 72.4597 127.722C71.8925 127.159 71.1273 126.844 70.331 126.848Z" fill="#F277C6"/>
<path d="M4.877 23.5139C4.53258 23.3114 4.15161 23.1796 3.75635 23.1264C3.36108 23.0731 2.95925 23.0996 2.57412 23.2038C2.18899 23.308 1.82817 23.488 1.51261 23.7336C1.19704 23.9792 0.932958 24.2854 0.735648 24.6344C0.343796 25.3311 0.240843 26.1554 0.44918 26.9281C0.657518 27.7008 1.16042 28.3593 1.8483 28.7606L13.1583 35.3535C13.5027 35.556 13.8835 35.6879 14.2788 35.7411C14.674 35.7943 15.0757 35.7679 15.4608 35.6636C15.8459 35.5594 16.2068 35.3794 16.5223 35.1338C16.8379 34.8883 17.1018 34.582 17.2991 34.233C17.691 33.5364 17.7939 32.712 17.5856 31.9393C17.3773 31.1666 16.8745 30.5081 16.1867 30.1068L4.877 23.5139Z" fill="#F277C6"/>
<path d="M109.779 47.9572L103.456 51.5901C103.113 51.7924 102.813 52.0611 102.574 52.3806C102.334 52.7 102.16 53.0641 102.061 53.4517C101.961 53.8393 101.939 54.2428 101.995 54.6392C102.051 55.0355 102.184 55.4168 102.387 55.7611C102.785 56.454 103.439 56.9605 104.206 57.1704C104.974 57.3802 105.792 57.2763 106.484 56.8817L112.806 53.204C113.494 52.8027 113.997 52.1441 114.205 51.3714C114.414 50.5987 114.311 49.7744 113.919 49.0778C113.721 48.7287 113.457 48.4225 113.142 48.1769C112.826 47.9314 112.466 47.7514 112.08 47.6471C111.695 47.5429 111.294 47.5165 110.898 47.5697C110.503 47.6229 110.124 47.7548 109.779 47.9572Z" fill="#F277C6"/>
<path d="M86.4929 99.5789C86.1008 99.5059 85.6981 99.512 85.3084 99.5967C84.9186 99.6815 84.5495 99.8432 84.2222 100.073L78.6118 103.93C78.2819 104.157 78.0003 104.449 77.7833 104.787C77.5664 105.125 77.4184 105.504 77.348 105.901C77.2775 106.297 77.286 106.704 77.373 107.097C77.4601 107.49 77.624 107.862 77.855 108.19C78.3111 108.849 79.0073 109.298 79.7916 109.441C80.5758 109.584 81.3843 109.409 82.0403 108.953L87.6507 105.051C88.3043 104.592 88.7508 103.89 88.8926 103.1C89.0344 102.31 88.86 101.496 88.4075 100.835C87.9575 100.18 87.2701 99.7283 86.4929 99.5789Z" fill="#F277C6"/>
<path d="M73.7678 113.965C73.7678 115.1 73.3204 116.188 72.5238 116.991C71.7273 117.793 70.6471 118.244 69.5207 118.244C68.3943 118.244 67.3139 117.793 66.5174 116.991C65.7209 116.188 65.2734 115.1 65.2734 113.965C65.2734 112.831 65.7209 111.743 66.5174 110.94C67.3139 110.138 68.3943 109.688 69.5207 109.688C70.6471 109.688 71.7273 110.138 72.5238 110.94C73.3204 111.743 73.7678 112.831 73.7678 113.965Z" fill="#F277C6"/>
<path d="M27.4497 39.749C27.0517 39.7475 26.6573 39.8251 26.2892 39.9779C25.9212 40.1306 25.5868 40.3552 25.3053 40.6387C25.0238 40.9222 24.8008 41.2592 24.6492 41.6299C24.4976 42.0007 24.4203 42.3979 24.4219 42.7988V54.6392C24.4203 55.0401 24.4976 55.4374 24.6492 55.8081C24.8008 56.1788 25.0238 56.5158 25.3053 56.7993C25.5868 57.0829 25.9212 57.3071 26.2892 57.4598C26.6573 57.6125 27.0517 57.6906 27.4497 57.689C27.8478 57.6906 28.2422 57.6125 28.6102 57.4598C28.9783 57.3071 29.3127 57.0829 29.5941 56.7993C29.8756 56.5158 30.0986 56.1788 30.2502 55.8081C30.4018 55.4374 30.4791 55.0401 30.4776 54.6392V42.7988C30.4791 42.3979 30.4018 42.0007 30.2502 41.6299C30.0986 41.2592 29.8756 40.9222 29.5941 40.6387C29.3127 40.3552 28.9783 40.1306 28.6102 39.9779C28.2422 39.8251 27.8478 39.7475 27.4497 39.749Z" fill="#F277C6"/>
</svg>
