<svg width="137" height="137" viewBox="0 0 137 137" fill="none" xmlns="http://www.w3.org/2000/svg">
<path d="M132.438 64.3192C117.752 64.3192 113.524 52.7149 113.33 52.1577C113.265 51.9637 112.897 46.6885 112.897 44.5715C112.897 27.8751 99.3303 14.2874 82.6538 14.2874H72.4362V4.90863C72.4362 2.54959 70.5282 0.640625 68.1737 0.640625C65.8193 0.640625 63.9112 2.54959 63.9112 4.90863V14.2858H53.6936C37.0187 14.2858 23.45 27.8736 23.4841 45.1039C23.6841 46.6807 23.7616 51.9016 23.6732 52.1562C23.5027 52.6481 19.2898 64.3176 4.56328 64.3176C2.20883 64.3176 0.300781 66.2266 0.300781 68.5856C0.300781 70.9447 2.20883 72.8536 4.56328 72.8536C12.9472 72.8536 19.2201 69.925 23.6577 66.2188C22.8626 73.5846 20.9282 80.4941 16.83 83.2319C14.8708 84.5402 14.3422 87.191 15.6473 89.1496C16.4688 90.3835 17.8204 91.0508 19.1984 91.0508C20.0106 91.0508 20.8321 90.818 21.559 90.3338C28.6255 85.6188 31.3814 75.4455 32.3036 65.8588C35.1076 70.895 35.1339 76.9959 35.1339 77.0782C35.1215 79.4372 37.0094 81.3633 39.3592 81.3788C39.3716 81.3788 39.384 81.3788 39.3964 81.3788C41.7276 81.3788 43.6295 79.5117 43.6589 77.1697C43.6667 76.4931 43.7194 61.0662 32.6632 53.9642C32.5237 49.1267 32.1052 45.5183 31.975 44.5684C31.975 32.573 41.7183 22.8203 53.6936 22.8203H63.9112V86.2241C63.9112 86.3188 63.9329 86.4057 63.9391 86.4988H61.067C51.6848 86.4988 44.0495 94.1424 44.065 103.905C44.2278 105.827 43.9612 110.35 43.8356 110.749C43.6512 111.34 41.8578 116.535 36.0438 116.535C33.6893 116.535 31.7813 118.444 31.7813 120.803C31.7813 123.162 33.6893 125.071 36.0438 125.071C39.0337 125.071 41.5587 124.354 43.6682 123.249C43.2094 126.093 42.5584 128.1 41.7617 128.721C39.8072 130.029 39.2802 132.68 40.5853 134.639C41.8857 136.597 44.5362 137.114 46.4954 135.823C54.0486 130.779 53.2519 111.315 52.5745 103.546C52.5745 98.8527 56.3829 95.0348 61.067 95.0348H75.282C79.9646 95.0348 83.7745 98.8527 83.7745 103.546C83.7745 113.375 84.4797 130.563 89.2088 135.289C90.0473 136.13 91.1587 136.555 92.2685 136.555C93.3566 136.555 94.4416 136.147 95.2662 135.322C96.9309 133.655 96.9588 130.979 95.2941 129.32C94.6787 128.518 94.0928 126.215 93.6046 123.03C95.7932 124.259 98.4499 125.068 101.634 125.068C103.988 125.068 105.896 123.159 105.896 120.8C105.896 118.441 103.988 116.532 101.634 116.532C95.835 116.532 94.037 111.363 93.8433 110.746C93.5829 109.872 92.301 105.239 92.301 103.543C92.301 94.1393 84.6673 86.4957 75.2836 86.4957H72.4099C72.4161 86.4026 72.4378 86.3141 72.4378 86.221V22.8234H82.6554C94.6307 22.8234 104.374 32.5761 104.374 44.5715C104.374 46.1717 104.41 49.5426 104.644 53.7811C93.2868 60.793 93.3364 76.4915 93.3442 77.1744C93.3736 79.5164 95.2755 81.3834 97.6067 81.3834C97.6191 81.3834 97.6315 81.3834 97.6439 81.3834C99.9937 81.3664 101.882 79.4419 101.869 77.0828C101.869 76.9913 101.9 69.6829 105.583 64.462C106.806 74.2923 109.252 84.9111 114.141 89.803C115.805 91.4699 118.502 91.4699 120.168 89.803C121.835 88.1362 121.833 85.4357 120.168 83.7673C117.569 81.1661 115.771 74.6338 114.613 67.2013C118.953 70.4263 124.817 72.8552 132.44 72.8552C134.794 72.8552 136.702 70.9462 136.702 68.5872C136.702 66.2281 134.793 64.3192 132.438 64.3192Z" fill="#F277C6"/>
</svg>
