<svg width="114" height="143" viewBox="0 0 114 143" fill="none" xmlns="http://www.w3.org/2000/svg">
<path d="M106.016 12.5996H49.7655C47.2878 12.5996 45.0064 13.8246 43.5836 15.9806L34.875 30.6316V17.4751C37.598 17.3771 39.7812 15.1476 39.7812 12.4036V5.44561C39.7812 2.62811 37.4998 0.349609 34.6787 0.349609H5.63375C2.81266 0.349609 0.53125 2.62811 0.53125 5.44561V12.4036C0.53125 15.1476 2.71453 17.3771 5.4375 17.4751V135.1C5.4375 139.142 8.74922 142.45 12.7969 142.45H106.016C110.063 142.45 113.375 139.142 113.375 135.1V19.9496C113.375 15.9071 110.063 12.5996 106.016 12.5996ZM5.4375 5.44561C5.4375 5.44561 5.53562 5.24961 5.63375 5.24961H34.6787C34.6787 5.24961 34.875 5.34761 34.875 5.44561V12.4036C34.875 12.4036 34.7769 12.5996 34.6787 12.5996H5.63375C5.63375 12.5996 5.4375 12.5016 5.4375 12.4036V5.44561ZM108.469 135.1C108.469 136.447 107.365 137.55 106.016 137.55H12.7969C11.4477 137.55 10.3438 136.447 10.3438 135.1V17.4996H29.9688V39.5496C29.9688 40.6521 30.7047 41.6076 31.7841 41.9016C32.8634 42.1956 33.9673 41.7301 34.5316 40.7991L47.7294 18.5776C48.1709 17.8916 48.9314 17.4996 49.7655 17.4996H106.016C107.365 17.4996 108.469 18.6021 108.469 19.9496V135.1ZM101.109 22.3996H52.0469C51.1637 22.3996 50.3542 22.8651 49.9127 23.6246L40.1002 40.7746C39.6586 41.5341 39.6586 42.4651 40.1002 43.2246C40.5417 43.9841 41.3512 44.4496 42.2098 44.4496H101.085C102.434 44.4496 103.538 43.3471 103.538 41.9996V24.8496C103.538 23.5021 102.434 22.3996 101.085 22.3996H101.109ZM98.6562 39.5496H46.4537L53.4697 27.2996H98.6562V39.5496ZM36.4941 103.152C37.2545 103.152 37.9905 102.809 38.4566 102.172L41.9645 97.4186H47.1161V99.4031C47.1161 100.408 47.2878 101.388 47.5086 102.319L41.2041 105.136C40.5417 105.43 40.0511 106.018 39.8548 106.704L38.3584 111.947C37.9905 113.246 38.7509 114.593 40.0511 114.961C40.2719 115.034 40.4927 115.059 40.7134 115.059C41.7928 115.059 42.7741 114.348 43.0684 113.27L44.2459 109.13L49.6183 106.729C51.8506 109.693 55.3831 111.629 59.3572 111.629C63.3312 111.629 66.8638 109.693 69.0961 106.729L74.4684 109.13L75.6459 113.27C75.9403 114.348 76.9461 115.059 78.0009 115.059C78.2217 115.059 78.4425 115.034 78.6633 114.961C79.9634 114.593 80.7239 113.246 80.3559 111.947L78.8595 106.704C78.6633 105.994 78.1727 105.43 77.5103 105.136L71.2058 102.319C71.4511 101.388 71.5983 100.408 71.5983 99.4031V97.4186H76.7498L80.2578 102.172C80.7484 102.809 81.4844 103.152 82.2203 103.152C82.7355 103.152 83.2506 103.005 83.6677 102.662C84.747 101.853 84.9923 100.31 84.1828 99.2316L79.9389 93.4986C79.4728 92.8861 78.7369 92.5186 77.9764 92.5186H71.5737V88.9416L77.4858 86.2956C78.1481 86.0016 78.6387 85.4136 78.835 84.7276L80.3314 79.4846C80.6994 78.1861 79.9389 76.8386 78.6387 76.4711C77.3386 76.1036 75.9894 76.8631 75.6214 78.1616L74.4439 82.3021L71.353 83.6741C70.9605 82.8411 70.1264 82.2286 69.1452 82.2286C69.1452 79.3376 67.8695 76.7651 65.8825 74.9766C65.9561 74.5601 66.1033 74.1191 66.3486 73.6781C67.1827 72.2816 68.63 71.8406 69.0716 71.7426C70.3962 71.4486 71.2058 70.1256 70.9114 68.8026C70.617 67.4796 69.2924 66.6466 67.9677 66.9651C66.7902 67.2346 63.8955 68.1901 62.1292 71.1791C61.8348 71.6691 61.6141 72.1836 61.4423 72.6491C60.7555 72.5021 60.0686 72.4041 59.3327 72.4041C58.5967 72.4041 57.9098 72.5021 57.223 72.6491C57.0513 72.1591 56.8305 71.6691 56.5361 71.1546C54.7698 68.1656 51.8506 67.2101 50.6977 66.9406C49.373 66.6466 48.0483 67.4551 47.7539 68.7781C47.4595 70.1011 48.2691 71.4241 49.5938 71.7181C50.0353 71.8161 51.4827 72.2571 52.3167 73.6536C52.5866 74.0946 52.7337 74.5601 52.8073 74.9521C50.8203 76.7406 49.5447 79.3131 49.5447 82.2041C48.5634 82.2041 47.7048 82.7921 47.3369 83.6496L44.2459 82.2776L43.0684 78.1371C42.7005 76.8386 41.3512 76.0791 40.0511 76.4466C38.7509 76.8141 37.9905 78.1616 38.3584 79.4601L39.8548 84.7031C40.0511 85.4136 40.5417 85.9771 41.2041 86.2711L47.1161 88.9171V92.4941H40.7134C39.9284 92.4941 39.217 92.8616 38.7509 93.4986L34.507 99.2316C33.6975 100.31 33.9183 101.853 35.0222 102.662C35.4637 102.98 35.9789 103.152 36.4695 103.152H36.4941ZM52.0469 99.4031V87.1531H56.9531V106.312C54.1075 105.308 52.0469 102.613 52.0469 99.4031ZM61.8594 106.312V87.1531H66.7656V87.3981V99.4031C66.7656 102.588 64.705 105.283 61.8594 106.312ZM59.4062 77.3531C62.1047 77.3531 64.3125 79.5581 64.3125 82.2531H54.5C54.5 79.5581 56.7078 77.3531 59.4062 77.3531ZM98.6562 51.7996H20.1562C18.807 51.7996 17.7031 52.9021 17.7031 54.2496V127.75C17.7031 129.097 18.807 130.2 20.1562 130.2H98.6562C100.005 130.2 101.109 129.097 101.109 127.75V54.2496C101.109 52.9021 100.005 51.7996 98.6562 51.7996ZM96.2031 125.3H22.6094V56.6996H96.2031V125.3Z" fill="#F277C6"/>
</svg>
