<svg width="122" height="170" viewBox="0 0 122 170" fill="none" xmlns="http://www.w3.org/2000/svg">
<path d="M24.625 169.5H18.5625C13.7389 169.5 9.11281 167.587 5.702 164.184C2.29118 160.78 0.375 156.163 0.375 151.35V133.2C0.377405 127.207 1.86625 121.309 4.70867 116.031C7.5511 110.752 11.6587 106.258 16.6649 102.95C11.6587 99.6409 7.5511 95.1469 4.70867 89.8686C1.86625 84.5903 0.377405 78.6918 0.375 72.6996V60.5996C0.38463 50.9752 4.22008 41.7477 11.0396 34.9422C17.8592 28.1368 27.1057 24.3092 36.75 24.2996H73.125C74.7329 24.2996 76.2749 23.6622 77.4118 22.5276C78.5488 21.393 79.1875 19.8542 79.1875 18.2496C79.1875 13.4359 81.1037 8.81941 84.5145 5.41562C87.9253 2.01184 92.5514 0.0996094 97.375 0.0996094H103.438C108.261 0.0996094 112.887 2.01184 116.298 5.41562C119.709 8.81941 121.625 13.4359 121.625 18.2496V30.3496C121.622 37.2356 119.936 44.017 116.714 50.1062C113.492 56.1954 108.831 61.4087 103.134 65.2944C108.745 68.456 113.414 73.0482 116.663 78.6014C119.912 84.1545 121.624 90.4693 121.625 96.8996V109C121.615 118.624 117.78 127.851 110.96 134.657C104.141 141.462 94.8943 145.29 85.25 145.3H48.875C47.2671 145.3 45.7251 145.937 44.5882 147.072C43.4512 148.206 42.8125 149.745 42.8125 151.35C42.8125 156.163 40.8963 160.78 37.4855 164.184C34.0747 167.587 29.4486 169.5 24.625 169.5ZM36.75 109C30.3185 109 24.1504 111.549 19.6027 116.088C15.0549 120.626 12.5 126.781 12.5 133.2V151.35C12.5 152.954 13.1387 154.493 14.2757 155.628C15.4126 156.762 16.9546 157.4 18.5625 157.4H24.625C26.2329 157.4 27.7749 156.762 28.9118 155.628C30.0488 154.493 30.6875 152.954 30.6875 151.35C30.6875 146.536 32.6037 141.919 36.0145 138.516C39.4253 135.112 44.0514 133.2 48.875 133.2H85.25C91.6815 133.2 97.8496 130.65 102.397 126.112C106.945 121.573 109.5 115.418 109.5 109V96.8996C109.5 90.4814 106.945 84.326 102.397 79.7876C97.8496 75.2492 91.6815 72.6996 85.25 72.6996H42.8125C41.2046 72.6996 39.6626 72.0622 38.5257 70.9276C37.3887 69.793 36.75 68.2542 36.75 66.6496C36.75 65.045 37.3887 63.5062 38.5257 62.3716C39.6626 61.237 41.2046 60.5996 42.8125 60.5996H79.1875C87.2239 60.59 94.9284 57.3999 100.611 51.729C106.294 46.0581 109.49 38.3695 109.5 30.3496V18.2496C109.5 16.645 108.861 15.1062 107.724 13.9716C106.587 12.837 105.045 12.1996 103.438 12.1996H97.375C95.7671 12.1996 94.2251 12.837 93.0882 13.9716C91.9512 15.1062 91.3125 16.645 91.3125 18.2496C91.3125 23.0633 89.3963 27.6798 85.9855 31.0836C82.5747 34.4874 77.9486 36.3996 73.125 36.3996H36.75C30.3185 36.3996 24.1504 38.9492 19.6027 43.4876C15.0549 48.026 12.5 54.1814 12.5 60.5996V72.6996C12.5 79.1178 15.0549 85.2732 19.6027 89.8116C24.1504 94.35 30.3185 96.8996 36.75 96.8996H79.1875C80.7954 96.8996 82.3374 97.537 83.4743 98.6716C84.6113 99.8062 85.25 101.345 85.25 102.95C85.25 104.554 84.6113 106.093 83.4743 107.228C82.3374 108.362 80.7954 109 79.1875 109H36.75Z" fill="#F277C6"/>
</svg>
