<svg width="164" height="205" viewBox="0 0 164 170" fill="none" xmlns="http://www.w3.org/2000/svg">
<path d="M132.276 102.611C127.192 102.611 124.777 98.5425 122.837 95.2723C120.913 92.0317 119.801 90.5049 117.917 90.5049C116.032 90.5049 114.915 92.0317 112.997 95.2723C111.056 98.5425 108.642 102.611 103.557 102.611C98.4711 102.611 96.057 98.5425 94.1185 95.2723C93.287 93.8718 92.5015 92.5483 91.6159 91.6414C90.8352 90.8443 90.1103 90.5049 89.1919 90.5049C87.3027 90.5049 86.1907 92.0317 84.2719 95.2723C82.3335 98.5425 79.9194 102.611 74.8337 102.611C69.794 102.611 67.3029 98.4589 65.8137 95.9759C65.6727 95.743 65.5333 95.5069 65.3923 95.2707C63.4702 92.0301 62.3583 90.5049 60.4723 90.5049C60.2148 90.5025 59.9581 90.5323 59.708 90.5934C59.3741 90.6888 59.0247 90.717 58.6798 90.6763C58.335 90.6356 58.0016 90.5269 57.6991 90.3564C57.3966 90.1859 57.131 89.9571 56.9175 89.6832C56.7041 89.4094 56.5471 89.0958 56.4558 88.7608C56.3644 88.4258 56.3404 88.076 56.3852 87.7317C56.43 87.3874 56.5427 87.0554 56.7168 86.7549C56.8909 86.4545 57.1228 86.1916 57.3993 85.9814C57.6757 85.7713 57.9911 85.6181 58.3271 85.5307C59.0273 85.3472 59.7484 85.2551 60.4723 85.2569C65.5563 85.2569 67.972 89.3241 69.9105 92.5926L70.3188 93.2765C71.9801 96.0464 73.0789 97.3633 74.837 97.3633C76.7263 97.3633 77.8399 95.8365 79.757 92.5959C81.6971 89.3257 84.1096 85.2569 89.1952 85.2569C91.5289 85.2569 93.6068 86.1703 95.3698 87.9727C96.6966 89.329 97.6822 90.9903 98.6351 92.5959C100.557 95.8365 101.671 97.3633 103.555 97.3633C105.439 97.3633 106.558 95.8365 108.475 92.5942C110.412 89.3257 112.833 85.2569 117.917 85.2569C123.001 85.2569 125.416 89.3257 127.356 92.5942C129.28 95.8365 130.392 97.3633 132.276 97.3633C132.972 97.3633 133.64 97.6398 134.132 98.1319C134.624 98.624 134.9 99.2914 134.9 99.9873C134.9 100.683 134.624 101.351 134.132 101.843C133.64 102.335 132.972 102.611 132.276 102.611Z" fill="#F277C6"/>
<path d="M46.0825 102.611C40.9985 102.611 38.5844 98.5425 36.6443 95.2723C35.8473 93.9308 35.0962 92.6614 34.2548 91.7594C33.4135 90.8574 32.6739 90.5048 31.7178 90.5048C31.0218 90.5048 30.3544 90.2284 29.8623 89.7363C29.3702 89.2442 29.0938 88.5768 29.0938 87.8808C29.0938 87.1849 29.3702 86.5175 29.8623 86.0254C30.3544 85.5333 31.0218 85.2568 31.7178 85.2568C34.1368 85.2568 36.2819 86.2408 38.0924 88.1793C39.3208 89.4913 40.254 91.0723 41.1576 92.5942C43.0813 95.8365 44.1932 97.3633 46.0776 97.3633C47.962 97.3633 49.0804 95.8365 50.9976 92.5926C51.1845 92.2793 51.3699 91.9644 51.5585 91.6545C51.6676 91.4753 51.7981 91.3101 51.9472 91.1625C52.4041 90.6986 53.0171 90.4211 53.6672 90.384C54.3173 90.347 54.958 90.5529 55.4647 90.9619C55.9714 91.3708 56.3079 91.9536 56.4089 92.5968C56.5099 93.2401 56.3681 93.8979 56.0111 94.4425C55.8438 94.7213 55.6798 95.0006 55.5191 95.2805C53.5888 98.5408 51.1665 102.611 46.0825 102.611Z" fill="#F277C6"/>
<path d="M132.274 126.417C127.19 126.417 124.776 122.348 122.836 119.078C120.912 115.838 119.8 114.308 117.916 114.308C116.031 114.308 114.913 115.834 112.996 119.075C111.056 122.345 108.642 126.414 103.556 126.414C98.4703 126.414 96.0464 122.344 94.1062 119.078C92.1825 115.838 91.0706 114.311 89.1862 114.311C87.3019 114.311 86.1834 115.838 84.2662 119.078C82.3278 122.348 79.9137 126.417 74.828 126.417C69.7424 126.417 67.3168 122.344 65.3784 119.078C63.4546 115.838 62.3427 114.311 60.4584 114.311C58.574 114.311 57.4555 115.838 55.5384 119.078C53.5884 122.344 51.1678 126.417 46.0838 126.417C40.9998 126.417 38.589 122.344 36.6505 119.078C34.7268 115.838 33.6198 114.308 31.7256 114.308C31.0296 114.308 30.3622 114.031 29.8701 113.539C29.378 113.047 29.1016 112.379 29.1016 111.684C29.1016 110.988 29.378 110.32 29.8701 109.828C30.3622 109.336 31.0296 109.06 31.7256 109.06C36.8096 109.06 39.2236 113.128 41.1638 116.397C43.0858 119.639 44.1994 121.166 46.0838 121.166C47.9681 121.166 49.0866 119.639 51.0038 116.397C52.9537 113.132 55.3678 109.06 60.4534 109.06C65.5391 109.06 67.9515 113.128 69.8916 116.397C71.8137 119.639 72.9273 121.166 74.8116 121.166C76.696 121.166 77.8145 119.639 79.7316 116.397C81.6816 113.132 84.0957 109.06 89.1813 109.06C94.267 109.06 96.6794 113.128 98.6195 116.397C100.542 119.639 101.655 121.166 103.54 121.166C105.424 121.166 106.542 119.639 108.46 116.397C110.409 113.132 112.832 109.06 117.916 109.06C123 109.06 125.415 113.128 127.356 116.397C129.278 119.639 130.391 121.166 132.276 121.166C132.972 121.166 133.639 121.443 134.131 121.935C134.623 122.427 134.9 123.094 134.9 123.79C134.9 124.486 134.623 125.153 134.131 125.646C133.639 126.138 132.972 126.414 132.276 126.414L132.274 126.417Z" fill="#F277C6"/>
<path d="M132.274 150.224C127.19 150.224 124.776 146.155 122.836 142.885C120.912 139.644 119.8 138.117 117.916 138.117C116.031 138.117 114.913 139.644 112.996 142.885C111.044 146.155 108.63 150.224 103.544 150.224C98.4588 150.224 96.0464 146.155 94.1062 142.885C92.1825 139.644 91.0706 138.117 89.1862 138.117C87.3019 138.117 86.1834 139.644 84.2662 142.885C82.3163 146.155 79.9022 150.224 74.8166 150.224C69.7309 150.224 67.3168 146.155 65.3784 142.885C63.4546 139.644 62.3427 138.117 60.4584 138.117C58.574 138.117 57.4555 139.644 55.5384 142.885C53.5884 146.155 51.1678 150.224 46.0838 150.224C40.9998 150.224 38.584 146.155 36.6456 142.885C34.7218 139.644 33.6099 138.117 31.7256 138.117C31.0296 138.117 30.3622 137.841 29.8701 137.349C29.378 136.856 29.1016 136.189 29.1016 135.493C29.1016 134.797 29.378 134.13 29.8701 133.638C30.3622 133.146 31.0296 132.869 31.7256 132.869C36.8096 132.869 39.2236 136.938 41.1638 140.208C43.0858 143.449 44.1994 144.976 46.0838 144.976C47.9681 144.976 49.0866 143.449 51.0038 140.208C52.9439 136.938 55.358 132.869 60.4436 132.869C65.5292 132.869 67.9417 136.938 69.8818 140.208C71.8039 143.449 72.9174 144.976 74.8018 144.976C76.6862 144.976 77.8046 143.449 79.7218 140.208C81.6619 136.938 84.076 132.869 89.1616 132.869C94.2473 132.869 96.6597 136.938 98.5998 140.208C100.522 143.449 101.635 144.976 103.52 144.976C105.404 144.976 106.523 143.449 108.44 140.206C110.409 136.94 112.832 132.869 117.916 132.869C123 132.869 125.415 136.938 127.356 140.208C129.271 143.449 130.38 144.976 132.274 144.976C132.97 144.976 133.637 145.252 134.129 145.744C134.622 146.236 134.898 146.904 134.898 147.6C134.898 148.296 134.622 148.963 134.129 149.455C133.637 149.947 132.97 150.224 132.274 150.224Z" fill="#F277C6"/>
<path d="M36.1802 92.5946C35.6781 92.5942 35.1866 92.4496 34.7642 92.1782C34.3417 91.9068 34.006 91.5198 33.7969 91.0633C33.5878 90.6068 33.5141 90.0998 33.5845 89.6027C33.6549 89.1055 33.8665 88.639 34.1942 88.2585L70.8252 45.7447C73.4163 42.7419 76.7032 40.4193 80.3989 38.9797C84.0947 37.5402 88.0866 37.0275 92.0262 37.4864C95.9657 37.9454 99.7329 39.3621 102.999 41.6127C106.264 43.8633 108.929 46.8794 110.761 50.3974C112.995 54.7045 113.889 59.582 113.326 64.4014C112.763 69.2208 110.77 73.7612 107.604 77.4377L95.4678 91.5204C95.2435 91.7836 94.9694 91.9998 94.6613 92.1567C94.3531 92.3136 94.017 92.408 93.6722 92.4345C93.3274 92.4611 92.9808 92.4192 92.6523 92.3113C92.3237 92.2035 92.0198 92.0317 91.7578 91.806C91.4959 91.5802 91.2812 91.3049 91.126 90.9959C90.9708 90.6869 90.8782 90.3503 90.8535 90.0054C90.8289 89.6605 90.8726 89.3141 90.9823 88.9862C91.0919 88.6582 91.2653 88.3552 91.4925 88.0945L103.628 74.0118C105.26 72.1189 106.502 69.9233 107.284 67.5503C108.067 65.1774 108.374 62.6735 108.189 60.1817C108.004 57.6899 107.33 55.2589 106.206 53.0276C105.081 50.7963 103.528 48.8084 101.635 47.1773C99.7422 45.5462 97.5466 44.3039 95.1736 43.5214C92.8006 42.7388 90.2968 42.4313 87.805 42.6164C85.3131 42.8015 82.8822 43.4756 80.6509 44.6002C78.4196 45.7248 76.4316 47.2778 74.8006 49.1707L38.1695 91.6762C37.9242 91.9642 37.6193 92.1955 37.2758 92.3541C36.9323 92.5126 36.5585 92.5947 36.1802 92.5946Z" fill="#F277C6"/>
<path d="M108.429 54.232C107.926 54.2328 107.434 54.0892 107.01 53.8182C106.587 53.5473 106.25 53.1604 106.04 52.7037C105.831 52.2469 105.756 51.7394 105.826 51.2417C105.897 50.7439 106.108 50.2768 106.436 49.8958L116.514 38.201C116.97 37.6782 117.614 37.3569 118.305 37.3075C118.997 37.258 119.68 37.4844 120.206 37.9371C120.731 38.3898 121.056 39.032 121.109 39.7234C121.162 40.4148 120.939 41.0992 120.49 41.627L110.412 53.3218C110.166 53.6069 109.862 53.8357 109.519 53.9927C109.177 54.1498 108.805 54.2314 108.429 54.232Z" fill="#F277C6"/>
<path d="M96.2482 43.7359C95.746 43.7358 95.2543 43.5915 94.8316 43.3201C94.4089 43.0488 94.073 42.6619 93.8637 42.2053C93.6544 41.7487 93.5805 41.2417 93.6509 40.7444C93.7212 40.247 93.9328 39.7804 94.2606 39.3997L104.338 27.7049C104.794 27.1821 105.438 26.8608 106.13 26.8114C106.821 26.7619 107.504 26.9883 108.03 27.441C108.555 27.8937 108.88 28.5359 108.933 29.2273C108.986 29.9187 108.764 30.6031 108.314 31.1309L98.2359 42.8257C97.9895 43.1114 97.6844 43.3406 97.3414 43.4977C96.9984 43.6547 96.6255 43.736 96.2482 43.7359Z" fill="#F277C6"/>
<path d="M124.455 45.7756C122.416 45.7773 120.444 45.045 118.9 43.7125L102.518 29.5954C100.806 28.1188 99.7493 26.0223 99.582 23.7671C99.4147 21.5118 100.15 19.2824 101.626 17.5693L102.341 16.7378C103.819 15.0265 105.915 13.9713 108.17 13.8038C110.425 13.6362 112.654 14.3699 114.369 15.844L130.751 29.9611C132.462 31.4383 133.517 33.5344 133.683 35.7889C133.85 38.0433 133.114 40.2716 131.638 41.9839L130.922 42.8154C130.121 43.7461 129.129 44.4925 128.012 45.0034C126.896 45.5144 125.683 45.7778 124.455 45.7756ZM122.323 39.7372C122.649 40.0184 123.028 40.2325 123.437 40.3674C123.846 40.5023 124.278 40.5553 124.708 40.5233C125.137 40.4913 125.556 40.375 125.941 40.181C126.326 39.987 126.668 39.7192 126.949 39.3927L127.665 38.5613C128.232 37.9024 128.515 37.0452 128.451 36.1779C128.386 35.3107 127.98 34.5044 127.322 33.9365L110.94 19.8194C110.613 19.5381 110.235 19.324 109.826 19.1891C109.417 19.0542 108.985 19.0012 108.555 19.0332C108.126 19.0652 107.707 19.1815 107.322 19.3755C106.937 19.5695 106.594 19.8373 106.313 20.1638L105.595 20.992C105.314 21.3187 105.1 21.6976 104.965 22.1071C104.831 22.5166 104.778 22.9486 104.81 23.3784C104.843 23.8082 104.96 24.2274 105.154 24.6121C105.349 24.9967 105.617 25.3392 105.944 25.62L122.323 39.7372Z" fill="#F277C6"/>
<path d="M68.0476 97.2523C67.5664 97.2522 67.0945 97.1197 66.6835 96.8694C66.2726 96.6191 65.9383 96.2606 65.7174 95.8331C65.4965 95.4056 65.3973 94.9256 65.4308 94.4456C65.4644 93.9655 65.6292 93.5039 65.9074 93.1113L75.3768 79.7388C75.4748 79.6036 75.5846 79.4774 75.7048 79.3616L96.9871 58.9485L90.6813 53.5119L73.6367 77.5805C73.5396 77.7163 73.4297 77.8426 73.3087 77.9577L60.8037 89.9543H60.7939L55.6443 94.8923C55.1461 95.3706 54.4795 95.6332 53.789 95.6231C53.0985 95.6131 52.4398 95.3313 51.9558 94.8388C51.4717 94.3463 51.2013 93.6828 51.2031 92.9923C51.205 92.3017 51.479 91.6397 51.9658 91.1499L52.0068 91.1105L57.1531 86.1758L57.1629 86.1659L69.4974 74.335L88.0687 48.1245C88.2799 47.8258 88.5512 47.5747 88.8652 47.3871C89.1792 47.1995 89.529 47.0796 89.892 47.0351C90.2551 46.9906 90.6234 47.0225 90.9734 47.1288C91.3234 47.2351 91.6473 47.4133 91.9244 47.6522L102.602 56.8575C102.879 57.0961 103.103 57.3899 103.26 57.7201C103.416 58.0502 103.502 58.4095 103.512 58.7748C103.522 59.14 103.455 59.5033 103.316 59.8413C103.177 60.1794 102.969 60.4847 102.706 60.7377L79.5145 82.9843L70.1927 96.1437C69.9501 96.4867 69.6286 96.7665 69.2553 96.9594C68.882 97.1523 68.4678 97.2528 68.0476 97.2523Z" fill="#F277C6"/>
</svg>
