<svg width="162" height="143" viewBox="0 0 162 143" fill="none" xmlns="http://www.w3.org/2000/svg">
<path d="M152.142 46.3113C151.24 32.1333 150.28 10.7544 127.058 10.6854C122.186 10.609 117.376 11.7881 113.087 14.1099C108.932 9.77153 103.948 6.32007 98.4335 3.96233C92.9191 1.60459 86.9875 0.389101 80.9941 0.388672C75.0008 0.388243 69.069 1.60289 63.5542 3.95984C58.0394 6.31678 53.0551 9.76753 48.8998 14.1053C44.6127 11.7866 39.8057 10.6093 34.9371 10.6857C11.6308 10.7723 10.6588 33.7672 9.81943 47.5924C6.67742 48.7836 4.04924 51.0411 2.39016 53.9738C0.731089 56.9064 0.145633 60.3296 0.735218 63.6502C1.3248 66.9708 3.05229 69.9798 5.61842 72.1557C8.18454 74.3317 11.4277 75.5376 14.786 75.5646C33.3113 75.0124 34.0234 48.3235 15.6401 46.7387C16.6407 30.1323 18.8864 16.4683 34.9371 16.4683C53.5929 16.5177 66.8454 38.0801 66.6038 54.6802L66.6036 59.8377C66.6082 63.1687 67.756 66.3961 69.8536 68.9763C71.9511 71.5564 74.8702 73.3313 78.1188 74.002V91.3971C66.9906 95.5524 66.9812 122.544 78.1193 126.708L78.1188 136.448C59.4891 134.9 46.9893 113.592 55.0103 96.4642C56.9541 92.272 57.6559 87.6067 57.0322 83.0248C56.4086 78.443 54.4856 74.1381 51.4929 70.6236C46.641 64.9111 43.5256 57.9188 42.5174 50.4788C41.5091 43.0388 42.6505 35.4645 45.8058 28.6575C46.1304 27.9634 46.1673 27.1683 45.9084 26.4469C45.6495 25.7256 45.116 25.1369 44.4252 24.8104C38.4398 22.0469 36.2489 41.3088 36.3761 45.2073C36.3861 55.9097 40.1972 66.2575 47.1241 74.3902C49.4 77.0779 50.8577 80.3667 51.3233 83.8638C51.7889 87.3609 51.2427 90.9187 49.7498 94.1126C39.497 115.951 57.005 142.948 81.0374 142.411C105.316 142.888 122.565 116.083 112.208 94.0445C110.71 90.9038 110.147 87.3953 110.588 83.941C111.028 80.4866 112.453 77.2338 114.691 74.5737C120.357 68.0283 124.007 59.9704 125.197 51.3801C126.387 42.7898 125.067 34.0372 121.396 26.1867C121.069 25.494 120.481 24.9603 119.762 24.703C119.042 24.4457 118.251 24.4858 117.561 24.8146C116.872 25.1434 116.34 25.7338 116.084 26.4561C115.828 27.1784 115.868 27.9733 116.195 28.666C117.973 32.4189 119.121 36.4411 119.594 40.57C120.258 45.9751 119.778 51.4603 118.185 56.6661C116.591 61.8718 113.921 66.6807 110.348 70.7774C107.415 74.2863 105.539 78.5619 104.939 83.1033C104.339 87.6447 105.04 92.2637 106.96 96.4193C108.807 100.541 109.65 105.045 109.42 109.559C109.19 114.072 107.894 118.466 105.638 122.377C103.383 126.288 100.233 129.604 96.4485 132.05C92.6644 134.496 88.3549 136.002 83.8763 136.444V126.708C95.0223 122.491 95.01 95.5981 83.8758 91.3969L83.8763 74.0018C87.1249 73.3312 90.044 71.5562 92.1415 68.9761C94.2391 66.396 95.3869 63.1685 95.3914 59.8376V54.6805C95.1734 38.0508 108.362 16.5501 127.058 16.4677C143.075 16.4682 145.268 29.0054 146.316 45.4719C127.894 47.1304 128.775 73.7676 147.21 74.2942C150.571 74.2665 153.816 73.0581 156.382 70.8786C158.949 68.6992 160.674 65.6862 161.26 62.3624C161.846 59.0386 161.255 55.6137 159.589 52.6818C157.924 49.7499 155.289 47.4961 152.142 46.3113ZM23.4219 61.1082C23.3967 63.392 22.4756 65.5736 20.8587 67.1796C19.2418 68.7855 17.0595 69.6862 14.7854 69.6862C12.5114 69.6861 10.3291 68.7854 8.71227 67.1793C7.09542 65.5733 6.17445 63.3916 6.14926 61.1079C6.17454 58.8241 7.0956 56.6424 8.71251 55.0365C10.3294 53.4305 12.5117 52.5298 14.7858 52.5299C17.0598 52.5299 19.2421 53.4307 20.8589 55.0367C22.4758 56.6428 23.3968 58.8244 23.4219 61.1082ZM81.0193 121.514C73.6606 120.29 73.6938 97.8274 80.9979 96.5858C88.3141 97.8695 88.3117 120.195 81.0193 121.514ZM89.6339 54.6805V59.8375C89.636 60.9779 89.4141 62.1076 88.981 63.1618C88.5479 64.2159 87.9121 65.174 87.1099 65.9811C86.3078 66.7883 85.355 67.4286 84.3062 67.8655C83.2573 68.3024 82.133 68.5273 80.9975 68.5273C79.8621 68.5273 78.7378 68.3024 77.6889 67.8655C76.6401 67.4286 75.6873 66.7883 74.8852 65.9811C74.083 65.174 73.4472 64.2159 73.0141 63.1618C72.581 62.1076 72.3591 60.9779 72.3612 59.8375V54.6805C72.348 48.6624 71.1672 42.7046 68.8847 37.1403C76.6425 40.3563 85.3527 40.3562 93.1104 37.14C90.8279 42.7044 89.6471 48.6623 89.6339 54.6805ZM101.992 23.0978C89.6745 37.4887 72.3113 37.4797 60.0027 23.0973C54.0276 16.8194 51.362 18.3276 59.9605 12.3924C67.4802 7.50288 76.4585 5.39127 85.3579 6.41924C93.9803 7.35957 102.021 11.2409 108.138 17.4157C105.986 19.1935 103.934 21.0905 101.992 23.0978ZM147.209 68.5115C144.936 68.4862 142.763 67.5611 141.164 65.9372C139.565 64.3132 138.668 62.1215 138.668 59.8375C138.669 57.5536 139.565 55.3618 141.164 53.7379C142.764 52.1141 144.936 51.1891 147.21 51.1637C149.484 51.1891 151.656 52.1142 153.255 53.7381C154.854 55.362 155.751 57.5538 155.751 59.8377C155.751 62.1217 154.854 64.3134 153.255 65.9373C151.656 67.5612 149.483 68.4862 147.209 68.5115Z" fill="#F277C6"/>
</svg>
