<svg width="128" height="140" viewBox="0 0 128 140" fill="none" xmlns="http://www.w3.org/2000/svg">
<path d="M125.322 75.337C121.307 54.7767 110.404 38.2239 95.427 29.9378C90.771 27.3629 86.8522 26.6853 83.4766 27.8857C79.422 29.3183 76.5702 33.2871 75.2316 39.3468C74.2422 43.8189 73.99 48.3879 73.7378 52.802L73.7184 53.2279C73.5632 56.0932 73.408 58.9778 73.2722 61.8431C72.147 60.2943 71.5068 58.4164 71.5068 56.4804V7.67382C71.5068 3.78246 68.3252 0.607422 64.4258 0.607422H63.3588C59.4594 0.607422 56.2778 3.78246 56.2778 7.67382V56.4804C56.2778 58.3389 55.6764 60.1394 54.6288 61.6689C54.493 59.0359 54.3572 56.4029 54.202 53.77C53.9498 49.3559 53.6976 44.8063 52.7082 40.3148C51.3696 34.2551 48.5372 30.2863 44.4632 28.8537C41.0876 27.6533 37.1688 28.3309 32.5128 30.9058C17.536 39.1919 6.6526 55.7447 2.6174 76.305C-0.932797 94.4453 0.871404 112.915 2.6368 130.784C2.792 132.43 3.0442 134.946 4.7708 136.786C6.4004 138.547 8.6314 139.012 10.5908 139.012C12.0846 139.012 13.4232 138.741 14.1992 138.586C22.5412 136.902 30.8638 134.288 39.652 130.61C52.747 125.112 54.2408 116.574 55.0168 104.145C55.4436 97.4655 55.5794 90.341 55.4242 82.326L60.9532 74.6788C61.574 73.8269 62.5246 73.3236 63.5916 73.3236H63.611C64.6586 73.3236 65.6092 73.8076 66.23 74.6401L72.4768 83.1004C72.3798 90.3991 72.5156 96.9815 72.9036 103.177C73.6796 115.586 75.1734 124.144 88.2684 129.642C97.0566 133.32 105.379 135.934 113.721 137.618C114.497 137.773 115.816 138.044 117.31 138.044C119.27 138.044 121.501 137.579 123.13 135.818C124.837 133.959 125.09 131.462 125.245 129.816C127.068 111.947 128.873 93.4773 125.322 75.337ZM67.2582 25.3882H60.5652V18.7477H67.2582V25.3882ZM60.5652 29.6474H67.2582V36.2879H60.5652V29.6474ZM63.3782 4.86662H64.4452C65.9972 4.86662 67.2582 6.12502 67.2582 7.67382V14.4885H60.5652V7.67382C60.5652 6.12502 61.8262 4.86662 63.3782 4.86662ZM120.492 129.332C120.395 130.397 120.24 131.868 119.638 132.526C118.94 133.281 117.33 133.398 114.749 132.875C106.718 131.249 98.6862 128.732 90.2084 125.17C79.9264 120.852 78.5878 115.354 77.7924 102.867C77.5402 98.6852 77.385 94.3098 77.3462 89.6441L91.159 108.346L90.6352 117C90.5576 118.181 91.45 119.187 92.6334 119.245C92.6722 119.245 92.711 119.245 92.7692 119.245C93.8944 119.245 94.8256 118.374 94.9032 117.251L95.4658 107.823C95.5046 107.32 95.3494 106.836 95.0584 106.429L69.7026 72.1233C68.267 70.1873 66.0554 69.0644 63.6498 69.0644C63.6304 69.0644 63.6304 69.0644 63.611 69.0644C61.186 69.0837 58.955 70.2066 57.5388 72.1813L32.765 106.449C32.474 106.855 32.3382 107.339 32.3576 107.823L32.9202 117.251C32.9978 118.432 34.0066 119.323 35.1706 119.245C36.354 119.168 37.2464 118.161 37.1688 117L36.645 108.326L50.6518 88.9471C50.6324 94.2324 50.4966 99.1498 50.2056 103.816C49.4102 116.303 48.0716 121.801 37.7896 126.118C29.3118 129.681 21.2802 132.197 13.2486 133.824C10.649 134.346 9.0582 134.23 8.3598 133.475C7.7584 132.817 7.6032 131.345 7.5062 130.281C5.7796 112.76 4.0142 94.6389 7.4286 77.1956C11.1728 58.0485 21.1832 42.6961 34.9184 35.1069C38.294 33.2484 40.8936 32.6676 42.8918 33.3839C46.0734 34.5068 47.4702 38.8434 48.0134 41.3215C48.9252 45.4258 49.158 49.8012 49.3908 54.0023C49.643 58.4357 49.8952 62.8692 50.0892 67.3026L39.7684 79.8866L28.5746 76.0727C27.4494 75.6855 26.2466 76.2857 25.8586 77.4085C25.4706 78.5121 26.072 79.7317 27.1972 80.1189L39.7878 84.3975C40.622 84.6879 41.5532 84.4169 42.1352 83.7393L57.5194 64.9794C59.4788 62.5788 60.5652 59.5586 60.5652 56.4804V40.5471H67.2582V56.4804C67.2582 59.578 68.3446 62.5981 70.304 64.9794L85.6882 83.7393C86.0956 84.2426 86.7164 84.5137 87.3372 84.5137C87.57 84.5137 87.8028 84.4749 88.0162 84.3975L100.607 80.1189C101.732 79.7317 102.314 78.5314 101.945 77.4085C101.557 76.2857 100.355 75.7049 99.2294 76.0727L88.0356 79.8866L77.8506 67.4575C78.064 62.7917 78.3162 58.126 78.5878 53.4796L78.6072 53.0537C78.84 48.8332 79.0922 44.4578 79.9846 40.3729C80.5278 37.8948 81.9246 33.5581 85.1062 32.4353C87.1044 31.7383 89.704 32.2997 93.0796 34.1583C106.795 41.7474 116.806 57.0999 120.569 76.2469C123.984 93.7097 122.199 111.831 120.492 129.332ZM39.7684 89.5666C39.749 90.7282 38.7984 91.6575 37.6344 91.6575C37.6344 91.6575 37.615 91.6575 37.5956 91.6575L30.4758 91.5607C30.437 91.6962 30.437 91.8124 30.3594 91.9479L25.781 100.795C25.393 101.531 24.6558 101.957 23.8798 101.957C23.55 101.957 23.2202 101.88 22.9098 101.725C21.8622 101.183 21.4548 99.9049 21.998 98.8594L25.8004 91.522L17.2838 91.4058C16.1004 91.3865 15.1692 90.4185 15.1886 89.2375C15.208 88.0759 16.1586 87.1466 17.3226 87.1466C17.3226 87.1466 17.342 87.1466 17.3614 87.1466L37.6732 87.437C38.8372 87.4177 39.7684 88.3857 39.7684 89.5666ZM112.654 89.2181C112.674 90.3991 111.723 91.3671 110.559 91.3865L102.023 91.4833L105.825 98.8401C106.369 99.8855 105.961 101.163 104.914 101.705C104.603 101.86 104.273 101.938 103.944 101.938C103.168 101.938 102.43 101.512 102.042 100.776L97.464 91.9285C97.4058 91.8124 97.3864 91.6769 97.3476 91.5413L90.2278 91.6381C90.2084 91.6381 90.2084 91.6381 90.189 91.6381C89.025 91.6381 88.0744 90.7089 88.055 89.5473C88.0356 88.3663 88.9862 87.3983 90.1502 87.3789L110.462 87.0885C110.481 87.0885 110.481 87.0885 110.501 87.0885C111.684 87.1079 112.635 88.0372 112.654 89.2181ZM27.7986 45.7549C30.3012 45.7549 30.3012 49.6269 27.7986 49.6269C25.296 49.6269 25.3154 45.7549 27.7986 45.7549ZM31.8532 41.4957C34.3558 41.4957 34.3558 45.3677 31.8532 45.3677C29.3506 45.3677 29.3506 41.4957 31.8532 41.4957ZM114.749 119.129C112.247 119.129 112.247 115.257 114.749 115.257C117.252 115.257 117.252 119.129 114.749 119.129Z" fill="#F277C6"/>
</svg>
