<svg width="182" height="159" viewBox="0 0 182 159" fill="none" xmlns="http://www.w3.org/2000/svg">
<path d="M18.7635 102.289C18.703 102.228 18.703 102.228 18.6425 102.167C18.461 101.986 18.219 101.804 18.0375 101.622C17.7955 101.38 17.614 101.198 17.4325 100.955C5.99798 89.4414 0.310978 74.352 0.250478 59.2626C0.189978 44.1126 5.87698 28.9626 17.3115 17.5092C27.3545 7.44957 40.1805 1.87438 53.43 0.662376C66.377 -0.549624 79.687 2.54098 91.0005 9.81298C100.68 3.57118 111.812 0.419975 123.005 0.359375C138.13 0.359375 153.194 6.05577 164.689 17.5092C176.124 28.9626 181.811 44.1126 181.75 59.2626C181.69 74.2914 176.003 89.3202 164.689 100.834C164.508 101.077 164.266 101.319 163.963 101.622C161.12 104.47 157.187 105.743 153.134 105.44C151.984 105.379 150.835 105.137 149.746 104.834C150.048 105.985 150.29 107.137 150.351 108.288C150.653 112.288 149.383 116.227 146.479 119.135C143.635 121.984 139.703 123.256 135.71 122.953C134.56 122.893 133.35 122.65 132.261 122.347C132.564 123.499 132.745 124.65 132.866 125.801C133.169 129.801 131.898 133.74 128.994 136.649C126.151 139.497 122.218 140.77 118.225 140.467C117.076 140.406 115.926 140.164 114.777 139.861C115.079 141.012 115.321 142.163 115.382 143.315C115.684 147.314 114.414 151.253 111.51 154.162C108.666 157.01 104.734 158.283 100.741 157.98C97.353 157.738 93.9045 156.404 91.0005 154.041C88.0965 156.404 84.648 157.738 81.26 157.98C77.267 158.283 73.3345 157.01 70.491 154.102C67.587 151.253 66.3165 147.314 66.619 143.315C66.6795 142.163 66.9215 140.951 67.224 139.861C66.135 140.164 64.925 140.406 63.7755 140.467C59.7825 140.77 55.85 139.497 53.0065 136.588C50.1025 133.74 48.832 129.801 49.1345 125.801C49.2555 124.65 49.437 123.499 49.7395 122.347C48.6505 122.65 47.4405 122.893 46.291 122.953C42.298 123.256 38.3655 121.984 35.522 119.075C32.618 116.227 31.3475 112.288 31.65 108.288C31.771 107.137 31.9525 105.985 32.255 104.834C31.166 105.137 30.0165 105.379 28.867 105.44C25.116 105.682 21.5465 104.652 18.7635 102.289ZM81.4415 125.62C82.591 125.317 83.7405 125.074 84.89 125.014C88.883 124.711 92.8155 125.983 95.7195 128.831C98.563 131.74 99.8335 135.679 99.531 139.679C99.289 143.618 97.5345 147.617 94.3885 150.769L94.2675 150.89L94.1465 150.95C96.264 152.587 98.684 153.496 101.043 153.677C103.826 153.859 106.549 153.011 108.485 151.072C110.421 149.132 111.268 146.405 111.086 143.618C110.844 140.709 109.513 137.679 107.154 135.316L71.8825 99.9252C71.0355 99.0768 71.0355 97.7436 71.8825 96.8952C72.7295 96.0468 74.0605 96.0468 74.9075 96.8952L110.179 132.225C112.599 134.588 115.624 135.922 118.528 136.164C121.311 136.346 124.033 135.497 125.969 133.558C127.905 131.619 128.752 128.892 128.51 126.104C128.329 123.196 126.998 120.166 124.638 117.802L89.3065 82.4724C88.52 81.5634 88.52 80.2302 89.3065 79.3818C90.214 78.5334 91.545 78.5334 92.392 79.3818L127.663 114.712C130.083 117.075 133.048 118.408 136.012 118.651C138.795 118.832 141.518 117.984 143.454 116.045C145.39 114.106 146.237 111.379 145.995 108.591C145.813 105.682 144.482 102.652 142.123 100.289L106.851 64.8984C105.944 64.1106 105.944 62.7168 106.851 61.8684C107.638 61.02 109.029 61.02 109.876 61.8684L145.148 97.1982C147.568 99.6222 150.532 100.895 153.497 101.137C156.28 101.319 159.002 100.471 160.938 98.5314C160.999 98.4708 161.059 98.4102 161.12 98.3496C161.18 98.2284 161.241 98.1072 161.362 98.0466L161.483 97.9254C162.995 96.0468 163.661 93.5622 163.479 91.0776C163.298 88.1688 161.967 85.1388 159.607 82.7754L124.275 47.4456L108.485 31.5684L85.6765 54.4146C82.5305 57.5658 78.5375 59.3232 74.605 59.5656C70.612 59.8686 66.6795 58.596 63.7755 55.7478C60.932 52.839 59.6615 48.9606 59.964 44.9004C60.2665 40.9614 61.9605 36.9618 65.167 33.8106C65.2275 33.75 65.288 33.6894 65.3485 33.6288C65.409 33.5682 65.4695 33.447 65.53 33.3864L81.1995 17.7516C83.075 15.8124 85.0715 14.1156 87.1285 12.54C76.9645 6.41938 65.2275 3.87418 53.793 4.96498C41.572 6.05578 29.714 11.2674 20.397 20.5998C9.80948 31.2048 4.54598 45.2034 4.54598 59.2626C4.60648 70.11 7.81298 81.018 14.226 90.2898C14.589 86.5326 16.3435 82.7148 19.3685 79.6848C19.3685 79.6242 19.429 79.6242 19.4895 79.5636L21.365 77.685V77.6244C24.511 74.4732 28.504 72.7158 32.4365 72.4734C36.49 72.1704 40.4225 73.443 43.266 76.2912C46.1095 79.2 47.38 83.139 47.0775 87.1386C47.017 88.29 46.8355 89.4414 46.4725 90.5928C47.622 90.2898 48.7715 90.0474 49.921 89.9868C53.914 89.6838 57.8465 90.9564 60.7505 93.8046C63.594 96.7134 64.8645 100.652 64.562 104.652C64.5015 105.803 64.2595 106.955 63.957 108.106C65.1065 107.803 66.256 107.561 67.4055 107.5C71.3985 107.197 75.331 108.47 78.235 111.318C81.0785 114.227 82.349 118.166 82.0465 122.165C81.986 123.317 81.8045 124.468 81.4415 125.62ZM89.4275 149.617L91.182 147.799L91.303 147.678C93.723 145.315 94.9935 142.285 95.2355 139.376C95.417 136.588 94.57 133.861 92.634 131.922C90.698 129.983 87.9755 129.134 85.1925 129.316C82.2885 129.559 79.2635 130.831 76.904 133.255L74.847 135.255C72.4875 137.679 71.1565 140.709 70.9145 143.618C70.733 146.405 71.58 149.132 73.516 151.072C75.452 153.011 78.1745 153.859 80.9575 153.617C83.8615 153.435 86.8865 152.102 89.3065 149.738L89.4275 149.617ZM56.3945 112.651L56.576 112.469C58.8145 110.106 60.085 107.197 60.2665 104.349C60.448 101.561 59.601 98.8344 57.665 96.8952C55.729 94.956 53.0065 94.1076 50.2235 94.2894C47.3195 94.5318 44.2945 95.8044 41.935 98.2284L39.878 100.228C37.5185 102.652 36.1875 105.682 36.006 108.591C35.764 111.379 36.611 114.106 38.547 116.045C40.483 117.984 43.2055 118.832 45.9885 118.651C48.953 118.408 51.9175 117.075 54.3375 114.712L56.334 112.651H56.3945ZM73.8185 130.165C76.2385 127.801 77.509 124.771 77.751 121.862C77.9325 119.075 77.0855 116.348 75.1495 114.409C73.2135 112.469 70.491 111.621 67.708 111.803C64.804 112.045 61.779 113.378 59.4195 115.742L57.3625 117.742C55.003 120.166 53.672 123.196 53.4905 126.104C53.2485 128.892 54.0955 131.619 56.0315 133.558C57.9675 135.497 60.69 136.346 63.473 136.164C66.4375 135.922 69.402 134.588 71.822 132.225L73.8185 130.165ZM38.91 95.1378C38.9705 95.0772 39.031 95.0166 39.0915 94.956C41.33 92.5926 42.6005 89.6838 42.782 86.8356C42.9635 84.048 42.1165 81.321 40.1805 79.3818C38.2445 77.4426 35.522 76.5942 32.739 76.776C29.835 77.0184 26.81 78.3516 24.4505 80.715L22.5145 82.5936C22.5145 82.6542 22.454 82.7148 22.3935 82.7148C20.034 85.1388 18.703 88.1688 18.5215 91.0776C18.34 93.6228 19.0055 96.1074 20.639 98.0466L21.607 99.0162C23.4825 100.592 25.963 101.319 28.504 101.137C31.4685 100.895 34.433 99.5616 36.853 97.1982L38.8495 95.1378H38.91ZM68.3735 36.6588C68.313 36.7194 68.2525 36.8406 68.192 36.9012C65.8325 39.2646 64.5015 42.2946 64.2595 45.2034C64.078 47.991 64.925 50.718 66.861 52.6572C68.797 54.5964 71.5195 55.4448 74.3025 55.263C77.2065 55.0206 80.2315 53.748 82.6515 51.324L106.972 26.9628C107.819 26.1144 109.15 26.1144 109.997 26.9628L127.361 44.355L162.632 79.6848C165.657 82.7148 167.412 86.5326 167.775 90.2898C174.188 81.018 177.394 70.11 177.455 59.2626C177.455 45.2034 172.191 31.2048 161.604 20.5998C151.016 9.93418 136.98 4.66198 123.005 4.72258C108.969 4.72258 94.933 10.116 84.285 20.7816L68.6155 36.477C68.555 36.5376 68.4945 36.5982 68.3735 36.6588Z" fill="#F277C6"/>
</svg>
