<svg width="130" height="149" viewBox="0 0 130 149" fill="none" xmlns="http://www.w3.org/2000/svg">
<path d="M86.6417 110.339C86.197 110.339 85.7454 110.213 85.3484 109.947C84.2842 109.236 84.0005 107.804 84.7153 106.747C91.9491 96.0576 86.9821 83.9292 84.3137 77.4135C83.1496 74.5717 82.2465 72.2016 81.5704 69.7392C73.8737 41.6622 82.6164 33.8675 83.6398 33.0714C84.6472 32.2867 86.1062 32.4601 86.9027 33.4621C87.6832 34.4496 87.5221 35.8727 86.551 36.6654C86.3331 36.8646 79.2423 43.6776 86.054 68.5277C86.669 70.7672 87.5176 72.9898 88.6022 75.6368C91.3977 82.4655 97.1861 96.5924 88.5727 109.319C88.1234 109.981 87.3905 110.339 86.6417 110.339Z" fill="#F277C6"/>
<path d="M106.312 60.8905C102.766 60.8916 99.269 60.1181 96.2556 58.5429C92.675 56.6716 90.4423 54.0922 89.6163 50.8765C88.7995 47.6969 89.6027 44.6266 90.4491 42.5684C82.4574 38.9857 80.7034 31.656 80.978 26.7864C72.9137 23.7149 72.5302 18.0008 73.0816 14.7255C73.6262 11.5122 75.4256 8.4688 78.1552 6.15504C89.9385 -3.8375 105.114 1.3012 114.531 8.73902C120.337 13.3238 124.694 19.1921 127.471 26.1784C134.376 43.5299 125.524 52.8784 119.632 56.907C115.781 59.5394 111.005 60.8905 106.312 60.8905ZM85.7907 25.6424C85.5865 26.7064 84.1161 36.0336 94.3587 39.1028C95.0621 39.3145 95.6248 39.8437 95.8744 40.5305C96.1218 41.2173 96.0287 41.9807 95.6203 42.5887C95.6021 42.6168 93.2196 46.2907 94.125 49.7619C94.6174 51.6489 96.0628 53.2308 98.4203 54.4626C103.868 57.3112 111.681 56.7415 116.995 53.1081C125.445 47.3322 127.514 38.8416 123.151 27.8718C120.673 21.6466 116.8 16.4234 111.635 12.3476C109.852 10.9391 93.855 -1.09588 81.1731 9.66115C79.2739 11.2723 78.0282 13.3418 77.6651 15.4878C77.4405 16.813 76.762 20.8494 84.1592 22.9853C85.3142 23.3185 86.0221 24.4715 85.7907 25.6424Z" fill="#F277C6"/>
<path d="M43.3556 110.34C42.6068 110.34 41.8739 109.982 41.4246 109.32C32.8135 96.5962 38.5996 82.4704 41.3815 75.6822C42.482 72.9902 43.3306 70.7676 43.9433 68.5304C50.8276 43.4247 43.5167 36.7288 43.4441 36.6635C42.4933 35.8416 42.3549 34.3993 43.1582 33.4366C43.9637 32.4717 45.3682 32.3051 46.3575 33.073C47.3809 33.869 56.1259 41.6637 48.4269 69.7408C47.7553 72.1998 46.8522 74.571 45.7041 77.3745C43.0174 83.9341 38.0482 96.0614 45.282 106.749C45.9968 107.806 45.7131 109.238 44.6489 109.948C44.2518 110.213 43.8003 110.34 43.3556 110.34Z" fill="#F277C6"/>
<path d="M86.6417 110.339C86.197 110.339 85.7454 110.213 85.3484 109.947C84.2842 109.236 84.0005 107.804 84.7153 106.747C91.9491 96.0576 86.9821 83.9292 84.3137 77.4135C83.1496 74.5717 82.2465 72.2016 81.5704 69.7392C73.8737 41.6622 82.6164 33.8675 83.6398 33.0714C84.6472 32.2867 86.1062 32.4601 86.9027 33.4621C87.6832 34.4496 87.5221 35.8727 86.551 36.6654C86.3331 36.8646 79.2423 43.6776 86.054 68.5277C86.669 70.7672 87.5176 72.9898 88.6022 75.6368C91.3977 82.4655 97.1861 96.5924 88.5727 109.319C88.1234 109.981 87.3905 110.339 86.6417 110.339Z" fill="#F277C6"/>
<path d="M43.3556 110.34C42.6068 110.34 41.8739 109.982 41.4246 109.32C32.8135 96.5962 38.5996 82.4704 41.3815 75.6822C42.482 72.9902 43.3306 70.7676 43.9433 68.5304C50.8276 43.4247 43.5167 36.7288 43.4441 36.6635C42.4933 35.8416 42.3549 34.3993 43.1582 33.4366C43.9637 32.4717 45.3682 32.3051 46.3575 33.073C47.3809 33.869 56.1259 41.6637 48.4269 69.7408C47.7553 72.1998 46.8522 74.571 45.7041 77.3745C43.0174 83.9341 38.0482 96.0614 45.282 106.749C45.9968 107.806 45.7131 109.238 44.6489 109.948C44.2518 110.213 43.8003 110.34 43.3556 110.34Z" fill="#F277C6"/>
<path d="M23.6849 60.89C18.9925 60.89 14.2183 59.5389 10.3655 56.9065C4.47494 52.8768 -4.3767 43.5283 2.52581 26.1779C5.30315 19.1938 9.6575 13.3267 15.4663 8.73853C24.8875 1.30071 40.0653 -3.83686 51.8418 6.15455C54.5738 8.47169 56.3754 11.515 56.9155 14.7262C57.4668 18.0003 57.0834 23.7144 49.0214 26.7859C49.2982 31.6544 47.5419 38.9852 39.5503 42.5679C40.3966 44.6261 41.1999 47.6965 40.383 50.8761C39.5571 54.0917 37.3243 56.6712 33.7437 58.5424C30.7304 60.1176 27.2315 60.89 23.6849 60.89ZM36.8501 5.2313C27.7397 5.2313 19.6028 11.3664 18.3617 12.3471C13.1973 16.4252 9.32168 21.6483 6.84612 27.8713C2.48497 38.84 4.55436 47.3317 13.0021 53.1088C18.3186 56.741 26.1287 57.3096 31.579 54.4621C33.9456 53.2247 35.3933 51.6349 35.8789 49.7378C36.7661 46.2834 34.4017 42.6242 34.379 42.5882C33.9706 41.9802 33.8776 41.2168 34.1249 40.53C34.3745 39.8432 34.9372 39.314 35.6406 39.1023C46.1555 35.952 44.2949 26.0687 44.2109 25.6498C43.9749 24.4766 44.6829 23.3181 45.8401 22.9848C53.235 20.8489 52.5566 16.8125 52.3319 15.4862C51.9712 13.3424 50.7254 11.2741 48.824 9.66066C44.9756 6.39662 40.8187 5.2313 36.8501 5.2313Z" fill="#F277C6"/>
<path d="M65.6272 148.194C61.468 148.194 58.0825 144.835 58.0825 140.706V140.321C58.0825 138.987 57.1817 137.794 55.7862 137.283C46.1086 133.732 39.6055 124.756 39.6055 114.947C39.6055 102.805 49.097 95.5566 64.9964 95.5566C80.8958 95.5566 90.3896 102.805 90.3896 114.947C90.3896 124.167 84.6919 132.661 75.8743 136.586C74.2088 137.327 73.1741 138.798 73.1741 140.423V140.706C73.1741 144.835 69.7887 148.194 65.6272 148.194ZM64.9964 100.168C58.7587 100.168 44.2525 101.608 44.2525 114.947C44.2525 122.834 49.5349 130.073 57.3973 132.957C60.6375 134.145 62.7296 137.035 62.7296 140.321V140.706C62.7296 142.292 64.0298 143.583 65.6272 143.583C67.2269 143.583 68.5271 142.292 68.5271 140.706V140.423C68.5271 136.956 70.6146 133.872 73.9728 132.378C81.1227 129.196 85.7425 122.354 85.7425 114.947C85.7425 101.608 71.2341 100.168 64.9964 100.168Z" fill="#F277C6"/>
<path d="M64.7045 38.9719C61.707 38.9719 58.7073 38.1421 56.0616 36.4757L48.8437 31.927C47.7613 31.2447 47.4391 29.8193 48.1289 28.744C48.8164 27.6699 50.255 27.3513 51.3351 28.0336L58.553 32.5823C62.44 35.0334 67.4024 34.9445 71.1963 32.3594L78.5186 27.376C79.5783 26.6543 81.0236 26.9223 81.7498 27.9739C82.4736 29.0244 82.2058 30.4588 81.1462 31.1794L73.8239 36.1627C71.076 38.0329 67.8925 38.9719 64.7045 38.9719Z" fill="#F277C6"/>
</svg>
