<svg width="150" height="131" viewBox="0 0 150 131" fill="none" xmlns="http://www.w3.org/2000/svg">
<path d="M29.2963 18.5298C28.6569 17.4208 29.0402 16.0019 30.1549 15.3659C31.2696 14.7298 32.6958 15.1111 33.3351 16.2201L46.1481 38.3014C46.2163 36.4958 46.384 34.6884 46.6493 32.8755C47.4103 27.675 48.9875 22.4471 51.3699 17.1934C51.8987 16.0239 53.2842 15.5033 54.4598 16.0294C55.6353 16.5555 56.1586 17.934 55.6298 19.1035C53.428 23.9575 51.9724 28.7749 51.274 33.5409C50.5978 38.1548 50.6236 42.7302 51.3496 47.2652L61.2108 64.2598C61.7654 55.8752 64.485 45.8776 69.3696 34.2723C69.8634 33.0881 71.2324 32.5254 72.4227 33.0166C73.6129 33.5079 74.1786 34.8699 73.6848 36.0541C67.1696 51.5308 64.6748 63.7978 66.1949 72.8459L71.155 81.3918C75.402 82.18 79.5993 82.9719 83.8408 83.8591C80.9002 76.1693 78.9655 68.5877 78.0387 61.1197C76.9424 52.286 77.2446 43.5972 78.9489 35.0587L79.3285 33.4236L79.8425 31.6547C80.34 29.9866 80.2737 28.2323 79.7154 26.6467C79.1461 25.0281 78.059 23.5781 76.5426 22.5699C74.9193 21.4884 73.0178 21.0521 71.1808 21.2317C69.3456 21.4114 67.5676 22.2106 66.1894 23.5854C65.281 24.4928 63.8014 24.4983 62.8894 23.5946C62.2869 22.997 62.0805 22.1538 62.2703 21.3875C62.7696 19.1439 62.4803 16.8598 61.5572 14.8746C60.6267 12.8765 59.0495 11.1718 56.9877 10.1012C54.9278 9.03255 52.6173 8.72093 50.4283 9.10588C48.2541 9.48899 46.1997 10.5705 44.6317 12.2808C43.7639 13.2303 42.2862 13.3 41.3317 12.4366C41.059 12.1891 40.8582 11.894 40.7311 11.5732C39.8466 9.75479 38.4795 8.24433 36.8267 7.1683C35.1353 6.06662 33.1435 5.42137 31.0614 5.36455C28.9665 5.30589 26.9397 5.83565 25.1948 6.83652C23.4555 7.83371 21.9851 9.31301 20.9902 11.1461C19.9933 12.9829 19.5567 15.0231 19.6691 17.0248C19.7814 19.021 20.4466 20.9953 21.6424 22.7055C22.3776 23.7596 22.1159 25.2114 21.0565 25.9428C20.7912 26.1261 20.4982 26.2471 20.1997 26.3094C17.926 26.808 15.9619 28.0361 14.5468 29.7116C13.1281 31.3925 12.2455 33.5354 12.1478 35.8506C12.0502 38.1713 12.7448 40.3875 14.018 42.1857C15.293 43.9858 17.1485 45.379 19.3687 46.0645C20.5995 46.4403 21.2905 47.74 20.9128 48.9645C20.6677 49.7564 20.0357 50.3246 19.284 50.5244C17.399 51.0285 15.8163 52.1651 14.7421 53.6554C13.6679 55.1475 13.0967 57.0026 13.2257 58.9401L13.2276 58.9768C13.3528 60.7732 14.0677 62.4212 15.1843 63.7135C16.3212 65.0205 17.8689 65.9719 19.6304 66.355C20.7783 66.6538 21.7419 66.9049 22.8806 67.2569C27.3708 68.7746 31.7026 70.6756 35.8649 72.9504C39.6145 74.9998 43.2295 77.3571 46.7027 80.0188C47.1947 79.819 47.6922 79.6393 48.1989 79.4835C50.8595 78.666 53.7117 78.4753 56.6542 78.9391C59.5728 79.401 62.4085 79.8666 65.1631 80.3377L62.1597 75.1611C58.7031 72.3308 54.0858 69.9258 48.3131 67.9553C42.2272 65.8802 34.9197 64.2982 26.4017 63.2167C25.1248 63.0572 24.222 61.8951 24.3823 60.6247C24.5426 59.3544 25.7107 58.4562 26.9876 58.6157C35.8778 59.743 43.4985 61.3928 49.8313 63.5522C52.4901 64.4596 54.9352 65.4604 57.1665 66.5566L47.3181 49.5841C43.7215 46.6768 39.7508 44.3653 35.4135 42.6495C30.9177 40.8714 25.9982 39.7147 20.6659 39.1868C19.3853 39.0622 18.4475 37.9238 18.5727 36.6498C18.698 35.3758 19.8422 34.4428 21.1228 34.5674C26.8844 35.1375 32.2241 36.3969 37.1307 38.3381C38.8461 39.0163 40.5081 39.7789 42.1166 40.6221L29.2963 18.5298ZM117.666 49.2083C117.049 48.6712 116.555 47.9746 116.258 47.1827C116.179 47.0049 116.124 46.8161 116.091 46.6218C115.835 46.5741 115.556 46.5448 115.245 46.5393C114.023 46.5173 112.286 46.7868 109.59 47.4559L109.487 47.4797C107.788 47.8958 106.132 48.1671 104.429 48.1323C106.266 49.0433 108.378 49.3751 110.882 49.3201L111.024 49.3164C112.31 49.2816 113.384 50.2916 113.419 51.5711C113.454 52.8176 112.49 53.8643 111.252 53.9486C110.231 54.0275 109.371 54.6617 108.581 55.6149C109.955 55.3546 111.249 55.0375 112.45 54.6654C114.762 53.9468 116.708 53.0211 118.21 51.8846C119.328 51.0359 120.806 51.3512 121.591 52.4767C122.615 54.0586 124.126 55.5911 126.051 57.0521C127.045 57.8073 128.148 58.5424 129.353 59.2554C128.939 58.0896 128.351 57.2005 127.42 56.7863C126.245 56.2657 125.718 54.8909 126.241 53.7213C126.763 52.5573 128.134 52.0331 129.305 52.5408C131.653 53.4574 133.766 53.8717 135.821 53.6389C134.177 53.0798 132.692 52.242 131.216 51.2522C129.033 49.7857 127.529 48.9498 126.381 48.53C125.93 48.3651 125.539 48.2716 125.18 48.2294L125.079 48.3797L124.986 48.4989C124.391 49.2633 123.695 49.7399 122.809 50.112C121.915 50.4548 121.056 50.5226 120.115 50.3796C119.194 50.2183 118.346 49.8004 117.666 49.2083ZM116.513 41.9859C116.491 41.524 116.443 41.0657 116.371 40.602C116.096 38.8349 115.444 37.0018 114.425 35.1137C114.263 34.8112 114.165 34.4703 114.151 34.1055C114.099 32.8388 114.412 31.6143 115.011 30.5548L115.103 30.388C115.733 29.3468 116.66 28.4706 117.804 27.8895L117.948 27.8143C119.153 27.2369 120.483 27.0426 121.757 27.2131C122.98 27.3781 124.163 27.8785 125.149 28.6887C125.408 28.8849 125.63 29.1378 125.794 29.4403C127.205 32.0579 128.102 35.5866 127.971 39.2161C127.916 40.7743 127.673 42.3581 127.205 43.9052C127.459 43.9785 127.719 44.0647 127.992 44.1636C129.497 44.7136 131.316 45.7071 133.829 47.3954C135.41 48.4567 136.957 49.2816 138.675 49.5841C140.408 49.8902 142.435 49.7032 145.033 48.7683C145.912 48.4531 146.933 48.684 147.585 49.4246C148.433 50.3888 148.333 51.8553 147.364 52.6985C145.577 54.2548 143.876 55.4664 142.212 56.3573C144.613 59.3819 146.461 62.8079 147.635 66.476C149.107 71.0733 149.514 76.0355 148.63 81.0398C147.624 86.7169 145.079 91.767 141.472 95.8731C138.144 99.6585 133.917 102.637 129.163 104.556C129.145 106.204 128.699 107.757 127.89 109.11C127.067 110.485 125.873 111.632 124.382 112.437C118.407 115.661 109.73 118.745 98.3619 121.677C84.7124 125.197 70.722 127.729 56.8145 129.932C54.3234 130.22 50.596 130.152 48.197 129.411C45.529 128.588 43.06 127.138 40.8969 125.1C38.6619 122.992 36.7862 120.543 35.3417 117.857C35.0229 118.737 34.5217 119.531 33.8842 120.191C32.9353 121.172 31.6805 121.864 30.271 122.11C28.9536 122.339 27.6251 122.156 26.4496 121.634L25.8894 121.362C24.9405 122.86 24.0156 124.009 23.1183 124.81C21.9556 125.839 20.7672 126.394 19.553 126.466C18.3811 126.535 17.3051 126.178 16.3322 125.393C15.0093 127.787 13.2312 129.29 11.5085 129.987C10.484 130.403 9.44299 130.55 8.47013 130.452C7.38856 130.342 6.40096 129.926 5.61236 129.23C4.58791 128.321 3.93012 126.988 3.88222 125.3C2.56481 124.653 1.66196 123.635 1.21423 122.462C0.878886 121.582 0.814397 120.623 1.0355 119.665L1.06682 119.529C1.30083 118.627 1.79463 117.742 2.55743 116.965C3.87669 115.617 6.12274 114.528 9.32875 114.268C8.96024 112.983 9.04868 111.808 9.59776 110.743L9.71752 110.51C10.3292 109.465 11.3684 108.663 12.8204 108.105C13.9517 107.671 15.4036 107.37 17.1743 107.207L17.1687 106.83C17.1816 106.008 17.3475 105.191 17.6644 104.423C17.3475 103.644 17.189 102.815 17.1853 101.988L17.1908 101.688C15.422 101.525 13.9719 101.224 12.8406 100.789C11.3961 100.236 10.3624 99.4312 9.74516 98.3845C9.08185 97.2626 8.95103 96.0051 9.34717 94.6267C6.14301 94.3664 3.89696 93.2775 2.57586 91.9302C1.87754 91.2189 1.40401 90.4142 1.14974 89.5912L1.07604 89.3565C0.82361 88.3667 0.880728 87.364 1.23265 86.4328C1.6767 85.2596 2.58139 84.244 3.90064 83.5951C3.94855 81.9087 4.60633 80.5742 5.63078 79.665C6.4286 78.9703 7.41251 78.5505 8.4904 78.4423C9.45957 78.3452 10.5043 78.4955 11.5269 78.9079C13.2497 79.6045 15.0277 81.1076 16.3506 83.5016C17.3253 82.7171 18.3995 82.3578 19.5732 82.4275C20.7948 82.499 21.9851 83.0525 23.1385 84.0846C24.0432 84.893 24.97 86.0423 25.9189 87.5363C27.2732 86.7865 28.7564 86.5189 30.2894 86.7865C31.7008 87.034 32.9556 87.7251 33.9045 88.7058C34.5365 89.3584 35.0358 90.1466 35.3527 91.0191C36.7973 88.3428 38.6674 85.8993 40.8969 83.7968C41.3612 83.3587 41.8421 82.9462 42.3341 82.5631C39.5187 80.5082 36.6112 78.6623 33.617 77.0235C29.6998 74.8825 25.6168 73.0916 21.3808 71.6599C20.5 71.3813 19.5511 71.066 18.6428 70.901C15.855 70.2961 13.421 68.8003 11.643 66.7454C9.89625 64.7162 8.7723 62.137 8.56962 59.3123L8.5641 59.2481C8.35958 56.1978 9.25321 53.2851 10.9391 50.9461C11.6669 49.936 12.544 49.0305 13.5463 48.2624C12.2455 47.3074 11.116 46.1562 10.1966 44.8584C8.34852 42.2462 7.3425 39.0365 7.48621 35.6673C7.62993 32.2962 8.91418 29.1782 10.9833 26.7273C12.4187 25.0281 14.2354 23.6459 16.3156 22.7165C15.551 20.9861 15.1143 19.142 15.0074 17.2778C14.849 14.4365 15.4662 11.5475 16.8776 8.9464C18.289 6.34708 20.384 4.24637 22.8732 2.81839C25.3514 1.39592 28.2221 0.644353 31.1904 0.726842C34.1698 0.807497 36.9981 1.72037 39.3879 3.27483C40.9503 4.29219 42.3341 5.59368 43.4599 7.12248C45.3116 5.78799 47.4268 4.90994 49.625 4.52316C52.7812 3.96774 56.1291 4.42784 59.1435 5.99146C62.1542 7.55509 64.45 10.0279 65.7987 12.9279C66.4694 14.3687 66.908 15.9176 67.0867 17.5161C68.2548 17.0376 69.4801 16.7352 70.7238 16.6124C73.6019 16.3319 76.5849 17.0138 79.1368 18.7131C81.5229 20.3005 83.2273 22.5736 84.1227 25.1179C84.9998 27.6145 85.0993 30.3843 84.2959 33.0258L83.8427 34.5803L83.5368 35.9587C81.9301 44.0078 81.6464 52.2109 82.6819 60.5551C82.9306 62.5568 83.2549 64.5659 83.6547 66.5841C84.7179 62.819 86.4793 59.3746 88.7807 56.3628C91.1704 53.2337 94.1351 50.5739 97.4995 48.508C96.254 47.1167 95.0766 45.423 93.9435 43.3772C93.4607 42.5542 93.5178 41.4818 94.1682 40.7101C94.9955 39.7276 96.4714 39.5974 97.459 40.4205C99.5798 42.1857 101.42 43.051 103.143 43.3498C104.846 43.6449 106.554 43.4139 108.367 42.9703L108.455 42.9465C111.549 42.1784 113.664 41.8704 115.319 41.9016C115.746 41.9089 116.142 41.9383 116.513 41.9859ZM120.896 45.7914C121.021 45.8226 121.147 45.7841 121.25 45.7108C122.611 43.6742 123.229 41.3334 123.31 39.0512C123.402 36.4738 122.831 33.9863 121.902 32.0744C121.666 31.937 121.406 31.849 121.143 31.8141C120.749 31.7628 120.345 31.8215 119.978 31.9974L119.888 32.0378C119.566 32.2119 119.295 32.4759 119.105 32.7893L119.057 32.8645C118.954 33.0588 118.88 33.2714 118.842 33.4932C119.932 35.6398 120.647 37.7753 120.977 39.8944C121.292 41.8979 121.263 43.8648 120.896 45.7914ZM137.556 58.0694C136.349 58.2949 135.222 58.3939 133.993 58.3371C134.444 59.8915 134.73 61.6696 134.944 63.2754C135.004 63.7117 134.945 64.1681 134.743 64.5952C134.194 65.7537 132.799 66.2505 131.634 65.7042C128.399 64.1864 125.563 62.5257 123.218 60.7439C121.602 59.5176 120.209 58.2271 119.068 56.8761C117.528 57.7578 115.776 58.4984 113.839 59.1015C111.07 59.9593 107.875 60.5514 104.35 60.8814C103.864 60.951 103.35 60.8722 102.887 60.6192C101.758 60.0033 101.345 58.5882 101.964 57.4645L102.025 57.3545C102.843 55.8642 103.635 54.4161 104.547 53.1696C103.438 52.8231 102.38 52.3557 101.361 51.7471L101.286 51.7013C97.8349 53.5674 94.826 56.108 92.4915 59.1638C90.052 62.3552 88.3274 66.1405 87.5867 70.3309C87.1077 73.0494 87.0708 75.7422 87.4264 78.3324C87.6604 80.0298 88.0658 81.6942 88.6241 83.3037L89.3297 85.0488C92.5118 85.7637 95.5225 86.4878 98.3619 87.2192C109.732 90.1503 118.407 93.2353 124.382 96.4597C125.873 97.2645 127.067 98.412 127.89 99.7868L128.01 99.9921C131.855 98.3387 135.262 95.886 137.96 92.8192C141.013 89.3437 143.17 85.0598 144.024 80.2406C144.777 75.9768 144.436 71.7626 143.191 67.8764C142.043 64.2854 140.112 60.9455 137.556 58.0694ZM77.04 87.221C77.169 90.8927 77.2335 94.1171 77.2335 96.8887C77.2335 100.509 77.1303 103.559 76.9295 106.028C76.83 107.308 75.7024 108.265 74.4163 108.166C73.1302 108.067 72.1684 106.945 72.2679 105.666C72.4558 103.347 72.5535 100.417 72.5535 96.8887C72.5535 93.7229 72.4798 90.2016 72.3397 86.3264C67.2009 85.3751 61.7286 84.4402 55.9246 83.5218C53.697 83.1699 51.5523 83.311 49.5697 83.9196C48.8806 84.1322 48.2044 84.4017 47.5503 84.7317L47.5005 84.7591L47.495 84.761L47.4508 84.7848L47.4084 84.805L47.3992 84.8105L47.3863 84.816C46.2292 85.4136 45.131 86.2036 44.114 87.1623C41.7555 89.3859 39.8706 92.075 38.5864 95.0483C37.3297 97.9574 36.6443 101.149 36.6443 104.448C36.6443 107.748 37.3297 110.939 38.5864 113.847C39.8724 116.822 41.7555 119.511 44.114 121.734C45.752 123.278 47.5945 124.367 49.5679 124.975C50.9995 125.417 52.5159 125.613 54.0857 125.554C54.1908 123.604 54.2442 121.32 54.2442 118.708C54.2442 115.045 54.1466 110.908 53.9586 106.3C53.9089 105.02 54.9112 103.939 56.1973 103.889C57.4834 103.84 58.5705 104.837 58.6202 106.116C58.8211 111.022 58.9242 115.223 58.9242 118.708C58.9242 121.007 58.8819 123.076 58.8008 124.913C70.9136 122.946 81.5229 120.906 90.6214 118.792C90.7338 116.789 90.7909 114.422 90.7909 111.698C90.7909 108.036 90.6951 103.895 90.5071 99.29C90.4574 98.0105 91.4597 96.929 92.7458 96.8795C94.0319 96.83 95.119 97.8272 95.1687 99.1067C95.3696 104.01 95.4709 108.21 95.4709 111.698C95.4709 113.892 95.4341 115.878 95.3604 117.65L97.19 117.186C108.153 114.358 116.476 111.409 122.153 108.345C122.904 107.94 123.498 107.379 123.888 106.727C124.273 106.082 124.483 105.303 124.483 104.448C124.483 103.656 124.299 102.855 123.888 102.17C123.498 101.517 122.904 100.956 122.153 100.551C119.791 99.2772 116.971 98.0234 113.694 96.7879C113.686 97.7686 113.671 98.6998 113.649 99.5797C113.6 101.512 113.519 103.171 113.406 104.533C113.307 105.812 112.179 106.769 110.893 106.67C109.607 106.571 108.645 105.449 108.745 104.17C108.862 102.725 108.944 101.158 108.988 99.4697C109.021 98.137 109.037 96.6944 109.036 95.1473C105.507 93.9814 101.557 92.8357 97.19 91.7102C90.5219 89.9944 83.7966 88.5408 77.04 87.221ZM32.4507 99.2314C32.1191 98.3661 31.839 97.4514 31.6142 96.4946C31.3452 95.3471 31.1499 94.1391 31.0449 92.8889C30.973 92.5223 30.7924 92.1868 30.54 91.9247C30.2673 91.6424 29.9006 91.4426 29.4861 91.3693C28.9812 91.2813 28.6293 91.3876 28.1816 91.5892C27.8757 91.7652 27.6141 92.031 27.4409 92.3591C26.842 93.4938 25.4288 93.9282 24.2883 93.3325C23.8498 93.1034 23.5163 92.7551 23.3044 92.3481C22.0736 90.0073 20.9773 88.4015 20.0136 87.5418C19.6672 87.232 19.4277 87.0725 19.3005 87.0652L19.1568 87.2283C18.7423 87.6353 18.3129 88.3758 17.8763 89.439C17.4635 90.4417 16.4225 91.0008 15.3907 90.8542C15.6007 91.1511 15.7445 91.5031 15.7942 91.888C15.8845 92.5791 15.6597 93.239 15.2304 93.7248C14.4878 94.5827 14.0235 95.2902 13.8485 95.8402L13.7656 96.0381C13.8301 96.1499 14.0862 96.2929 14.521 96.4597C15.7316 96.9253 17.6681 97.1728 20.3176 97.1966C21.6037 97.2058 22.6392 98.2543 22.63 99.5338C22.6282 99.8839 22.5471 100.214 22.4052 100.509C23.5034 100.278 24.6697 100.322 25.7826 100.68C27.111 101.13 28.5998 101.737 29.9854 101.928C30.6874 102.052 31.3784 102.128 32.0583 102.157C32.1393 101.169 32.2701 100.194 32.4507 99.2314ZM13.8116 89.8918C13.6274 89.6297 13.4984 89.3327 13.4339 89.0211C12.7319 85.6262 11.1897 83.7913 9.7728 83.2194C9.45773 83.0929 9.1795 83.0416 8.96577 83.0617C8.86259 83.0709 8.77967 83.0984 8.73361 83.1369C8.52909 83.3257 8.47381 83.8371 8.68018 84.6932C8.98235 85.9378 8.21402 87.1935 6.96293 87.4941L6.75289 87.5344C6.07299 87.6389 5.68606 87.8461 5.60314 88.0679L5.62341 88.275C5.67316 88.3978 5.77081 88.539 5.91269 88.6838C6.91319 89.703 9.23294 90.3996 13.1796 89.8881C13.3952 89.8606 13.6071 89.8625 13.8116 89.8918ZM32.0619 106.809C31.1112 106.78 30.1494 106.681 29.1821 106.511L28.9794 106.467C27.4298 106.177 25.871 105.715 24.3122 105.088C23.9382 104.978 23.5494 104.982 23.1975 105.088C22.8308 105.198 22.4937 105.422 22.2449 105.739H22.2431L22.232 105.755L22.221 105.77L22.2099 105.785V105.786L22.197 105.803L22.186 105.818L22.1767 105.83L22.1749 105.834C21.952 106.16 21.8359 106.533 21.8303 106.894C21.8248 107.293 21.9446 107.698 22.1896 108.043C22.9303 109.092 22.6761 110.543 21.6221 111.28C21.1818 111.588 20.6695 111.724 20.1702 111.7C17.587 111.729 15.6929 111.977 14.5007 112.435C14.0751 112.598 13.8245 112.741 13.7564 112.857L13.8301 113.055C14.0051 113.606 14.4731 114.321 15.2267 115.188C15.9416 116.01 15.9729 117.19 15.3704 118.041C15.6284 118.004 15.8974 118.009 16.1664 118.064C16.9568 118.224 17.5704 118.767 17.856 119.456C18.2687 120.457 18.5764 121.027 19.2803 121.828C19.4148 121.82 19.658 121.661 19.997 121.357C20.9662 120.482 22.068 118.878 23.2915 116.545C23.8866 115.41 25.2943 114.97 26.4348 115.562C26.8715 115.79 27.205 116.134 27.4188 116.538C27.6583 116.981 27.9623 117.196 28.3953 117.417C28.7196 117.549 29.0936 117.593 29.4676 117.527C29.8804 117.456 30.2489 117.252 30.5197 116.972C30.774 116.708 30.9564 116.367 31.0283 115.991C31.137 114.739 31.3286 113.533 31.5995 112.386C31.8206 111.449 32.1006 110.536 32.4452 109.651C32.2701 108.716 32.143 107.768 32.0619 106.809ZM13.7932 119.003C13.5832 119.032 13.3713 119.032 13.1612 119.005C9.21267 118.495 6.89476 119.19 5.90348 120.202C5.72475 120.383 5.61788 120.554 5.58103 120.695L5.58472 120.827C5.66948 121.051 6.05456 121.258 6.73446 121.355C8.01134 121.54 8.89391 122.722 8.70781 123.993L8.63043 124.334C8.46091 125.109 8.52172 125.578 8.71887 125.754C8.76493 125.795 8.84785 125.824 8.9455 125.833C9.16108 125.853 9.43746 125.804 9.75437 125.675C11.1713 125.104 12.7135 123.269 13.4155 119.874C13.4818 119.549 13.6126 119.256 13.7932 119.003Z" fill="#F277C6"/>
</svg>
