<svg width="121" height="187" viewBox="0 0 121 187" fill="none" xmlns="http://www.w3.org/2000/svg">
<path d="M57.2594 81.5859C51.3055 74.0313 39.7581 67.3512 29.914 65.7814C24.946 65.0517 17.2072 65.6905 11.7737 67.4018C-3.52736 72.0925 -9.75284 90.4249 -1.15237 105.534C7.6104 120.851 28.3505 130.647 42.9976 126.386C54.7586 122.916 63.5389 112.249 64.0253 100.651C64.1968 96.5948 63.9145 95.3234 61.8913 90.2853C60.4045 86.6153 58.7202 83.4518 57.2594 81.5859ZM59.6948 100.407C59.4951 105.034 56.9997 111.308 53.7303 115.202C51.2606 118.043 50.4561 118.609 44.8697 121.086C39.2245 123.59 38.3236 123.78 34.4165 123.697C29.4792 123.513 20.8864 120.48 15.2832 116.89C-4.37028 104.308 -6.68132 80.055 10.96 72.2316C18.6046 68.8415 30.3939 68.2918 37.3378 70.9384C41.005 72.3845 49.6757 79.0834 52.9619 83.0028C56.4622 87.2463 59.8804 96.065 59.6948 100.407Z" fill="#F277C6"/>
<path d="M37.6448 100.451C33.7049 102.62 32.797 102.882 31.1576 102.485C29.5182 102.087 29.2136 101.73 29.1297 100.221C29.116 98.5409 30.4756 95.3378 32.2609 92.9298C32.9436 91.9945 32.8654 91.8184 31.8714 91.5565C30.1188 91.0687 26.7678 95.2252 26.272 98.3966C25.4402 103.615 29.0802 106.709 34.3968 105.335C36.9374 104.63 41.2542 101.661 42.1916 99.9807C43.2693 97.9567 42.0126 98.0924 37.6448 100.451Z" fill="#F277C6"/>
<path d="M54.9084 92.9645C54.0002 91.8665 51.8753 93.0458 51.9075 94.6112C51.9848 97.4995 55.3437 98.6955 55.9742 96.0463C56.2474 94.8983 55.9757 94.1499 54.9084 92.9645Z" fill="#F277C6"/>
<path d="M24.2761 83.8057C22.5044 83.8907 21.5455 85.0803 22.0209 86.5894C22.5366 88.3353 24.7201 88.4499 25.544 86.8105C26.1924 85.5038 25.4134 83.7472 24.2761 83.8057Z" fill="#F277C6"/>
<path d="M103.813 32.5429C100.939 32.8396 100.997 32.8137 74.1173 48.6457C63.2381 55.0069 54.0727 60.189 53.8198 60.0916C53.5669 59.9942 53.9946 54.4961 54.845 47.9024C56.4026 35.3374 56.6119 27.7708 55.5832 25.2934C54.3407 22.4917 52.2525 21.881 49.0399 23.3057C45.652 24.8081 43.2557 27.1281 31.4869 40.3099C21.8288 51.1587 19.4717 53.2517 17.7599 52.544C15.5423 51.6415 12.2774 47.4316 -3.44904 25.2091C-12.0119 13.1508 -19.9534 2.49338 -21.1395 1.55256C-24.9634 -1.71095 -27.9311 1.21167 -27.5297 7.94868C-27.3891 9.84206 -25.7386 19.2382 -23.8677 28.8159C-18.6355 55.2732 -16.6686 72.0028 -18.713 72.9094C-19.1803 73.1166 -22.598 72.1876 -26.398 70.8692C-40.048 66.0961 -49.1076 63.4781 -50.8659 63.7689C-52.222 64.021 -52.7285 64.4552 -53.1062 65.8101C-53.5164 67.2493 -53.3094 67.7163 -51.6573 69.7077C-50.5688 70.9014 -43.8802 76.5266 -36.7895 82.1131C-29.6987 87.6997 -23.4767 92.9032 -22.9391 93.6427C-21.2937 95.7768 -21.9177 96.8917 -25.5525 98.783C-27.3699 99.7286 -36.7424 104.444 -46.4068 109.288C-69.0202 120.714 -72.3311 123.02 -70.8557 126.347C-69.1473 130.2 -61.8366 130.45 -31.9799 127.477C-19.2509 126.233 -8.3128 125.364 -7.72272 125.591C-6.82135 125.89 -6.91296 126.629 -8.15495 129.345C-11.3996 136.372 -18.4712 154.944 -18.616 156.824C-18.9062 161.214 -16.3906 162.473 -12.3269 159.972C-11.087 159.143 -4.42535 153.674 2.57419 147.707C9.51531 141.765 15.32 136.885 15.4886 136.95C15.6572 137.015 16.36 140.964 17.0296 145.627C18.7106 156.825 22.5253 174.412 24.705 180.43C26.2441 184.847 26.5355 185.346 28.0853 185.846C31.6649 186.983 32.4582 185.304 41.6468 158.738C44.9851 149.085 48.101 141.137 48.5033 141.099C48.9055 141.06 52.5163 143.37 56.4444 146.238C66.3229 153.383 72.9292 157.089 75.9586 157.142C78.3587 157.195 78.4756 157.143 79.1261 155.458C80.0953 153.072 77.619 145.44 73.0427 136.223C71.0814 132.274 69.5283 128.771 69.6843 128.493C69.756 128.182 74.4381 129.598 79.9758 131.682C96.0897 137.598 110.869 142.08 115.688 142.387C119.451 142.674 121.405 140.62 120.137 137.76C119.594 136.534 108.744 127.516 93.1559 115.22C86.9207 110.302 81.8523 106.123 81.8656 105.838C81.8789 105.553 87.9863 102.775 95.3654 99.7117C110.682 93.2686 113.162 91.6101 112.263 88.7956C111.617 86.7074 110.793 86.5838 94.8295 85.4208C81.0585 84.4731 75.9927 83.9257 75.7079 83.2836C75.6044 83.0502 76.8391 81.1056 78.4892 78.8372C80.1069 76.653 83.771 71.6754 86.6684 67.806C95.6727 55.6407 104.431 42.6063 106.057 39.0216C107.292 36.4482 107.495 35.1709 106.951 33.9452C106.33 32.5443 105.824 32.3495 103.813 32.5429ZM100.384 41.6769C96.4661 47.815 84.7456 64.2583 78.2299 72.7357C72.7536 79.7742 70.8167 83.2874 71.5673 84.9801C72.4474 86.9647 78.5115 88.187 91.3486 88.9203C98.4774 89.391 104.977 89.8614 105.768 90.0693C107.013 90.3553 107.007 90.498 105.189 91.4436C104.105 91.9942 97.2971 95.0832 90.0799 98.3537L76.9373 104.182L77.4609 105.836C77.8618 107.055 83.1113 111.642 96.4566 122.348C106.632 130.478 115.091 137.414 115.246 137.764C115.401 138.114 115.355 138.484 115.122 138.587C114.012 139.079 91.0685 131.792 79.3772 127.337C72.2963 124.61 66.2136 122.558 65.7463 122.765C63.7604 123.646 64.1287 124.949 70.3411 138.958C73.732 146.604 76.3198 153.07 76.1054 153.375C75.2411 154.736 67.9996 150.544 57.1102 142.381C50.5896 137.449 48.145 136.508 45.9764 138.238C45.0286 138.938 42.147 146.153 37.2148 159.935C33.2259 171.273 29.6998 180.66 29.4077 180.789C28.0642 181.385 26.0301 172.858 22.297 151.673C18.6994 131.266 18.6218 131.091 14.7666 132.8C13.7152 133.267 9.31965 136.752 5.05355 140.53C-5.71891 150.127 -14.036 156.749 -14.3466 156.049C-14.7349 155.173 -11.5665 146.713 -6.90397 136.264C-2.05288 125.451 -1.6944 123.895 -3.29535 122.65C-5.09078 121.28 -8.55495 121.35 -27.7848 123.382C-53.9696 126.123 -65.835 126.635 -66.5856 124.943C-67.0775 123.833 -62.0859 121.061 -37.928 109.021C-27.3289 103.762 -19.9617 99.7262 -19.2083 98.9032C-16.1297 95.4424 -18.9857 91.0513 -29.7516 82.6941C-41.2888 73.701 -46.7136 69.1917 -46.5185 68.6861C-46.3492 68.1221 -43.2169 69.038 -30.8897 73.3501C-20.1641 77.0454 -17.0703 77.5593 -15.7321 75.8483C-12.7179 71.9271 -13.9043 59.3218 -20.4771 24.7978C-23.1026 11.1542 -23.7781 6.00556 -23.0188 5.66881C-22.3762 5.38388 -22.2986 5.55898 -6.598 27.7232C8.80456 49.5305 11.4734 53.0268 14.5326 55.5119C19.1085 59.2102 21.5233 57.7202 35.1302 42.5359C45.5741 30.7798 49.5289 26.9305 51.047 26.8859C52.7402 26.7637 52.6631 32.1064 50.6799 48.2827C48.8999 62.5528 48.8514 65.4381 50.246 65.588C50.5573 65.6595 52.141 64.8175 53.764 63.7485C59.3662 60.1465 99.922 37.4816 102.395 36.5946C103.673 36.1674 103.445 36.7573 100.384 41.6769Z" fill="#F277C6"/>
<path d="M57.2594 81.5859C51.3055 74.0313 39.7581 67.3512 29.914 65.7814C24.946 65.0517 17.2072 65.6905 11.7737 67.4018C-3.52736 72.0925 -9.75284 90.4249 -1.15237 105.534C7.6104 120.851 28.3505 130.647 42.9976 126.386C54.7586 122.916 63.5389 112.249 64.0253 100.651C64.1968 96.5948 63.9145 95.3234 61.8913 90.2853C60.4045 86.6153 58.7202 83.4518 57.2594 81.5859ZM59.6948 100.407C59.4951 105.034 56.9997 111.308 53.7303 115.202C51.2606 118.043 50.4561 118.609 44.8697 121.086C39.2245 123.59 38.3236 123.78 34.4165 123.697C29.4792 123.513 20.8864 120.48 15.2832 116.89C-4.37028 104.308 -6.68132 80.055 10.96 72.2316C18.6046 68.8415 30.3939 68.2918 37.3378 70.9384C41.005 72.3845 49.6757 79.0834 52.9619 83.0028C56.4622 87.2463 59.8804 96.065 59.6948 100.407Z" fill="#F277C6"/>
<path d="M37.6448 100.451C33.7049 102.62 32.797 102.882 31.1576 102.485C29.5182 102.087 29.2136 101.73 29.1297 100.221C29.116 98.5409 30.4756 95.3378 32.2609 92.9298C32.9436 91.9945 32.8654 91.8184 31.8714 91.5565C30.1188 91.0687 26.7678 95.2252 26.272 98.3966C25.4402 103.615 29.0802 106.709 34.3968 105.335C36.9374 104.63 41.2542 101.661 42.1916 99.9807C43.2693 97.9567 42.0126 98.0924 37.6448 100.451Z" fill="#F277C6"/>
<path d="M54.9084 92.9645C54.0002 91.8665 51.8753 93.0458 51.9075 94.6112C51.9848 97.4995 55.3437 98.6955 55.9742 96.0463C56.2474 94.8983 55.9757 94.1499 54.9084 92.9645Z" fill="#F277C6"/>
<path d="M24.2761 83.8057C22.5044 83.8907 21.5455 85.0803 22.0209 86.5894C22.5366 88.3353 24.7201 88.4499 25.544 86.8105C26.1924 85.5038 25.4134 83.7472 24.2761 83.8057Z" fill="#F277C6"/>
<path d="M103.813 32.5429C100.939 32.8396 100.997 32.8137 74.1173 48.6457C63.2381 55.0069 54.0727 60.189 53.8198 60.0916C53.5669 59.9942 53.9946 54.4961 54.845 47.9024C56.4026 35.3374 56.6119 27.7708 55.5832 25.2934C54.3407 22.4917 52.2525 21.881 49.0399 23.3057C45.652 24.8081 43.2557 27.1281 31.4869 40.3099C21.8288 51.1587 19.4717 53.2517 17.7599 52.544C15.5423 51.6415 12.2774 47.4316 -3.44904 25.2091C-12.0119 13.1508 -19.9534 2.49338 -21.1395 1.55256C-24.9634 -1.71095 -27.9311 1.21167 -27.5297 7.94868C-27.3891 9.84206 -25.7386 19.2382 -23.8677 28.8159C-18.6355 55.2732 -16.6686 72.0028 -18.713 72.9094C-19.1803 73.1166 -22.598 72.1876 -26.398 70.8692C-40.048 66.0961 -49.1076 63.4781 -50.8659 63.7689C-52.222 64.021 -52.7285 64.4552 -53.1062 65.8101C-53.5164 67.2493 -53.3094 67.7163 -51.6573 69.7077C-50.5688 70.9014 -43.8802 76.5266 -36.7895 82.1131C-29.6987 87.6997 -23.4767 92.9032 -22.9391 93.6427C-21.2937 95.7768 -21.9177 96.8917 -25.5525 98.783C-27.3699 99.7286 -36.7424 104.444 -46.4068 109.288C-69.0202 120.714 -72.3311 123.02 -70.8557 126.347C-69.1473 130.2 -61.8366 130.45 -31.9799 127.477C-19.2509 126.233 -8.3128 125.364 -7.72272 125.591C-6.82135 125.89 -6.91296 126.629 -8.15495 129.345C-11.3996 136.372 -18.4712 154.944 -18.616 156.824C-18.9062 161.214 -16.3906 162.473 -12.3269 159.972C-11.087 159.143 -4.42535 153.674 2.57419 147.707C9.51531 141.765 15.32 136.885 15.4886 136.95C15.6572 137.015 16.36 140.964 17.0296 145.627C18.7106 156.825 22.5253 174.412 24.705 180.43C26.2441 184.847 26.5355 185.346 28.0853 185.846C31.6649 186.983 32.4582 185.304 41.6468 158.738C44.9851 149.085 48.101 141.137 48.5033 141.099C48.9055 141.06 52.5163 143.37 56.4444 146.238C66.3229 153.383 72.9292 157.089 75.9586 157.142C78.3587 157.195 78.4756 157.143 79.1261 155.458C80.0953 153.072 77.619 145.44 73.0427 136.223C71.0814 132.274 69.5283 128.771 69.6843 128.493C69.756 128.182 74.4381 129.598 79.9758 131.682C96.0897 137.598 110.869 142.08 115.688 142.387C119.451 142.674 121.405 140.62 120.137 137.76C119.594 136.534 108.744 127.516 93.1559 115.22C86.9207 110.302 81.8523 106.123 81.8656 105.838C81.8789 105.553 87.9863 102.775 95.3654 99.7117C110.682 93.2686 113.162 91.6101 112.263 88.7956C111.617 86.7074 110.793 86.5838 94.8295 85.4208C81.0585 84.4731 75.9927 83.9257 75.7079 83.2836C75.6044 83.0502 76.8391 81.1056 78.4892 78.8372C80.1069 76.653 83.771 71.6754 86.6684 67.806C95.6727 55.6407 104.431 42.6063 106.057 39.0216C107.292 36.4482 107.495 35.1709 106.951 33.9452C106.33 32.5443 105.824 32.3495 103.813 32.5429ZM100.384 41.6769C96.4661 47.815 84.7456 64.2583 78.2299 72.7357C72.7536 79.7742 70.8167 83.2874 71.5673 84.9801C72.4474 86.9647 78.5115 88.187 91.3486 88.9203C98.4774 89.391 104.977 89.8614 105.768 90.0693C107.013 90.3553 107.007 90.498 105.189 91.4436C104.105 91.9942 97.2971 95.0832 90.0799 98.3537L76.9373 104.182L77.4609 105.836C77.8618 107.055 83.1113 111.642 96.4566 122.348C106.632 130.478 115.091 137.414 115.246 137.764C115.401 138.114 115.355 138.484 115.122 138.587C114.012 139.079 91.0685 131.792 79.3772 127.337C72.2963 124.61 66.2136 122.558 65.7463 122.765C63.7604 123.646 64.1287 124.949 70.3411 138.958C73.732 146.604 76.3198 153.07 76.1054 153.375C75.2411 154.736 67.9996 150.544 57.1102 142.381C50.5896 137.449 48.145 136.508 45.9764 138.238C45.0286 138.938 42.147 146.153 37.2148 159.935C33.2259 171.273 29.6998 180.66 29.4077 180.789C28.0642 181.385 26.0301 172.858 22.297 151.673C18.6994 131.266 18.6218 131.091 14.7666 132.8C13.7152 133.267 9.31965 136.752 5.05355 140.53C-5.71891 150.127 -14.036 156.749 -14.3466 156.049C-14.7349 155.173 -11.5665 146.713 -6.90397 136.264C-2.05288 125.451 -1.6944 123.895 -3.29535 122.65C-5.09078 121.28 -8.55495 121.35 -27.7848 123.382C-53.9696 126.123 -65.835 126.635 -66.5856 124.943C-67.0775 123.833 -62.0859 121.061 -37.928 109.021C-27.3289 103.762 -19.9617 99.7262 -19.2083 98.9032C-16.1297 95.4424 -18.9857 91.0513 -29.7516 82.6941C-41.2888 73.701 -46.7136 69.1917 -46.5185 68.6861C-46.3492 68.1221 -43.2169 69.038 -30.8897 73.3501C-20.1641 77.0454 -17.0703 77.5593 -15.7321 75.8483C-12.7179 71.9271 -13.9043 59.3218 -20.4771 24.7978C-23.1026 11.1542 -23.7781 6.00556 -23.0188 5.66881C-22.3762 5.38388 -22.2986 5.55898 -6.598 27.7232C8.80456 49.5305 11.4734 53.0268 14.5326 55.5119C19.1085 59.2102 21.5233 57.7202 35.1302 42.5359C45.5741 30.7798 49.5289 26.9305 51.047 26.8859C52.7402 26.7637 52.6631 32.1064 50.6799 48.2827C48.8999 62.5528 48.8514 65.4381 50.246 65.588C50.5573 65.6595 52.141 64.8175 53.764 63.7485C59.3662 60.1465 99.922 37.4816 102.395 36.5946C103.673 36.1674 103.445 36.7573 100.384 41.6769Z" fill="#F277C6"/>
</svg>
