<svg width="319" height="191" viewBox="0 0 319 191" fill="none" xmlns="http://www.w3.org/2000/svg">
<path d="M271 24V15.5C271 7.76801 264.732 1.5 257 1.5H177C169.268 1.5 163 7.76801 163 15.5V16" stroke="#B6AFAF" stroke-width="1.5" stroke-dasharray="6 6"/>
<circle cx="179" cy="97" r="74" fill="#EAF2F5"/>
<path d="M207.879 79.125V77.75C207.875 74.7705 206.992 71.8585 205.339 69.3793C203.687 66.9002 201.339 64.9643 198.59 63.8146C195.841 62.665 192.814 62.3528 189.889 62.9172C186.963 63.4816 184.27 64.8975 182.146 66.9872C182.02 67.1138 181.921 67.2641 181.854 67.4292C181.786 67.5944 181.753 67.7713 181.754 67.9497V98.4472C181.755 98.6951 181.822 98.9382 181.95 99.1508C182.077 99.3634 182.26 99.5376 182.478 99.6549C182.697 99.7722 182.943 99.8282 183.191 99.8172C183.438 99.8061 183.678 99.7282 183.885 99.5919C186.5 97.9152 189.538 97.0163 192.644 97C193.363 96.9866 194.06 97.2493 194.591 97.7339C195.123 98.2186 195.448 98.8884 195.501 99.6056C195.52 99.9787 195.464 100.352 195.334 100.702C195.205 101.053 195.005 101.373 194.748 101.644C194.491 101.915 194.181 102.131 193.837 102.278C193.494 102.425 193.124 102.501 192.751 102.5C189.833 102.5 187.035 103.659 184.972 105.722C182.91 107.785 181.751 110.583 181.751 113.5V125.146C181.75 125.352 181.796 125.555 181.885 125.741C181.973 125.926 182.103 126.09 182.263 126.219C184.214 127.834 186.512 128.977 188.977 129.559C191.442 130.142 194.008 130.148 196.476 129.578C198.944 129.007 201.247 127.875 203.206 126.269C205.166 124.664 206.728 122.628 207.772 120.32C207.878 120.088 207.916 119.831 207.884 119.578C207.852 119.326 207.75 119.087 207.59 118.889C207.43 118.691 207.218 118.541 206.977 118.456C206.737 118.371 206.478 118.355 206.229 118.409C204.515 118.802 202.762 119 201.004 119H198.347C197.637 119.009 196.951 118.749 196.425 118.273C195.899 117.797 195.572 117.139 195.511 116.432C195.486 116.056 195.539 115.679 195.666 115.324C195.793 114.969 195.991 114.644 196.249 114.369C196.507 114.094 196.819 113.875 197.165 113.725C197.511 113.576 197.884 113.499 198.261 113.5H201.011C203.884 113.504 206.715 112.811 209.261 111.479C212.276 109.909 214.78 107.511 216.481 104.568C218.182 101.625 219.008 98.2583 218.863 94.8623C218.718 91.4662 217.607 88.1819 215.662 85.3946C213.717 82.6072 211.017 80.4323 207.879 79.125ZM203.754 91.5H202.379C199.097 91.5 195.949 90.1962 193.629 87.8754C191.308 85.5547 190.004 82.4071 190.004 79.125V77.75C190.004 77.0207 190.294 76.3212 190.81 75.8055C191.325 75.2897 192.025 75 192.754 75C193.483 75 194.183 75.2897 194.699 75.8055C195.214 76.3212 195.504 77.0207 195.504 77.75V79.125C195.504 80.0278 195.682 80.9218 196.027 81.756C196.373 82.5901 196.879 83.348 197.518 83.9864C198.807 85.2757 200.556 86 202.379 86H203.754C204.483 86 205.183 86.2897 205.699 86.8055C206.214 87.3212 206.504 88.0207 206.504 88.75C206.504 89.4793 206.214 90.1788 205.699 90.6945C205.183 91.2103 204.483 91.5 203.754 91.5ZM165.254 62.625C161.244 62.6296 157.4 64.2245 154.564 67.06C151.729 69.8955 150.134 73.74 150.129 77.75V79.125C146.992 80.4331 144.292 82.6085 142.348 85.3962C140.403 88.184 139.293 91.4684 139.149 94.8645C139.005 98.2605 139.832 101.627 141.533 104.57C143.234 107.513 145.739 109.909 148.754 111.479C151.3 112.811 154.131 113.504 157.004 113.5H159.661C160.372 113.49 161.06 113.749 161.588 114.225C162.115 114.701 162.442 115.36 162.504 116.068C162.529 116.444 162.476 116.821 162.349 117.176C162.222 117.531 162.024 117.856 161.766 118.131C161.508 118.406 161.196 118.625 160.85 118.775C160.504 118.924 160.131 119.001 159.754 119H157.004C155.244 119.001 153.49 118.801 151.776 118.405C151.527 118.351 151.268 118.367 151.027 118.451C150.787 118.536 150.575 118.685 150.415 118.883C150.254 119.081 150.152 119.319 150.119 119.572C150.086 119.824 150.124 120.081 150.229 120.313C151.273 122.621 152.835 124.658 154.794 126.264C156.754 127.871 159.057 129.003 161.525 129.575C163.993 130.146 166.56 130.14 169.026 129.558C171.491 128.976 173.79 127.834 175.742 126.219C175.902 126.09 176.031 125.926 176.12 125.741C176.208 125.555 176.254 125.352 176.254 125.146V113.5C176.254 110.583 175.095 107.785 173.032 105.722C170.969 103.659 168.171 102.5 165.254 102.5C164.88 102.501 164.511 102.425 164.167 102.278C163.824 102.131 163.514 101.915 163.257 101.644C162.999 101.373 162.8 101.053 162.67 100.702C162.541 100.352 162.484 99.9787 162.504 99.6056C162.557 98.8878 162.883 98.2175 163.415 97.7327C163.947 97.248 164.644 96.9858 165.364 97C168.47 97.0163 171.508 97.9152 174.123 99.5919C174.33 99.7282 174.57 99.8061 174.818 99.8172C175.065 99.8282 175.311 99.7722 175.53 99.6549C175.748 99.5376 175.931 99.3634 176.058 99.1508C176.186 98.9382 176.253 98.6951 176.254 98.4472V67.9497C176.255 67.5888 176.115 67.2418 175.862 66.9838C173.039 64.1898 169.226 62.6234 165.254 62.625ZM168.004 79.125C168.004 82.4071 166.7 85.5547 164.38 87.8754C162.059 90.1962 158.911 91.5 155.629 91.5H154.254C153.525 91.5 152.825 91.2103 152.31 90.6945C151.794 90.1788 151.504 89.4793 151.504 88.75C151.504 88.0207 151.794 87.3212 152.31 86.8055C152.825 86.2897 153.525 86 154.254 86H155.629C156.532 86 157.426 85.8222 158.26 85.4767C159.094 85.1312 159.852 84.6248 160.49 83.9864C161.129 83.348 161.635 82.5901 161.981 81.756C162.326 80.9218 162.504 80.0278 162.504 79.125V77.75C162.504 77.0207 162.794 76.3212 163.31 75.8055C163.825 75.2897 164.525 75 165.254 75C165.983 75 166.683 75.2897 167.199 75.8055C167.714 76.3212 168.004 77.0207 168.004 77.75V79.125Z" fill="#F277C6"/>
<circle cx="275" cy="75" r="44" fill="url(#paint0_linear_189_1507)"/>
<path d="M273.312 69.9375H253.062C252.831 69.938 252.602 69.8909 252.39 69.7992C252.177 69.7075 251.986 69.5731 251.828 69.4044C251.669 69.2357 251.548 69.0362 251.47 68.8184C251.392 68.6005 251.359 68.369 251.375 68.1382C251.412 67.7035 251.613 67.2992 251.937 67.0068C252.26 66.7143 252.683 66.5556 253.119 66.5625H271.625C271.856 66.563 272.085 66.5159 272.297 66.4242C272.51 66.3325 272.701 66.1981 272.859 66.0294C273.018 65.8607 273.139 65.6612 273.217 65.4434C273.295 65.2255 273.328 64.994 273.312 64.7632C273.275 64.3285 273.074 63.9242 272.75 63.6318C272.427 63.3393 272.004 63.1806 271.568 63.1875H267.467C267.345 63.1888 267.225 63.1636 267.113 63.1138C267.002 63.064 266.903 62.9906 266.823 62.8988C266.743 62.807 266.683 62.6989 266.649 62.582C266.614 62.465 266.606 62.342 266.623 62.2214C266.809 60.9413 267.358 59.7413 268.205 58.7643C269.053 57.7873 270.163 57.0744 271.404 56.7103C272.645 56.3463 273.965 56.3466 275.206 56.711C276.447 57.0755 277.557 57.7888 278.404 58.7661C279.252 59.7435 279.8 60.9436 279.985 62.2238C280.169 63.5039 279.982 64.8102 279.446 65.9871C278.91 67.1641 278.046 68.1621 276.959 68.8624C275.871 69.5627 274.606 69.9359 273.312 69.9375ZM298.608 69.4544C298.489 67.7938 297.761 66.2356 296.563 65.0793C295.365 63.9231 293.782 63.2503 292.118 63.1904C290.454 63.1305 288.827 63.6876 287.549 64.7547C286.271 65.8218 285.432 67.3236 285.194 68.9714C285.177 69.092 285.185 69.215 285.22 69.332C285.254 69.4489 285.314 69.557 285.394 69.6488C285.474 69.7406 285.573 69.814 285.684 69.8638C285.796 69.9136 285.916 69.9388 286.038 69.9375H290.139C290.574 69.9316 290.996 70.0909 291.319 70.3832C291.642 70.6755 291.842 71.0793 291.879 71.5132C291.894 71.744 291.862 71.9755 291.784 72.1934C291.706 72.4112 291.584 72.6107 291.426 72.7794C291.268 72.9481 291.077 73.0825 290.864 73.1742C290.652 73.2659 290.423 73.313 290.192 73.3125H254.807C254.371 73.3056 253.948 73.4643 253.624 73.7568C253.3 74.0492 253.1 74.4535 253.062 74.8882C253.047 75.119 253.079 75.3505 253.157 75.5684C253.235 75.7862 253.357 75.9857 253.515 76.1544C253.673 76.3231 253.865 76.4575 254.077 76.5492C254.289 76.6409 254.518 76.688 254.75 76.6875H291.875C292.802 76.6876 293.719 76.4966 294.569 76.1266C295.419 75.7565 296.184 75.2153 296.816 74.5367C297.448 73.858 297.933 73.0565 298.241 72.1822C298.549 71.3078 298.674 70.3792 298.608 69.4544ZM280.062 80.0625H256.494C256.058 80.0556 255.635 80.2143 255.312 80.5068C254.988 80.7992 254.787 81.2035 254.75 81.6382C254.734 81.869 254.767 82.1005 254.845 82.3184C254.923 82.5362 255.044 82.7357 255.203 82.9044C255.361 83.0731 255.552 83.2075 255.765 83.2992C255.977 83.3909 256.206 83.438 256.437 83.4375H278.318C278.753 83.4316 279.175 83.5909 279.498 83.8832C279.821 84.1755 280.021 84.5793 280.058 85.0132C280.073 85.244 280.041 85.4755 279.963 85.6934C279.885 85.9112 279.763 86.1107 279.605 86.2794C279.447 86.4481 279.256 86.5825 279.043 86.6742C278.831 86.7659 278.602 86.813 278.371 86.8125H274.217C274.095 86.8112 273.975 86.8363 273.863 86.8862C273.752 86.936 273.653 87.0094 273.573 87.1012C273.493 87.193 273.433 87.3011 273.399 87.418C273.364 87.535 273.356 87.658 273.373 87.7786C273.559 89.0587 274.108 90.2587 274.955 91.2357C275.803 92.2127 276.913 92.9256 278.154 93.2896C279.395 93.6537 280.715 93.6534 281.956 93.289C283.197 92.9245 284.307 92.2112 285.154 91.2339C286.002 90.2565 286.55 89.0564 286.735 87.7762C286.919 86.496 286.732 85.1898 286.196 84.0129C285.66 82.8359 284.796 81.8379 283.709 81.1376C282.621 80.4373 281.356 80.0641 280.062 80.0625Z" fill="white"/>
<rect y="97" width="133" height="52" rx="9" fill="url(#paint1_linear_189_1507)"/>
<path d="M27.048 132V115.68H29.808V132H27.048ZM21.576 117.72V115.2H35.28V117.72H21.576ZM39.6268 132.24C38.5068 132.24 37.4908 131.976 36.5788 131.448C35.6668 130.904 34.9388 130.176 34.3948 129.264C33.8668 128.352 33.6028 127.336 33.6028 126.216C33.6028 125.096 33.8668 124.088 34.3948 123.192C34.9388 122.296 35.6668 121.584 36.5788 121.056C37.4908 120.512 38.5068 120.24 39.6268 120.24C40.7628 120.24 41.7868 120.504 42.6988 121.032C43.6108 121.56 44.3308 122.28 44.8588 123.192C45.4028 124.088 45.6748 125.096 45.6748 126.216C45.6748 127.336 45.4028 128.352 44.8588 129.264C44.3308 130.176 43.6108 130.904 42.6988 131.448C41.7868 131.976 40.7628 132.24 39.6268 132.24ZM39.6268 129.696C40.2828 129.696 40.8588 129.552 41.3548 129.264C41.8668 128.96 42.2588 128.544 42.5308 128.016C42.8188 127.488 42.9628 126.888 42.9628 126.216C42.9628 125.544 42.8188 124.952 42.5308 124.44C42.2428 123.928 41.8508 123.528 41.3548 123.24C40.8588 122.936 40.2828 122.784 39.6268 122.784C38.9868 122.784 38.4108 122.936 37.8988 123.24C37.4028 123.528 37.0108 123.928 36.7228 124.44C36.4508 124.952 36.3148 125.544 36.3148 126.216C36.3148 126.888 36.4508 127.488 36.7228 128.016C37.0108 128.544 37.4028 128.96 37.8988 129.264C38.4108 129.552 38.9868 129.696 39.6268 129.696ZM54.8381 132L51.5261 127.128L51.0461 126.696L46.5821 120.48H49.7741L52.7261 124.752L53.1821 125.16L58.0061 132H54.8381ZM46.3661 132L51.0221 125.544L52.5581 127.44L49.4381 132H46.3661ZM53.4221 126.648L51.8621 124.776L54.7421 120.48H57.7901L53.4221 126.648ZM59.7771 132V120.48H62.4171V132H59.7771ZM61.0971 118.368C60.6491 118.368 60.2731 118.216 59.9691 117.912C59.6811 117.608 59.5371 117.232 59.5371 116.784C59.5371 116.336 59.6811 115.96 59.9691 115.656C60.2731 115.352 60.6491 115.2 61.0971 115.2C61.5611 115.2 61.9371 115.352 62.2251 115.656C62.5131 115.96 62.6571 116.336 62.6571 116.784C62.6571 117.232 62.5131 117.608 62.2251 117.912C61.9371 118.216 61.5611 118.368 61.0971 118.368ZM70.6821 132.24C69.5461 132.24 68.5141 131.976 67.5861 131.448C66.6741 130.92 65.9541 130.2 65.4261 129.288C64.8981 128.376 64.6341 127.36 64.6341 126.24C64.6341 125.104 64.8981 124.088 65.4261 123.192C65.9541 122.28 66.6741 121.56 67.5861 121.032C68.5141 120.504 69.5461 120.24 70.6821 120.24C71.5781 120.24 72.4101 120.416 73.1781 120.768C73.9621 121.104 74.6261 121.592 75.1701 122.232L73.4421 123.984C73.1061 123.584 72.6981 123.288 72.2181 123.096C71.7541 122.888 71.2421 122.784 70.6821 122.784C70.0261 122.784 69.4421 122.936 68.9301 123.24C68.4341 123.528 68.0421 123.928 67.7541 124.44C67.4821 124.952 67.3461 125.552 67.3461 126.24C67.3461 126.912 67.4821 127.512 67.7541 128.04C68.0421 128.552 68.4341 128.96 68.9301 129.264C69.4421 129.552 70.0261 129.696 70.6821 129.696C71.2421 129.696 71.7541 129.6 72.2181 129.408C72.6981 129.2 73.1061 128.896 73.4421 128.496L75.1701 130.248C74.6261 130.888 73.9621 131.384 73.1781 131.736C72.4101 132.072 71.5781 132.24 70.6821 132.24ZM80.3104 132L87.2224 115.2H89.1424L96.0064 132H93.0304L87.6544 118.392H88.6624L83.2384 132H80.3104ZM83.7184 128.76V126.36H92.6224V128.76H83.7184ZM98.0739 132V120.48H100.714V132H98.0739ZM99.3939 118.368C98.9459 118.368 98.5699 118.216 98.2659 117.912C97.9779 117.608 97.8339 117.232 97.8339 116.784C97.8339 116.336 97.9779 115.96 98.2659 115.656C98.5699 115.352 98.9459 115.2 99.3939 115.2C99.8579 115.2 100.234 115.352 100.522 115.656C100.81 115.96 100.954 116.336 100.954 116.784C100.954 117.232 100.81 117.608 100.522 117.912C100.234 118.216 99.8579 118.368 99.3939 118.368ZM103.675 132V120.48H106.315V132H103.675ZM106.315 125.592L105.403 125.136C105.403 123.68 105.723 122.504 106.363 121.608C107.019 120.696 108.003 120.24 109.315 120.24C109.891 120.24 110.411 120.344 110.875 120.552C111.339 120.76 111.771 121.096 112.171 121.56L110.443 123.336C110.235 123.112 110.003 122.952 109.747 122.856C109.491 122.76 109.195 122.712 108.859 122.712C108.123 122.712 107.515 122.944 107.035 123.408C106.555 123.872 106.315 124.6 106.315 125.592Z" fill="white"/>
<path d="M66 162V176C66 183.732 72.268 190 80 190H171.246C178.842 190 185 183.842 185 176.246V176.246" stroke="#B6AFAF" stroke-width="1.5" stroke-dasharray="6 6"/>
<defs>
<linearGradient id="paint0_linear_189_1507" x1="208.878" y1="9.43139" x2="411.996" y2="58.838" gradientUnits="userSpaceOnUse">
<stop offset="0.21" stop-color="#F277C7"/>
<stop offset="0.765" stop-color="#630040"/>
</linearGradient>
<linearGradient id="paint1_linear_189_1507" x1="-33.4337" y1="84.2549" x2="200.981" y2="230.094" gradientUnits="userSpaceOnUse">
<stop offset="0.21" stop-color="#F277C7"/>
<stop offset="0.765" stop-color="#630040"/>
</linearGradient>
</defs>
</svg>
