<svg width="192" height="200" viewBox="0 0 192 200" fill="none" xmlns="http://www.w3.org/2000/svg">
<path d="M107.579 64.7401C98.2593 67.1202 87.4715 74.9681 82.0458 83.3307C79.3648 87.5763 76.8115 94.9096 76.1731 100.57C74.2582 116.459 88.4929 129.582 105.792 127.845C123.346 126.044 140.708 111.056 142.751 95.9389C144.347 83.781 138.155 71.4301 127.75 66.2839C124.112 64.4828 122.835 64.2254 117.409 64.0325C113.451 63.9038 109.877 64.1611 107.579 64.7401ZM125.771 70.1436C129.92 72.202 134.644 77.0266 136.878 81.5938C138.474 85.0032 138.665 85.9681 138.665 92.0792C138.665 98.2546 138.474 99.1552 136.814 102.693C134.644 107.132 128.388 113.758 122.835 117.424C103.366 130.29 80.2584 122.57 80.2584 103.272C80.2584 94.9096 84.5352 83.9096 89.7695 78.6348C92.5782 75.8687 102.217 70.6582 107.132 69.243C112.43 67.7635 121.877 68.2137 125.771 70.1436Z" fill="#F277C6"/>
<path d="M115.766 105.141C116.151 109.622 116.023 110.558 114.995 111.895C113.967 113.233 113.517 113.367 112.104 112.832C110.562 112.163 108.185 109.622 106.708 107.013C106.13 106.01 105.937 106.01 105.294 106.813C104.138 108.217 106.579 112.965 109.277 114.704C113.71 117.58 118.014 115.507 118.914 110.09C119.299 107.481 118.336 102.332 117.179 100.794C115.766 98.988 115.38 100.192 115.766 105.141Z" fill="#F277C6"/>
<path d="M115.92 86.3248C114.548 86.7099 114.765 89.1305 116.209 89.7356C118.881 90.8359 121.336 88.2503 119.169 86.5999C118.231 85.8847 117.436 85.8297 115.92 86.3248Z" fill="#F277C6"/>
<path d="M96.2366 95.7903C95.596 97.4444 96.2948 98.8032 97.867 98.9804C99.6721 99.2167 100.662 97.2672 99.4974 95.8494C98.5657 94.7269 96.6442 94.7269 96.2366 95.7903Z" fill="#F277C6"/>
<path d="M81.6181 2.30031C80.7242 5.04791 80.7242 4.98402 84.2998 35.9744C85.7046 48.4984 86.7262 58.9776 86.5346 59.1693C86.3431 59.361 81.4904 56.7412 75.8076 53.2907C64.9528 46.7732 58.1207 43.5144 55.4389 43.4505C52.3741 43.4505 50.9693 45.1118 50.9693 48.6262C50.9693 52.3323 52.1187 55.4633 59.3977 71.5655C65.3998 84.7923 66.3576 87.7955 65.0167 89.0735C63.2927 90.7348 58.1207 92.0128 31.4307 97.3802C16.9364 100.319 3.97457 103.259 2.63369 103.962C-1.89977 106.134 -0.431187 110.032 5.89012 112.396C7.67796 113.035 16.9364 115.335 26.4503 117.508C52.7572 123.45 68.8478 128.435 68.8478 130.671C68.8478 131.182 66.613 133.93 63.8673 136.869C53.9703 147.412 47.9044 154.633 47.4575 156.358C47.1382 157.7 47.3298 158.339 48.4153 159.233C49.5646 160.192 50.0754 160.192 52.5656 159.489C54.0981 158.978 61.9518 155.144 69.9332 150.927C77.9147 146.709 85.1938 143.131 86.0877 142.939C88.7056 142.3 89.4718 143.323 89.7272 147.412C89.8549 149.457 90.3657 159.936 90.8766 170.735C92.1536 196.038 92.9198 200 96.5593 200C100.774 200 103.966 193.419 113.352 164.92C117.375 152.78 121.014 142.428 121.461 141.981C122.1 141.278 122.738 141.661 124.718 143.898C129.826 149.712 143.937 163.706 145.597 164.601C149.492 166.645 151.663 164.856 151.025 160.128C150.769 158.658 148.471 150.351 145.853 141.534C143.235 132.78 141.128 125.495 141.255 125.367C141.383 125.24 145.278 126.198 149.812 127.476C160.73 130.479 178.353 134.121 184.738 134.569C189.4 134.952 189.974 134.888 191.06 133.674C193.55 130.863 192.337 129.457 171.776 110.288C164.306 103.323 158.304 97.2524 158.432 96.869C158.559 96.4856 162.135 94.1214 166.349 91.6933C176.885 85.5591 182.951 81.0224 184.228 78.2748C185.249 76.1022 185.249 75.9744 183.972 74.6965C182.184 72.8434 174.203 72.0128 163.923 72.4601C159.517 72.6517 155.686 72.6517 155.494 72.3962C155.239 72.2045 158.432 68.4984 162.582 64.2811C174.522 51.9489 184.611 40.2556 186.845 35.9744C188.633 32.6517 187.548 30.0319 184.419 30.0319C183.078 30.0319 170.436 36.2939 152.876 45.5591C145.853 49.2652 139.978 52.2045 139.723 52.0767C139.468 51.9489 139.404 45.2396 139.595 37.2524C139.915 20.639 139.404 17.6997 136.467 17.3802C134.296 17.1246 133.849 17.8275 126.314 31.9489C119.865 44.1534 117.311 48.5623 116.609 48.5623C116.353 48.5623 115.076 46.6454 113.672 44.2172C112.331 41.853 109.266 36.4856 106.903 32.2684C99.4327 19.1054 91.0681 5.81468 88.4502 2.8754C86.5985 0.702866 85.513 -1.52588e-05 84.1721 -1.52588e-05C82.6397 -1.52588e-05 82.2566 0.383377 81.6181 2.30031ZM88.5779 9.13737C92.6005 15.2077 102.881 32.5879 107.989 41.9808C112.203 49.8403 114.629 53.0351 116.481 53.0351C118.652 53.0351 122.228 47.9872 128.102 36.5495C131.422 30.2236 134.487 24.4728 134.998 23.8339C135.764 22.8115 135.892 22.8754 136.02 24.9201C136.083 26.1342 136.147 33.6102 136.211 41.5335V55.9105L137.935 56.1022C139.212 56.23 145.533 53.2907 160.73 45.4313C172.287 39.4249 182.057 34.5048 182.44 34.5048C182.823 34.5048 183.142 34.6965 183.142 34.9521C183.142 36.1661 167.179 54.1853 158.368 63.0671C153.004 68.4345 148.662 73.1629 148.662 73.6741C148.662 75.8466 150.003 76.0383 165.327 76.0383C173.692 76.0383 180.652 76.2939 180.843 76.6134C181.737 77.9553 174.969 82.8754 163.093 89.5208C155.941 93.4824 154.09 95.3355 154.792 98.0192C155.047 99.1693 160.475 104.728 171.074 114.824C179.822 123.067 186.973 130.096 186.973 130.415C186.973 131.885 178.353 130.288 157.474 125.112C137.36 120.128 137.169 120.128 137.169 124.345C137.169 125.495 138.574 130.927 140.298 136.358C144.703 150.096 147.385 160.383 146.619 160.383C145.661 160.383 139.212 154.058 131.55 145.559C123.632 136.741 122.355 135.783 120.568 136.741C118.588 137.827 117.247 141.022 111.309 159.425C103.2 184.473 98.858 195.527 97.0063 195.527C95.7931 195.527 95.2823 189.84 94.0691 162.875C93.5583 151.054 92.8559 142.684 92.409 141.661C90.4934 137.444 85.3215 138.275 73.3174 144.728C60.4194 151.629 54.0981 154.76 53.7149 154.377C53.268 153.994 55.3751 151.502 64.3143 141.981C72.0403 133.674 73.7643 131.054 72.7427 129.137C70.3802 124.792 58.3761 120.767 24.1517 112.78C10.6151 109.649 5.63471 108.179 5.63471 107.348C5.63471 106.645 5.82627 106.645 32.4524 101.278C58.6315 96.0383 62.9096 95.016 66.4214 93.2268C71.6572 90.5431 71.2741 87.7316 62.9096 69.1374C56.3967 54.8243 54.4812 49.6486 55.0558 48.2428C55.6305 46.6454 60.4832 48.8818 74.4667 57.2524C86.7901 64.6645 89.408 65.8786 90.1103 64.6645C90.3019 64.4089 90.1742 62.6198 89.8549 60.7029C88.8333 54.1214 84.5552 7.85942 84.7468 5.23961C84.8745 3.89775 85.3215 4.34505 88.5779 9.13737Z" fill="#F277C6"/>
</svg>
