<svg width="46" height="46" viewBox="0 0 46 46" fill="none" xmlns="http://www.w3.org/2000/svg">
<rect width="46" height="46" rx="23" fill="white"/>
<path d="M23.0013 20.5013C21.6202 20.5013 20.5013 21.6206 20.5013 23.0013C20.5013 24.3824 21.6206 25.5013 23.0013 25.5013C24.3824 25.5013 25.5013 24.3821 25.5013 23.0013C25.5013 21.6202 24.3821 20.5013 23.0013 20.5013ZM23.0013 18.8346C25.3017 18.8346 27.168 20.6989 27.168 23.0013C27.168 25.3017 25.3037 27.168 23.0013 27.168C20.7009 27.168 18.8346 25.3037 18.8346 23.0013C18.8346 20.7009 20.6989 18.8346 23.0013 18.8346ZM28.418 18.6256C28.418 19.2007 27.9507 19.6673 27.3763 19.6673C26.8012 19.6673 26.3347 19.2 26.3347 18.6256C26.3347 18.0512 26.8019 17.5846 27.3763 17.5846C27.9499 17.5839 28.418 18.0512 28.418 18.6256ZM23.0013 16.3346C20.9392 16.3346 20.6031 16.3401 19.644 16.3828C18.9906 16.4135 18.5526 16.5014 18.1456 16.6594C17.784 16.7996 17.5231 16.9671 17.2451 17.2451C16.966 17.5241 16.7989 17.7843 16.6592 18.1462C16.5008 18.5541 16.4129 18.9914 16.3828 19.6439C16.3397 20.564 16.3346 20.8855 16.3346 23.0013C16.3346 25.0634 16.3401 25.3995 16.3828 26.3585C16.4135 27.0116 16.5015 27.4503 16.6591 27.8563C16.7997 28.2185 16.9676 28.48 17.2442 28.7566C17.5243 29.0364 17.7853 29.2041 18.1437 29.3425C18.5556 29.5017 18.9934 29.5897 19.6439 29.6198C20.564 29.6629 20.8855 29.668 23.0013 29.668C25.0634 29.668 25.3995 29.6625 26.3585 29.6198C27.0102 29.5892 27.4492 29.501 27.8563 29.3435C28.2175 29.2032 28.4798 29.0348 28.7567 28.7584C29.0368 28.4778 29.2042 28.2175 29.3427 27.8582C29.5016 27.4478 29.5897 27.0095 29.6198 26.3587C29.6629 25.4386 29.668 25.1171 29.668 23.0013C29.668 20.9392 29.6625 20.6031 29.6198 19.6441C29.5892 18.9922 29.5009 18.5525 29.3432 18.1456C29.2033 17.785 29.0352 17.5233 28.7575 17.2451C28.478 16.9656 28.2185 16.7987 27.8564 16.6592C27.4488 16.5009 27.0108 16.4129 26.3587 16.3828C25.4387 16.3397 25.1171 16.3346 23.0013 16.3346ZM23.0013 14.668C25.2652 14.668 25.5478 14.6763 26.4367 14.718C27.3235 14.7589 27.9284 14.8992 28.4597 15.1055C29.0089 15.3173 29.4728 15.6034 29.936 16.0666C30.3985 16.5298 30.6847 16.9951 30.8972 17.543C31.1027 18.0735 31.243 18.6791 31.2847 19.5659C31.3242 20.4548 31.3347 20.7374 31.3347 23.0013C31.3347 25.2652 31.3263 25.5478 31.2847 26.4367C31.2437 27.3236 31.1027 27.9284 30.8972 28.4596C30.6853 29.009 30.3985 29.4728 29.936 29.9361C29.4728 30.3986 29.0068 30.6846 28.4597 30.8971C27.9284 31.1027 27.3235 31.243 26.4367 31.2846C25.5478 31.3242 25.2652 31.3346 23.0013 31.3346C20.7374 31.3346 20.4548 31.3263 19.5659 31.2846C18.6791 31.2436 18.0749 31.1027 17.543 30.8971C16.9944 30.6853 16.5298 30.3986 16.0666 29.9361C15.6034 29.4728 15.318 29.0069 15.1055 28.4596C14.8992 27.9284 14.7596 27.3236 14.718 26.4367C14.6784 25.5478 14.668 25.2652 14.668 23.0013C14.668 20.7374 14.6763 20.4548 14.718 19.5659C14.7589 18.6784 14.8992 18.0742 15.1055 17.543C15.3173 16.9944 15.6034 16.5298 16.0666 16.0666C16.5298 15.6034 16.9951 15.318 17.543 15.1055C18.0742 14.8992 18.6784 14.7596 19.5659 14.718C20.4548 14.6784 20.7374 14.668 23.0013 14.668Z" fill="#0A0A13"/>
</svg>
